<svg width="75" height="75" viewBox="0 0 75 75" fill="none" xmlns="http://www.w3.org/2000/svg">
<mask id="mask0_221_9" style="mask-type:luminance" maskUnits="userSpaceOnUse" x="44" y="26" width="12" height="16">
<path d="M44.7998 26H55.5998V41.8H44.7998V26Z" fill="white"/>
</mask>
<g mask="url(#mask0_221_9)">
<mask id="mask1_221_9" style="mask-type:luminance" maskUnits="userSpaceOnUse" x="44" y="25" width="13" height="18">
<path d="M44.8857 42.0031L44.2725 26.1148L56.1131 25.657L56.7271 41.5453L44.8857 42.0031Z" fill="white"/>
</mask>
<g mask="url(#mask1_221_9)">
<mask id="mask2_221_9" style="mask-type:luminance" maskUnits="userSpaceOnUse" x="44" y="25" width="13" height="18">
<path d="M44.8857 42.0031L44.2725 26.1148L56.1131 25.657L56.7271 41.5453L44.8857 42.0031Z" fill="white"/>
</mask>
<g mask="url(#mask2_221_9)">
<path d="M46.2115 33.4398C46.2279 36.414 45.849 38.2039 45.8068 38.257C45.488 39.6383 44.8318 40.6117 45.013 41.2133C45.1427 41.6437 45.4919 41.9773 46.5349 41.657C49.2419 40.8281 49.7779 39.9836 50.9209 38.514C53.0474 35.7797 56.3349 31.3984 55.2544 28.1015C54.5802 26.0398 50.5224 25.8742 48.3834 26.1648C45.0638 26.6172 46.1818 27.9695 46.2115 33.4398Z" fill="#788A74"/>
</g>
</g>
</g>
<path d="M22.8915 37.25C23.4946 39.7961 25.4806 40.418 28.7306 41.0774C34.3407 42.2141 43.5478 42.9641 45.1188 37.4742C45.6337 35.6758 46.0024 29.6969 43.5579 27.6211C41.8649 26.1828 37.729 25.0617 36.7079 24.7399C28.3345 22.1156 26.6923 22.3828 25.2665 23.1867C22.4962 24.7492 22.3103 34.7969 22.8915 37.25Z" fill="#D2C6B1"/>
<mask id="mask3_221_9" style="mask-type:luminance" maskUnits="userSpaceOnUse" x="22" y="24" width="31" height="18">
<path d="M22.3999 24.8H52.5999V41.9313H22.3999V24.8Z" fill="white"/>
</mask>
<g mask="url(#mask3_221_9)">
<path d="M38.2762 26.8665C37.9606 27.5064 37.9098 28.1611 37.9075 28.4931C37.9028 29.3095 38.1379 29.8087 38.2426 29.8103C38.2879 29.8103 38.4614 29.6001 38.4864 28.5665C38.5028 27.9064 38.4325 27.3392 38.2762 26.8665ZM38.6817 32.0829C38.727 32.5142 38.7254 33.0767 38.6926 33.6267C43.8786 33.6111 48.3122 33.4954 49.07 33.3595C48.4067 32.7095 47.2661 31.6947 46.7856 31.6103C46.163 31.5009 39.8731 31.3509 39.113 31.4001C38.9606 31.4103 38.7997 31.6681 38.6817 32.0829ZM38.5325 32.8978C38.509 33.1259 38.4973 33.3704 38.5005 33.6267C38.502 33.6267 38.5036 33.6267 38.5059 33.6267C38.5208 33.3829 38.5301 33.1353 38.5325 32.8978ZM27.6489 33.3103C28.1669 33.5134 32.3856 33.6408 38.3215 33.6275C38.3153 33.0822 38.3778 32.5173 38.4997 32.072C38.4786 31.8712 38.445 31.704 38.3989 31.5876C38.3653 31.5033 38.3262 31.4533 38.2934 31.4533C38.0419 31.4533 36.5833 31.4923 34.895 31.5376C32.6903 31.597 30.1919 31.6642 29.627 31.6642C29.102 31.6642 28.1325 32.5517 27.6489 33.3103ZM38.5997 34.59C38.7215 35.1603 38.9645 35.6064 39.3747 35.6173C40.5661 35.647 46.8419 35.6259 48.7372 35.6189C48.9614 35.6181 49.1473 35.4431 49.1614 35.2212C49.195 34.6908 49.2434 34.0681 49.3106 33.4322C49.3067 33.4423 49.3012 33.4517 49.2934 33.4603C49.2473 33.515 49.1598 33.6158 45.8223 33.7079C43.8786 33.7618 41.2817 33.797 38.6809 33.8048C38.6606 34.0798 38.6333 34.3478 38.5997 34.59ZM31.8965 38.172C35.0887 38.3033 43.2239 38.5837 48.2176 38.2829C48.1028 38.1642 47.9708 38.0923 47.82 38.0806C41.1505 37.5626 34.6294 37.9556 31.8965 38.172ZM47.8005 38.8368C47.7661 38.8368 47.734 38.8533 47.713 38.8814C47.6926 38.9095 47.6872 38.9447 47.6989 38.9783L48.4825 41.3001C48.4981 41.3462 48.5442 41.3767 48.5919 41.3736L48.7864 41.3603C48.8434 41.3564 48.888 41.3095 48.8872 41.2525C48.8801 40.3767 48.7786 39.4587 48.5411 38.8368H47.8005ZM26.8598 38.2392C27.2598 38.397 27.6801 38.4603 27.9239 38.4853C28.002 38.4931 28.0739 38.5329 28.1223 38.5947C28.17 38.6572 28.1903 38.7368 28.1778 38.815L27.7184 41.6283C27.7129 41.6595 27.7223 41.69 27.7426 41.715C27.7637 41.7392 27.7926 41.7525 27.8247 41.7525H28.1786C28.2294 41.7525 28.2723 41.7181 28.284 41.6697L29.0583 38.3704C29.0661 38.3384 29.0583 38.3056 29.0379 38.2798C29.0169 38.254 28.9864 38.2392 28.9536 38.2392H26.8598ZM22.6583 38.0603H26.1856C26.0161 37.9243 25.8731 37.7579 25.7778 37.5548C25.3528 36.6462 23.4903 31.0509 24.2434 29.7845C24.3481 29.6079 24.4965 29.5118 24.6864 29.4993C25.627 29.4345 26.1153 31.1697 26.5895 32.8454C26.9403 34.0845 27.3028 35.365 27.7942 35.6275C28.2903 35.8923 30.4387 36.0158 33.27 35.9415C36.0895 35.8681 38.0223 35.6462 38.1965 35.4829C38.2723 35.4118 38.3512 35.0595 38.4137 34.59C38.3669 34.3579 38.3372 34.0954 38.3255 33.8056C35.6208 33.8111 28.0036 33.7939 27.5036 33.4337C27.4356 33.3845 27.434 33.3158 27.4629 33.2689C27.92 32.5243 28.9637 31.4861 29.627 31.4861C30.1895 31.4861 32.6864 31.4189 34.8895 31.3595C36.5794 31.3142 38.0395 31.2751 38.2934 31.2751C38.4083 31.2751 38.5005 31.3579 38.5661 31.522C38.5872 31.5759 38.6067 31.64 38.6231 31.7118C38.7481 31.422 38.909 31.2345 39.1012 31.222C39.8645 31.1728 46.1895 31.3243 46.8169 31.4345C47.4911 31.5525 49.1059 33.1415 49.288 33.3228C49.3036 33.3384 49.3137 33.3572 49.3169 33.3775C49.5176 31.5283 49.8872 29.5876 50.5567 29.5001C50.6676 29.4853 50.7176 29.4564 50.7176 29.4329C50.7215 29.2079 49.5794 28.5095 48.7497 28.3751C48.5387 28.3415 48.3512 28.3876 48.1762 28.5173C47.552 28.9806 47.3153 30.3525 47.2426 30.9204C47.2137 31.1447 47.0137 31.3025 46.7872 31.2814C45.827 31.1892 43.1028 30.9759 38.5512 30.9759C34.0606 30.9759 30.6942 31.2048 29.77 31.2759C29.5879 31.2892 29.427 31.1658 29.395 30.9876C29.3004 30.465 28.9106 28.7322 27.8637 28.372C27.5973 28.2806 27.1325 28.4165 26.6614 28.6212C26.0614 29.2423 25.3012 29.3587 25.2879 29.3603C25.2465 29.3665 25.2067 29.3423 25.1919 29.3033C25.177 29.2642 25.1911 29.2204 25.2262 29.1978C25.2715 29.1681 25.9028 28.7572 26.577 28.4626C26.9231 28.0822 27.202 27.5056 27.202 26.6353C27.202 26.1915 27.3536 25.8251 27.6528 25.5462C28.5801 24.6806 30.7356 24.8158 32.309 24.9142C32.7356 24.9408 33.1044 24.9634 33.3942 24.9634C33.6098 24.9634 33.8622 24.9493 34.1286 24.9337C35.2614 24.8681 36.8129 24.7783 37.7731 25.7009C37.9895 25.9087 38.1676 26.1611 38.3059 26.4564C38.3598 26.3759 38.4176 26.2954 38.4817 26.2173C39.1247 25.4243 40.1145 25.0204 41.4239 25.0165C42.1583 25.0142 42.8512 25.0033 43.4622 24.9947C47.2669 24.9361 49.177 24.9072 49.3669 27.0134C49.4833 28.3095 50.0598 28.4704 50.727 28.6579C51.234 28.8001 51.7583 28.947 52.0981 29.6001C52.7223 30.7962 51.7606 35.3837 50.6856 37.3618C50.3489 37.9814 50.0208 38.3126 49.7106 38.3439C49.3528 38.3806 48.9669 38.4126 48.5575 38.44C48.5958 38.5079 48.6325 38.5814 48.6661 38.6579H52.477C52.4794 38.6579 52.4817 38.6587 52.4833 38.6587C52.5028 38.6595 52.595 38.8454 52.4739 38.8368H48.7356C49.0106 39.6072 49.0622 40.6642 49.0669 41.2509C49.0684 41.4025 48.9505 41.5283 48.7989 41.5384L48.6036 41.5509C48.4739 41.5587 48.3544 41.4798 48.3122 41.3572L47.5286 39.0345C47.4989 38.9462 47.513 38.8525 47.5676 38.7775C47.6223 38.7017 47.7075 38.6579 47.8005 38.6579H48.4653C48.4301 38.5837 48.3926 38.515 48.352 38.4533C42.0786 38.847 30.6653 38.2978 30.5419 38.2915C30.495 38.2892 30.4583 38.2517 30.4567 38.2048C30.4551 38.1587 30.4903 38.1189 30.5372 38.1142C30.6215 38.1048 39.1012 37.2243 47.834 37.9025C48.0848 37.922 48.2848 38.0587 48.4442 38.2689C48.8895 38.24 49.3075 38.2056 49.6926 38.1665C49.863 38.1493 50.1458 37.9806 50.5278 37.2767C51.5692 35.3603 52.5262 30.8079 51.9387 29.6822C51.634 29.0978 51.17 28.9673 50.6786 28.829C50.0083 28.6415 49.3153 28.4478 49.188 27.0298C49.013 25.0884 47.2739 25.115 43.4653 25.1728C42.8528 25.1822 42.1598 25.1923 41.4247 25.1947C39.7301 25.2001 38.8481 25.8884 38.3911 26.6556C38.5919 27.1775 38.6848 27.8181 38.6661 28.5712C38.6434 29.5158 38.4997 29.9923 38.2403 29.9884C37.9184 29.9837 37.7239 29.2079 37.7286 28.4923C37.7309 28.0728 37.8012 27.3368 38.1926 26.6431C38.0567 26.3189 37.8754 26.047 37.6489 25.829C36.7442 24.9611 35.2997 25.0447 34.1387 25.1118C33.87 25.1275 33.6153 25.1423 33.3942 25.1423C33.0981 25.1423 32.7278 25.1189 32.2981 25.0923C30.7567 24.9954 28.6458 24.8642 27.7754 25.6767C27.5106 25.9236 27.3817 26.2376 27.3817 26.6353C27.3817 27.3876 27.1794 27.9353 26.8997 28.3329C27.2911 28.1908 27.6676 28.1158 27.9231 28.2033C29.0301 28.5845 29.445 30.2556 29.5715 30.9564C29.5879 31.0439 29.6669 31.104 29.7559 31.0978C30.6825 31.0275 34.0544 30.7978 38.5512 30.7978C43.1106 30.7978 45.8419 31.0118 46.8044 31.104C46.9348 31.1158 47.0481 31.0259 47.0645 30.8978C47.1583 30.1642 47.4137 28.8611 48.0684 28.3751C48.2817 28.2165 48.5208 28.1579 48.7786 28.1993C49.52 28.3189 50.9036 29.0165 50.8973 29.4361C50.8958 29.5275 50.8395 29.6431 50.5801 29.6767C50.0278 29.7486 49.5528 31.8775 49.3403 35.2322C49.3208 35.5478 49.0559 35.7962 48.738 35.797C46.8419 35.804 40.5637 35.8251 39.37 35.7954C38.9981 35.7861 38.709 35.5072 38.5294 35.0111C38.4684 35.3189 38.3965 35.5408 38.32 35.6126C37.9942 35.9181 34.877 36.0783 33.2747 36.1197C30.9989 36.179 28.3419 36.1228 27.709 35.7845C27.1504 35.4861 26.7942 34.2267 26.4169 32.8939C25.9833 31.3611 25.4926 29.6236 24.6981 29.6775C24.57 29.6861 24.4715 29.7509 24.3981 29.8751C23.6903 31.0658 25.5372 36.6173 25.9411 37.479C26.0575 37.729 26.2598 37.9181 26.4958 38.0603H28.9536C29.0419 38.0603 29.1239 38.1001 29.1786 38.1689C29.2333 38.2376 29.2536 38.3259 29.2333 38.4111L28.4583 41.7103C28.4278 41.84 28.3129 41.9306 28.1786 41.9306H27.8247C27.7403 41.9306 27.6606 41.8939 27.6059 41.8306C27.5512 41.7665 27.5278 41.6822 27.5411 41.5993L28.0004 38.7861C28.0051 38.7564 27.9981 38.7275 27.9794 38.7033C27.9614 38.6798 27.9348 38.6658 27.9059 38.6626C27.5794 38.629 26.9567 38.5298 26.4489 38.2392H22.6583C22.4083 38.2392 22.3411 38.0603 22.6583 38.0603Z" fill="black"/>
</g>
<mask id="mask4_221_9" style="mask-type:luminance" maskUnits="userSpaceOnUse" x="39" y="12" width="28" height="28">
<path d="M39.5117 12.6101H66.0617V39.1601H39.5117V12.6101Z" fill="white"/>
</mask>
<g mask="url(#mask4_221_9)">
<path d="M39.5166 12.7399C41.0955 12.7891 53.9595 13.3454 61.3064 24.0274C64.0626 28.0359 65.8251 33.0906 65.9368 39.1609" stroke="#060707" stroke-width="1.71677" stroke-miterlimit="10"/>
</g>
<mask id="mask5_221_9" style="mask-type:luminance" maskUnits="userSpaceOnUse" x="10" y="37" width="30" height="30">
<path d="M10.1729 37.4321H39.2729V66.5321H10.1729V37.4321Z" fill="white"/>
</mask>
<g mask="url(#mask5_221_9)">
<path d="M39.2686 66.3902C37.5381 66.3363 23.4389 65.7261 15.3858 54.0183C12.3647 49.6246 10.4326 44.0848 10.3108 37.4316" stroke="#060707" stroke-width="1.88167" stroke-miterlimit="10"/>
</g>
<path d="M25.007 51.5236C24.8898 51.5236 24.832 51.4603 24.832 51.333C24.832 51.2064 24.8898 51.1423 25.007 51.1423C25.1234 51.1423 25.182 51.2064 25.182 51.333C25.182 51.4603 25.1234 51.5236 25.007 51.5236Z" fill="black"/>
<path d="M26.1793 52.2048C26.0457 52.2048 25.9277 52.1775 25.8262 52.1236C25.7238 52.0697 25.6434 51.9861 25.5855 51.8736C25.527 51.7611 25.498 51.6166 25.498 51.4392C25.498 51.2564 25.5277 51.1072 25.5887 50.9923C25.6488 50.8759 25.7309 50.7916 25.8355 50.7392C25.9418 50.6853 26.0621 50.658 26.198 50.658C26.2707 50.658 26.3426 50.6666 26.4137 50.683C26.4863 50.6978 26.5449 50.7158 26.5887 50.7361L26.5137 50.9392C26.4699 50.9228 26.4176 50.9072 26.3574 50.8923C26.2988 50.8783 26.2434 50.8705 26.1918 50.8705C25.898 50.8705 25.7512 51.0595 25.7512 51.4361C25.7512 51.6158 25.7863 51.7533 25.8574 51.8486C25.9301 51.9447 26.0363 51.9923 26.1762 51.9923C26.2574 51.9923 26.3293 51.9845 26.3918 51.9673C26.4543 51.9509 26.5113 51.9314 26.5637 51.908V52.1236C26.5137 52.1509 26.4582 52.1705 26.398 52.183C26.3371 52.197 26.2645 52.2048 26.1793 52.2048Z" fill="black"/>
<path d="M27.9462 50.8894H27.4587V52.1769H27.2181V50.8894H26.7368V50.6831H27.9462V50.8894Z" fill="black"/>
<path d="M28.4734 50.6831V51.5956C28.4734 51.619 28.4719 51.6519 28.4703 51.6956C28.468 51.7394 28.4648 51.7847 28.4609 51.83C28.4586 51.8761 28.4562 51.9104 28.4547 51.9331L29.2547 50.6831H29.5547V52.1769H29.3266V51.2956C29.3266 51.2667 29.3266 51.2284 29.3266 51.18C29.3281 51.1323 29.3305 51.0847 29.3328 51.0362C29.3344 50.9886 29.3367 50.9534 29.3391 50.93L28.5453 52.1769H28.2422V50.6831H28.4734Z" fill="black"/>
<path d="M31.1656 52.1769H30.9188V50.8862H30.4781C30.4547 51.2011 30.4219 51.4542 30.3781 51.6456C30.3359 51.8378 30.2789 51.9769 30.2063 52.0644C30.1352 52.1519 30.0469 52.1956 29.9406 52.1956C29.9172 52.1956 29.8938 52.194 29.8688 52.1925C29.8453 52.1901 29.8266 52.1847 29.8125 52.1769V51.9925C29.825 51.9972 29.8375 52.0003 29.85 52.0019C29.8625 52.0042 29.875 52.005 29.8875 52.005C29.9875 52.005 30.0672 51.8987 30.1281 51.6862C30.1883 51.4722 30.2344 51.1378 30.2656 50.6831H31.1656V52.1769Z" fill="black"/>
<path d="M31.8834 51.2956H32.3271C32.7146 51.2956 32.9084 51.4378 32.9084 51.7206C32.9084 51.8604 32.86 51.9722 32.7646 52.055C32.6709 52.1362 32.5209 52.1769 32.3146 52.1769H31.6396V50.6831H31.8834V51.2956ZM32.6646 51.7331C32.6646 51.644 32.6318 51.5823 32.5678 51.5487C32.5029 51.5159 32.4131 51.4987 32.299 51.4987H31.8834V51.98H32.3053C32.4092 51.98 32.4943 51.9612 32.5615 51.9237C32.6303 51.8862 32.6646 51.8229 32.6646 51.7331Z" fill="black"/>
<path d="M33.5357 50.6831V51.305H34.3451V50.6831H34.592V52.1769H34.3451V51.5112H33.5357V52.1769H33.292V50.6831H33.5357Z" fill="black"/>
<path d="M35.0645 52.1769V50.6831H35.3082V51.2956H35.6957C35.8895 51.2956 36.0316 51.3315 36.1238 51.4019C36.2176 51.4729 36.2645 51.5792 36.2645 51.7206C36.2645 51.8604 36.2184 51.9722 36.127 52.055C36.0348 52.1362 35.8871 52.1769 35.6832 52.1769H35.0645ZM36.5113 52.1769V50.6831H36.7551V52.1769H36.5113ZM35.3082 51.98H35.6613C35.7676 51.98 35.8535 51.9628 35.9207 51.9269C35.9871 51.8894 36.0207 51.8253 36.0207 51.7331C36.0207 51.644 35.9895 51.5823 35.927 51.5487C35.866 51.5159 35.7785 51.4987 35.6645 51.4987H35.3082V51.98Z" fill="black"/>
<path d="M37.4603 50.683V51.5955C37.4603 51.6189 37.4587 51.6518 37.4571 51.6955C37.4548 51.7393 37.4517 51.7846 37.4478 51.8299C37.4454 51.876 37.4431 51.9104 37.4415 51.933L38.2415 50.683H38.5415V52.1768H38.3134V51.2955C38.3134 51.2666 38.3134 51.2283 38.3134 51.1799C38.3149 51.1322 38.3173 51.0846 38.3196 51.0361C38.3212 50.9885 38.3235 50.9533 38.3259 50.9299L37.5321 52.1768H37.229V50.683H37.4603ZM38.4353 50.0674C38.4228 50.2049 38.3759 50.3104 38.2946 50.383C38.2149 50.4541 38.0868 50.4893 37.9103 50.4893C37.729 50.4893 37.5993 50.4541 37.5228 50.383C37.4478 50.3127 37.4056 50.2072 37.3978 50.0674H37.6259C37.636 50.1674 37.6618 50.2354 37.704 50.2705C37.7454 50.3041 37.8165 50.3205 37.9165 50.3205C38.0017 50.3205 38.0681 50.3033 38.1165 50.2674C38.1665 50.2299 38.1954 50.1635 38.204 50.0674H38.4353Z" fill="black"/>
<path d="M39.9085 50.6831V51.5956C39.9085 51.619 39.9069 51.6519 39.9054 51.6956C39.903 51.7394 39.8999 51.7847 39.896 51.83C39.8937 51.8761 39.8913 51.9104 39.8897 51.9331L40.6897 50.6831H40.9897V52.1769H40.7616V51.2956C40.7616 51.2667 40.7616 51.2284 40.7616 51.18C40.7632 51.1323 40.7655 51.0847 40.7679 51.0362C40.7694 50.9886 40.7718 50.9534 40.7741 50.93L39.9804 52.1769H39.6772V50.6831H39.9085Z" fill="black"/>
<path d="M41.7101 50.6831V51.305H42.5194V50.6831H42.7663V52.1769H42.5194V51.5112H41.7101V52.1769H41.4663V50.6831H41.7101Z" fill="black"/>
<path d="M44.267 50.8894H43.7795V52.1769H43.5389V50.8894H43.0576V50.6831H44.267V50.8894Z" fill="black"/>
<path d="M45.1379 50.658C45.2645 50.658 45.3738 50.6861 45.466 50.7423C45.5598 50.797 45.6301 50.8751 45.6785 50.9767C45.7285 51.0767 45.7535 51.1947 45.7535 51.3298V51.4767H44.7316C44.7355 51.6455 44.7785 51.7751 44.8598 51.8642C44.9426 51.9517 45.0582 51.9955 45.2066 51.9955C45.302 51.9955 45.3863 51.9876 45.4598 51.9705C45.5324 51.9517 45.6082 51.9259 45.6879 51.8923V52.108C45.6105 52.1416 45.5348 52.1658 45.4598 52.1798C45.3863 52.1962 45.2988 52.2048 45.1973 52.2048C45.0535 52.2048 44.927 52.1767 44.8191 52.1205C44.7129 52.0626 44.6293 51.9767 44.5691 51.8642C44.5082 51.7501 44.4785 51.6095 44.4785 51.4423C44.4785 51.2783 44.5051 51.1376 44.5598 51.0205C44.616 50.9041 44.6926 50.8142 44.791 50.7517C44.891 50.6892 45.0066 50.658 45.1379 50.658ZM45.1348 50.858C45.0176 50.858 44.9254 50.8955 44.8566 50.9705C44.7895 51.0455 44.7504 51.1501 44.7379 51.283H45.4973C45.4949 51.1564 45.4645 51.0541 45.4066 50.9767C45.3504 50.8978 45.2598 50.858 45.1348 50.858Z" fill="black"/>
<path d="M46.8417 50.658C47.0245 50.658 47.1729 50.722 47.2854 50.8486C47.3979 50.9759 47.4542 51.1689 47.4542 51.4267C47.4542 51.6814 47.3979 51.8751 47.2854 52.008C47.1729 52.1392 47.0237 52.2048 46.8386 52.2048C46.7237 52.2048 46.6292 52.1837 46.5542 52.1423C46.4792 52.0986 46.4198 52.047 46.3761 51.9861H46.3604C46.362 52.0197 46.3651 52.0603 46.3698 52.108C46.3737 52.1564 46.3761 52.197 46.3761 52.233V52.8455H46.1323V50.683H46.3323L46.3667 50.8861H46.3761C46.4214 50.822 46.48 50.7673 46.5511 50.7236C46.6237 50.6798 46.7206 50.658 46.8417 50.658ZM46.7979 50.8611C46.6456 50.8611 46.537 50.9041 46.4729 50.9892C46.4104 51.0751 46.3776 51.2048 46.3761 51.3798V51.4267C46.3761 51.6126 46.4058 51.7548 46.4667 51.8548C46.5269 51.9533 46.6386 52.0017 46.8011 52.0017C46.8901 52.0017 46.9644 51.9783 47.0229 51.9298C47.0831 51.8798 47.1276 51.8111 47.1573 51.7236C47.1862 51.6361 47.2011 51.5361 47.2011 51.4236C47.2011 51.2533 47.1675 51.1166 47.1011 51.0142C47.0362 50.9126 46.9354 50.8611 46.7979 50.8611Z" fill="black"/>
<path d="M48.087 51.2956H48.5308C48.9183 51.2956 49.112 51.4378 49.112 51.7206C49.112 51.8604 49.0636 51.9722 48.9683 52.055C48.8745 52.1362 48.7245 52.1769 48.5183 52.1769H47.8433V50.6831H48.087V51.2956ZM48.8683 51.7331C48.8683 51.644 48.8354 51.5823 48.7714 51.5487C48.7065 51.5159 48.6167 51.4987 48.5026 51.4987H48.087V51.98H48.5089C48.6128 51.98 48.6979 51.9612 48.7651 51.9237C48.8339 51.8862 48.8683 51.8229 48.8683 51.7331Z" fill="black"/>
<path d="M50.071 50.658C50.1976 50.658 50.3069 50.6861 50.3991 50.7423C50.4929 50.797 50.5632 50.8751 50.6116 50.9767C50.6616 51.0767 50.6866 51.1947 50.6866 51.3298V51.4767H49.6647C49.6687 51.6455 49.7116 51.7751 49.7929 51.8642C49.8757 51.9517 49.9913 51.9955 50.1397 51.9955C50.2351 51.9955 50.3194 51.9876 50.3929 51.9705C50.4655 51.9517 50.5413 51.9259 50.621 51.8923V52.108C50.5437 52.1416 50.4679 52.1658 50.3929 52.1798C50.3194 52.1962 50.2319 52.2048 50.1304 52.2048C49.9866 52.2048 49.8601 52.1767 49.7522 52.1205C49.646 52.0626 49.5624 51.9767 49.5022 51.8642C49.4413 51.7501 49.4116 51.6095 49.4116 51.4423C49.4116 51.2783 49.4382 51.1376 49.4929 51.0205C49.5491 50.9041 49.6257 50.8142 49.7241 50.7517C49.8241 50.6892 49.9397 50.658 50.071 50.658ZM50.0679 50.858C49.9507 50.858 49.8585 50.8955 49.7897 50.9705C49.7226 51.0455 49.6835 51.1501 49.671 51.283H50.4304C50.428 51.1564 50.3976 51.0541 50.3397 50.9767C50.2835 50.8978 50.1929 50.858 50.0679 50.858Z" fill="black"/>
<path d="M51.7748 50.658C51.9576 50.658 52.1061 50.722 52.2186 50.8486C52.3311 50.9759 52.3873 51.1689 52.3873 51.4267C52.3873 51.6814 52.3311 51.8751 52.2186 52.008C52.1061 52.1392 51.9568 52.2048 51.7717 52.2048C51.6568 52.2048 51.5623 52.1837 51.4873 52.1423C51.4123 52.0986 51.3529 52.047 51.3092 51.9861H51.2936C51.2951 52.0197 51.2982 52.0603 51.3029 52.108C51.3068 52.1564 51.3092 52.197 51.3092 52.233V52.8455H51.0654V50.683H51.2654L51.2998 50.8861H51.3092C51.3545 50.822 51.4131 50.7673 51.4842 50.7236C51.5568 50.6798 51.6537 50.658 51.7748 50.658ZM51.7311 50.8611C51.5787 50.8611 51.4701 50.9041 51.4061 50.9892C51.3436 51.0751 51.3107 51.2048 51.3092 51.3798V51.4267C51.3092 51.6126 51.3389 51.7548 51.3998 51.8548C51.46 51.9533 51.5717 52.0017 51.7342 52.0017C51.8232 52.0017 51.8975 51.9783 51.9561 51.9298C52.0162 51.8798 52.0607 51.8111 52.0904 51.7236C52.1193 51.6361 52.1342 51.5361 52.1342 51.4236C52.1342 51.2533 52.1006 51.1166 52.0342 51.0142C51.9693 50.9126 51.8686 50.8611 51.7311 50.8611Z" fill="black"/>
<path d="M53.5388 51.5236C53.4216 51.5236 53.3638 51.4603 53.3638 51.333C53.3638 51.2064 53.4216 51.1423 53.5388 51.1423C53.6552 51.1423 53.7138 51.2064 53.7138 51.333C53.7138 51.4603 53.6552 51.5236 53.5388 51.5236Z" fill="black"/>
<path d="M18.9539 48.9505C18.9477 49.0052 18.9266 49.0498 18.8914 49.0849C18.8555 49.1208 18.8141 49.138 18.7664 49.138C18.7078 49.138 18.6617 49.1208 18.6289 49.0849C18.5977 49.0498 18.582 49.0052 18.582 48.9505V43.0974C18.582 43.0435 18.5992 42.999 18.6352 42.963C18.6703 42.9279 18.7141 42.9099 18.7664 42.9099C18.8203 42.9099 18.8648 42.9279 18.9008 42.963C18.9359 42.999 18.9539 43.0435 18.9539 43.0974V48.9505Z" fill="black"/>
<path d="M25.7241 42.9099C25.778 42.9099 25.8194 42.9271 25.8491 42.9599C25.878 42.9912 25.8929 43.031 25.8929 43.0787V48.9412C25.8929 49.0083 25.8749 49.0583 25.8397 49.0912C25.8038 49.1224 25.7601 49.138 25.7085 49.138C25.6476 49.138 25.5999 49.1146 25.5647 49.0662L21.5616 43.5943V48.988C21.5616 49.0302 21.5444 49.0654 21.5116 49.0943C21.4804 49.124 21.4405 49.138 21.3929 49.138C21.3382 49.138 21.2968 49.124 21.2679 49.0943C21.2382 49.0654 21.2241 49.0302 21.2241 48.988V43.088C21.2241 43.0302 21.2397 42.9865 21.271 42.9568C21.3038 42.9255 21.3413 42.9099 21.3835 42.9099C21.4374 42.9099 21.4819 42.931 21.5179 42.9724L25.5554 48.4787V43.0787C25.5554 43.031 25.5718 42.9912 25.6054 42.9599C25.6382 42.9271 25.678 42.9099 25.7241 42.9099Z" fill="black"/>
<path d="M32.0835 42.9099C32.1312 42.9099 32.1726 42.9271 32.2085 42.9599C32.2437 42.9912 32.2616 43.031 32.2616 43.0787C32.2616 43.1333 32.2444 43.1748 32.2116 43.2037C32.1804 43.2333 32.1374 43.2474 32.0835 43.2474H30.0991V48.9599C30.0991 49.0083 30.0812 49.0498 30.046 49.0849C30.0101 49.1208 29.9687 49.138 29.921 49.138C29.8687 49.138 29.8257 49.1208 29.7929 49.0849C29.7593 49.0498 29.7429 49.0083 29.7429 48.9599V43.2474H27.7616C27.7132 43.2474 27.6718 43.2318 27.6366 43.2005C27.6007 43.1677 27.5835 43.1271 27.5835 43.0787C27.5835 43.031 27.6007 42.9912 27.6366 42.9599C27.6718 42.9271 27.7132 42.9099 27.7616 42.9099H32.0835Z" fill="black"/>
<path d="M37.4834 48.7818C37.5311 48.7818 37.5725 48.7998 37.6084 48.8349C37.6436 48.8708 37.6615 48.9123 37.6615 48.9599C37.6615 49.0146 37.6436 49.0583 37.6084 49.0912C37.5725 49.1224 37.5311 49.138 37.4834 49.138H34.1303C34.0818 49.138 34.0404 49.1208 34.0053 49.0849C33.9693 49.0498 33.9521 49.0083 33.9521 48.9599V43.088C33.9521 43.0404 33.9693 42.999 34.0053 42.963C34.0404 42.9279 34.0818 42.9099 34.1303 42.9099H37.4834C37.5311 42.9099 37.5725 42.9279 37.6084 42.963C37.6436 42.999 37.6615 43.0404 37.6615 43.088C37.6615 43.1427 37.6436 43.1865 37.6084 43.2193C37.5725 43.2505 37.5311 43.2662 37.4834 43.2662H34.324V45.7474H37.0834C37.1311 45.7474 37.1725 45.7654 37.2084 45.8005C37.2436 45.8365 37.2615 45.8779 37.2615 45.9255C37.2615 45.9802 37.2436 46.024 37.2084 46.0568C37.1725 46.088 37.1311 46.1037 37.0834 46.1037H34.324V48.7818H37.4834Z" fill="black"/>
<path d="M43.9161 48.7912C43.9802 48.8333 44.013 48.8865 44.013 48.9505C44.013 49.0052 43.9958 49.049 43.963 49.0818C43.9317 49.113 43.8919 49.1287 43.8442 49.1287C43.8083 49.1287 43.7817 49.1224 43.763 49.1099C43.6021 49.0224 43.4739 48.874 43.3786 48.663C43.2849 48.4529 43.238 48.1068 43.238 47.6255C43.238 47.1404 43.1075 46.8068 42.8474 46.6255C42.5864 46.4443 42.2833 46.3537 41.938 46.3537H39.8567V48.9599C39.8567 49.0083 39.8388 49.0498 39.8036 49.0849C39.7677 49.1208 39.7231 49.138 39.6692 49.138C39.6169 49.138 39.5731 49.1208 39.538 49.0849C39.5021 49.0498 39.4849 49.0083 39.4849 48.9599V43.088C39.4849 43.0404 39.5021 42.999 39.538 42.963C39.5731 42.9279 39.6146 42.9099 39.663 42.9099H42.0099C42.3536 42.9099 42.6583 42.9802 42.9255 43.1193C43.1942 43.2591 43.4021 43.4505 43.5505 43.6943C43.6981 43.9365 43.7724 44.2115 43.7724 44.5193C43.7724 44.9177 43.6669 45.2591 43.4567 45.5443C43.2458 45.8279 42.9724 46.0208 42.6349 46.1224C42.9177 46.2123 43.1513 46.3896 43.3349 46.6537C43.52 46.9162 43.613 47.2404 43.613 47.6255C43.613 48.024 43.638 48.3021 43.688 48.4599C43.738 48.6162 43.8138 48.7271 43.9161 48.7912ZM42.0536 45.9974C42.4286 45.9623 42.7458 45.8146 43.0067 45.5537C43.2669 45.2912 43.3974 44.9498 43.3974 44.5287C43.3974 44.1623 43.2669 43.8599 43.0067 43.6224C42.7458 43.3849 42.3989 43.2662 41.9661 43.2662H39.8567V45.9974H42.0536Z" fill="black"/>
<path d="M46.2518 48.9505C46.2455 49.0052 46.2244 49.0498 46.1893 49.0849C46.1533 49.1208 46.1119 49.138 46.0643 49.138C46.0057 49.138 45.9596 49.1208 45.9268 49.0849C45.8955 49.0498 45.8799 49.0052 45.8799 48.9505V43.0974C45.8799 43.0435 45.8971 42.999 45.933 42.963C45.9682 42.9279 46.0119 42.9099 46.0643 42.9099C46.1182 42.9099 46.1627 42.9279 46.1986 42.963C46.2338 42.999 46.2518 43.0435 46.2518 43.0974V48.9505Z" fill="black"/>
<path d="M54.0189 46.0254C54.0189 46.6465 53.8924 47.2004 53.6408 47.6879C53.3885 48.1738 53.0361 48.552 52.5846 48.8223C52.1346 49.091 51.6221 49.2254 51.0471 49.2254C50.4721 49.2254 49.958 49.091 49.5064 48.8223C49.0564 48.552 48.7049 48.1738 48.4533 47.6879C48.201 47.2004 48.0752 46.6465 48.0752 46.0254C48.0752 45.4027 48.201 44.8488 48.4533 44.3629C48.7049 43.8754 49.0564 43.4973 49.5064 43.2285C49.958 42.9582 50.4721 42.8223 51.0471 42.8223C51.6221 42.8223 52.1346 42.9582 52.5846 43.2285C53.0361 43.4973 53.3885 43.8754 53.6408 44.3629C53.8924 44.8488 54.0189 45.4027 54.0189 46.0254ZM53.6471 46.0254C53.6471 45.4676 53.5361 44.9715 53.3158 44.5379C53.0971 44.1051 52.7893 43.7707 52.3939 43.5348C52.0002 43.2973 51.551 43.1785 51.0471 43.1785C50.5424 43.1785 50.0939 43.2973 49.7002 43.5348C49.3064 43.7707 48.9986 44.1051 48.7783 44.5379C48.5596 44.9715 48.4502 45.4676 48.4502 46.0254C48.4502 46.5816 48.5596 47.077 48.7783 47.5098C48.9986 47.9434 49.3064 48.2785 49.7002 48.516C50.0939 48.7535 50.5424 48.8723 51.0471 48.8723C51.551 48.8723 52.0002 48.7535 52.3939 48.516C52.7893 48.2785 53.0971 47.9434 53.3158 47.5098C53.5361 47.077 53.6471 46.5816 53.6471 46.0254Z" fill="black"/>
<path d="M60.2735 48.7912C60.3376 48.8333 60.3704 48.8865 60.3704 48.9505C60.3704 49.0052 60.3532 49.049 60.3204 49.0818C60.2892 49.113 60.2493 49.1287 60.2017 49.1287C60.1657 49.1287 60.1392 49.1224 60.1204 49.1099C59.9595 49.0224 59.8313 48.874 59.736 48.663C59.6423 48.4529 59.5954 48.1068 59.5954 47.6255C59.5954 47.1404 59.4649 46.8068 59.2048 46.6255C58.9438 46.4443 58.6407 46.3537 58.2954 46.3537H56.2142V48.9599C56.2142 49.0083 56.1962 49.0498 56.161 49.0849C56.1251 49.1208 56.0806 49.138 56.0267 49.138C55.9743 49.138 55.9306 49.1208 55.8954 49.0849C55.8595 49.0498 55.8423 49.0083 55.8423 48.9599V43.088C55.8423 43.0404 55.8595 42.999 55.8954 42.963C55.9306 42.9279 55.972 42.9099 56.0204 42.9099H58.3673C58.711 42.9099 59.0157 42.9802 59.2829 43.1193C59.5517 43.2591 59.7595 43.4505 59.9079 43.6943C60.0556 43.9365 60.1298 44.2115 60.1298 44.5193C60.1298 44.9177 60.0243 45.2591 59.8142 45.5443C59.6032 45.8279 59.3298 46.0208 58.9923 46.1224C59.2751 46.2123 59.5087 46.3896 59.6923 46.6537C59.8774 46.9162 59.9704 47.2404 59.9704 47.6255C59.9704 48.024 59.9954 48.3021 60.0454 48.4599C60.0954 48.6162 60.1712 48.7271 60.2735 48.7912ZM58.411 45.9974C58.786 45.9623 59.1032 45.8146 59.3642 45.5537C59.6243 45.2912 59.7548 44.9498 59.7548 44.5287C59.7548 44.1623 59.6243 43.8599 59.3642 43.6224C59.1032 43.3849 58.7563 43.2662 58.3235 43.2662H56.2142V45.9974H58.411Z" fill="black"/>
</svg>
