<svg xmlns="http://www.w3.org/2000/svg" xmlns:xlink="http://www.w3.org/1999/xlink" width="500" zoomAndPan="magnify" viewBox="0 0 375 374.999991" height="500" preserveAspectRatio="xMidYMid meet" version="1.0"><defs><g/><clipPath id="23aa06768d"><path d="M 68.613281 133 L 306.363281 133 L 306.363281 204.222656 L 68.613281 204.222656 Z M 68.613281 133 " clip-rule="nonzero"/></clipPath></defs><g fill="#000000" fill-opacity="1"><g transform="translate(72.336996, 239.157733)"><g/></g></g><g fill="#000000" fill-opacity="1"><g transform="translate(86.784746, 239.157733)"><g><path d="M 6.3125 -0.9375 C 6.28125 -0.664062 6.175781 -0.441406 6 -0.265625 C 5.820312 -0.0859375 5.613281 0 5.375 0 C 5.082031 0 4.851562 -0.0859375 4.6875 -0.265625 C 4.53125 -0.441406 4.453125 -0.664062 4.453125 -0.9375 L 4.453125 -30.203125 C 4.453125 -30.472656 4.539062 -30.695312 4.71875 -30.875 C 4.894531 -31.050781 5.113281 -31.140625 5.375 -31.140625 C 5.644531 -31.140625 5.867188 -31.050781 6.046875 -30.875 C 6.222656 -30.695312 6.3125 -30.472656 6.3125 -30.203125 Z M 6.3125 -0.9375 "/></g></g></g><g fill="#000000" fill-opacity="1"><g transform="translate(99.995635, 239.157733)"><g><path d="M 26.953125 -31.140625 C 27.222656 -31.140625 27.429688 -31.054688 27.578125 -30.890625 C 27.722656 -30.734375 27.796875 -30.535156 27.796875 -30.296875 L 27.796875 -0.984375 C 27.796875 -0.648438 27.707031 -0.398438 27.53125 -0.234375 C 27.351562 -0.078125 27.132812 0 26.875 0 C 26.570312 0 26.332031 -0.117188 26.15625 -0.359375 L 6.140625 -27.71875 L 6.140625 -0.75 C 6.140625 -0.539062 6.054688 -0.363281 5.890625 -0.21875 C 5.734375 -0.0703125 5.535156 0 5.296875 0 C 5.023438 0 4.816406 -0.0703125 4.671875 -0.21875 C 4.523438 -0.363281 4.453125 -0.539062 4.453125 -0.75 L 4.453125 -30.25 C 4.453125 -30.539062 4.53125 -30.757812 4.6875 -30.90625 C 4.851562 -31.0625 5.039062 -31.140625 5.25 -31.140625 C 5.519531 -31.140625 5.742188 -31.035156 5.921875 -30.828125 L 26.109375 -3.296875 L 26.109375 -30.296875 C 26.109375 -30.535156 26.191406 -30.734375 26.359375 -30.890625 C 26.523438 -31.054688 26.722656 -31.140625 26.953125 -31.140625 Z M 26.953125 -31.140625 "/></g></g></g><g fill="#000000" fill-opacity="1"><g transform="translate(134.690664, 239.157733)"><g><path d="M 24.0625 -31.140625 C 24.300781 -31.140625 24.507812 -31.054688 24.6875 -30.890625 C 24.863281 -30.734375 24.953125 -30.535156 24.953125 -30.296875 C 24.953125 -30.023438 24.867188 -29.816406 24.703125 -29.671875 C 24.546875 -29.523438 24.332031 -29.453125 24.0625 -29.453125 L 14.140625 -29.453125 L 14.140625 -0.890625 C 14.140625 -0.648438 14.050781 -0.441406 13.875 -0.265625 C 13.695312 -0.0859375 13.488281 0 13.25 0 C 12.988281 0 12.773438 -0.0859375 12.609375 -0.265625 C 12.441406 -0.441406 12.359375 -0.648438 12.359375 -0.890625 L 12.359375 -29.453125 L 2.453125 -29.453125 C 2.210938 -29.453125 2.003906 -29.53125 1.828125 -29.6875 C 1.648438 -29.851562 1.5625 -30.054688 1.5625 -30.296875 C 1.5625 -30.535156 1.648438 -30.734375 1.828125 -30.890625 C 2.003906 -31.054688 2.210938 -31.140625 2.453125 -31.140625 Z M 24.0625 -31.140625 "/></g></g></g><g fill="#000000" fill-opacity="1"><g transform="translate(163.647688, 239.157733)"><g><path d="M 22.109375 -1.78125 C 22.347656 -1.78125 22.554688 -1.691406 22.734375 -1.515625 C 22.910156 -1.335938 23 -1.128906 23 -0.890625 C 23 -0.617188 22.910156 -0.398438 22.734375 -0.234375 C 22.554688 -0.078125 22.347656 0 22.109375 0 L 5.34375 0 C 5.101562 0 4.894531 -0.0859375 4.71875 -0.265625 C 4.539062 -0.441406 4.453125 -0.648438 4.453125 -0.890625 L 4.453125 -30.25 C 4.453125 -30.488281 4.539062 -30.695312 4.71875 -30.875 C 4.894531 -31.050781 5.101562 -31.140625 5.34375 -31.140625 L 22.109375 -31.140625 C 22.347656 -31.140625 22.554688 -31.050781 22.734375 -30.875 C 22.910156 -30.695312 23 -30.488281 23 -30.25 C 23 -29.976562 22.910156 -29.757812 22.734375 -29.59375 C 22.554688 -29.4375 22.347656 -29.359375 22.109375 -29.359375 L 6.3125 -29.359375 L 6.3125 -16.953125 L 20.109375 -16.953125 C 20.347656 -16.953125 20.554688 -16.863281 20.734375 -16.6875 C 20.910156 -16.507812 21 -16.300781 21 -16.0625 C 21 -15.789062 20.910156 -15.570312 20.734375 -15.40625 C 20.554688 -15.25 20.347656 -15.171875 20.109375 -15.171875 L 6.3125 -15.171875 L 6.3125 -1.78125 Z M 22.109375 -1.78125 "/></g></g></g><g fill="#000000" fill-opacity="1"><g transform="translate(191.314782, 239.157733)"><g><path d="M 26.609375 -1.734375 C 26.929688 -1.523438 27.09375 -1.257812 27.09375 -0.9375 C 27.09375 -0.664062 27.007812 -0.445312 26.84375 -0.28125 C 26.6875 -0.125 26.488281 -0.046875 26.25 -0.046875 C 26.070312 -0.046875 25.9375 -0.078125 25.84375 -0.140625 C 25.039062 -0.578125 24.398438 -1.320312 23.921875 -2.375 C 23.453125 -3.425781 23.21875 -5.15625 23.21875 -7.5625 C 23.21875 -9.988281 22.566406 -11.65625 21.265625 -12.5625 C 19.960938 -13.46875 18.445312 -13.921875 16.71875 -13.921875 L 6.3125 -13.921875 L 6.3125 -0.890625 C 6.3125 -0.648438 6.222656 -0.441406 6.046875 -0.265625 C 5.867188 -0.0859375 5.644531 0 5.375 0 C 5.113281 0 4.894531 -0.0859375 4.71875 -0.265625 C 4.539062 -0.441406 4.453125 -0.648438 4.453125 -0.890625 L 4.453125 -30.25 C 4.453125 -30.488281 4.539062 -30.695312 4.71875 -30.875 C 4.894531 -31.050781 5.101562 -31.140625 5.34375 -31.140625 L 17.078125 -31.140625 C 18.796875 -31.140625 20.320312 -30.789062 21.65625 -30.09375 C 23 -29.394531 24.039062 -28.4375 24.78125 -27.21875 C 25.519531 -26.007812 25.890625 -24.632812 25.890625 -23.09375 C 25.890625 -21.101562 25.363281 -19.394531 24.3125 -17.96875 C 23.257812 -16.550781 21.890625 -15.585938 20.203125 -15.078125 C 21.617188 -14.628906 22.785156 -13.742188 23.703125 -12.421875 C 24.628906 -11.109375 25.09375 -9.488281 25.09375 -7.5625 C 25.09375 -5.570312 25.21875 -4.179688 25.46875 -3.390625 C 25.71875 -2.609375 26.097656 -2.054688 26.609375 -1.734375 Z M 17.296875 -15.703125 C 19.171875 -15.878906 20.757812 -16.617188 22.0625 -17.921875 C 23.363281 -19.234375 24.015625 -20.941406 24.015625 -23.046875 C 24.015625 -24.878906 23.363281 -26.390625 22.0625 -27.578125 C 20.757812 -28.765625 19.023438 -29.359375 16.859375 -29.359375 L 6.3125 -29.359375 L 6.3125 -15.703125 Z M 17.296875 -15.703125 "/></g></g></g><g fill="#000000" fill-opacity="1"><g transform="translate(223.296493, 239.157733)"><g><path d="M 6.3125 -0.9375 C 6.28125 -0.664062 6.175781 -0.441406 6 -0.265625 C 5.820312 -0.0859375 5.613281 0 5.375 0 C 5.082031 0 4.851562 -0.0859375 4.6875 -0.265625 C 4.53125 -0.441406 4.453125 -0.664062 4.453125 -0.9375 L 4.453125 -30.203125 C 4.453125 -30.472656 4.539062 -30.695312 4.71875 -30.875 C 4.894531 -31.050781 5.113281 -31.140625 5.375 -31.140625 C 5.644531 -31.140625 5.867188 -31.050781 6.046875 -30.875 C 6.222656 -30.695312 6.3125 -30.472656 6.3125 -30.203125 Z M 6.3125 -0.9375 "/></g></g></g><g fill="#000000" fill-opacity="1"><g transform="translate(236.507383, 239.157733)"><g><path d="M 31.9375 -15.5625 C 31.9375 -12.457031 31.304688 -9.6875 30.046875 -7.25 C 28.785156 -4.820312 27.023438 -2.929688 24.765625 -1.578125 C 22.515625 -0.234375 19.953125 0.4375 17.078125 0.4375 C 14.203125 0.4375 11.632812 -0.234375 9.375 -1.578125 C 7.125 -2.929688 5.367188 -4.820312 4.109375 -7.25 C 2.847656 -9.6875 2.21875 -12.457031 2.21875 -15.5625 C 2.21875 -18.675781 2.847656 -21.445312 4.109375 -23.875 C 5.367188 -26.3125 7.125 -28.203125 9.375 -29.546875 C 11.632812 -30.898438 14.203125 -31.578125 17.078125 -31.578125 C 19.953125 -31.578125 22.515625 -30.898438 24.765625 -29.546875 C 27.023438 -28.203125 28.785156 -26.3125 30.046875 -23.875 C 31.304688 -21.445312 31.9375 -18.675781 31.9375 -15.5625 Z M 30.078125 -15.5625 C 30.078125 -18.351562 29.523438 -20.832031 28.421875 -23 C 27.328125 -25.164062 25.789062 -26.835938 23.8125 -28.015625 C 21.84375 -29.203125 19.597656 -29.796875 17.078125 -29.796875 C 14.554688 -29.796875 12.3125 -29.203125 10.34375 -28.015625 C 8.375 -26.835938 6.835938 -25.164062 5.734375 -23 C 4.640625 -20.832031 4.09375 -18.351562 4.09375 -15.5625 C 4.09375 -12.78125 4.640625 -10.304688 5.734375 -8.140625 C 6.835938 -5.972656 8.375 -4.296875 10.34375 -3.109375 C 12.3125 -1.921875 14.554688 -1.328125 17.078125 -1.328125 C 19.597656 -1.328125 21.84375 -1.921875 23.8125 -3.109375 C 25.789062 -4.296875 27.328125 -5.972656 28.421875 -8.140625 C 29.523438 -10.304688 30.078125 -12.78125 30.078125 -15.5625 Z M 30.078125 -15.5625 "/></g></g></g><g fill="#000000" fill-opacity="1"><g transform="translate(273.115072, 239.157733)"><g><path d="M 26.609375 -1.734375 C 26.929688 -1.523438 27.09375 -1.257812 27.09375 -0.9375 C 27.09375 -0.664062 27.007812 -0.445312 26.84375 -0.28125 C 26.6875 -0.125 26.488281 -0.046875 26.25 -0.046875 C 26.070312 -0.046875 25.9375 -0.078125 25.84375 -0.140625 C 25.039062 -0.578125 24.398438 -1.320312 23.921875 -2.375 C 23.453125 -3.425781 23.21875 -5.15625 23.21875 -7.5625 C 23.21875 -9.988281 22.566406 -11.65625 21.265625 -12.5625 C 19.960938 -13.46875 18.445312 -13.921875 16.71875 -13.921875 L 6.3125 -13.921875 L 6.3125 -0.890625 C 6.3125 -0.648438 6.222656 -0.441406 6.046875 -0.265625 C 5.867188 -0.0859375 5.644531 0 5.375 0 C 5.113281 0 4.894531 -0.0859375 4.71875 -0.265625 C 4.539062 -0.441406 4.453125 -0.648438 4.453125 -0.890625 L 4.453125 -30.25 C 4.453125 -30.488281 4.539062 -30.695312 4.71875 -30.875 C 4.894531 -31.050781 5.101562 -31.140625 5.34375 -31.140625 L 17.078125 -31.140625 C 18.796875 -31.140625 20.320312 -30.789062 21.65625 -30.09375 C 23 -29.394531 24.039062 -28.4375 24.78125 -27.21875 C 25.519531 -26.007812 25.890625 -24.632812 25.890625 -23.09375 C 25.890625 -21.101562 25.363281 -19.394531 24.3125 -17.96875 C 23.257812 -16.550781 21.890625 -15.585938 20.203125 -15.078125 C 21.617188 -14.628906 22.785156 -13.742188 23.703125 -12.421875 C 24.628906 -11.109375 25.09375 -9.488281 25.09375 -7.5625 C 25.09375 -5.570312 25.21875 -4.179688 25.46875 -3.390625 C 25.71875 -2.609375 26.097656 -2.054688 26.609375 -1.734375 Z M 17.296875 -15.703125 C 19.171875 -15.878906 20.757812 -16.617188 22.0625 -17.921875 C 23.363281 -19.234375 24.015625 -20.941406 24.015625 -23.046875 C 24.015625 -24.878906 23.363281 -26.390625 22.0625 -27.578125 C 20.757812 -28.765625 19.023438 -29.359375 16.859375 -29.359375 L 6.3125 -29.359375 L 6.3125 -15.703125 Z M 17.296875 -15.703125 "/></g></g></g><g fill="#000000" fill-opacity="1"><g transform="translate(82.578625, 257.580053)"><g><path d="M 0.53125 -4.5 C 0.53125 -5.03125 0.625 -5.5625 0.8125 -6.09375 C 1 -6.625 1.269531 -7.097656 1.625 -7.515625 C 1.976562 -7.929688 2.414062 -8.269531 2.9375 -8.53125 C 3.46875 -8.789062 4.066406 -8.921875 4.734375 -8.921875 C 5.523438 -8.921875 6.203125 -8.738281 6.765625 -8.375 C 7.328125 -8.019531 7.742188 -7.554688 8.015625 -6.984375 L 7.328125 -6.5625 C 7.179688 -6.851562 7.003906 -7.097656 6.796875 -7.296875 C 6.597656 -7.492188 6.378906 -7.65625 6.140625 -7.78125 C 5.910156 -7.90625 5.671875 -7.992188 5.421875 -8.046875 C 5.171875 -8.109375 4.925781 -8.140625 4.6875 -8.140625 C 4.15625 -8.140625 3.679688 -8.03125 3.265625 -7.8125 C 2.859375 -7.59375 2.515625 -7.304688 2.234375 -6.953125 C 1.960938 -6.609375 1.753906 -6.21875 1.609375 -5.78125 C 1.472656 -5.34375 1.40625 -4.898438 1.40625 -4.453125 C 1.40625 -3.960938 1.488281 -3.488281 1.65625 -3.03125 C 1.820312 -2.582031 2.050781 -2.1875 2.34375 -1.84375 C 2.644531 -1.5 3 -1.222656 3.40625 -1.015625 C 3.8125 -0.816406 4.25 -0.71875 4.71875 -0.71875 C 4.96875 -0.71875 5.222656 -0.75 5.484375 -0.8125 C 5.753906 -0.875 6.007812 -0.972656 6.25 -1.109375 C 6.5 -1.242188 6.726562 -1.410156 6.9375 -1.609375 C 7.144531 -1.816406 7.320312 -2.066406 7.46875 -2.359375 L 8.1875 -1.984375 C 8.039062 -1.648438 7.835938 -1.351562 7.578125 -1.09375 C 7.328125 -0.84375 7.039062 -0.628906 6.71875 -0.453125 C 6.40625 -0.285156 6.070312 -0.15625 5.71875 -0.0625 C 5.363281 0.03125 5.015625 0.078125 4.671875 0.078125 C 4.066406 0.078125 3.507812 -0.0507812 3 -0.3125 C 2.488281 -0.582031 2.050781 -0.929688 1.6875 -1.359375 C 1.320312 -1.796875 1.035156 -2.285156 0.828125 -2.828125 C 0.628906 -3.378906 0.53125 -3.9375 0.53125 -4.5 Z M 0.53125 -4.5 "/></g></g></g><g fill="#000000" fill-opacity="1"><g transform="translate(95.637901, 257.580053)"><g><path d="M 7.40625 -8.09375 L 4.25 -8.09375 L 4.25 0 L 3.375 0 L 3.375 -8.09375 L 0.21875 -8.09375 L 0.21875 -8.875 L 7.40625 -8.875 Z M 7.40625 -8.09375 "/></g></g></g><g fill="#000000" fill-opacity="1"><g transform="translate(107.735221, 257.580053)"><g><path d="M 2 -1.3125 L 7.5 -8.875 L 8.21875 -8.875 L 8.21875 0 L 7.34375 0 L 7.34375 -7.4375 L 1.9375 0 L 1.140625 0 L 1.140625 -8.875 L 2 -8.875 Z M 2 -1.3125 "/></g></g></g><g fill="#000000" fill-opacity="1"><g transform="translate(121.569051, 257.580053)"><g><path d="M 3.140625 -6.53125 C 3.035156 -5.351562 2.90625 -4.347656 2.75 -3.515625 C 2.601562 -2.679688 2.414062 -2 2.1875 -1.46875 C 1.957031 -0.9375 1.679688 -0.546875 1.359375 -0.296875 C 1.035156 -0.0546875 0.65625 0.0625 0.21875 0.0625 L 0.078125 -0.78125 C 0.242188 -0.78125 0.398438 -0.8125 0.546875 -0.875 C 0.703125 -0.9375 0.851562 -1.039062 1 -1.1875 C 1.144531 -1.34375 1.28125 -1.554688 1.40625 -1.828125 C 1.53125 -2.097656 1.644531 -2.445312 1.75 -2.875 C 1.851562 -3.3125 1.945312 -3.832031 2.03125 -4.4375 C 2.125 -5.039062 2.207031 -5.757812 2.28125 -6.59375 L 2.46875 -8.875 L 6.96875 -8.875 L 6.96875 0 L 6.109375 0 L 6.109375 -8.09375 L 3.265625 -8.09375 Z M 3.140625 -6.53125 "/></g></g></g><g fill="#000000" fill-opacity="1"><g transform="translate(134.178586, 257.580053)"><g><path d="M 1.140625 -8.875 L 2 -8.875 L 2 -5.484375 L 4.09375 -5.484375 C 4.53125 -5.484375 4.925781 -5.421875 5.28125 -5.296875 C 5.632812 -5.179688 5.9375 -5.003906 6.1875 -4.765625 C 6.445312 -4.535156 6.644531 -4.25 6.78125 -3.90625 C 6.925781 -3.570312 7 -3.1875 7 -2.75 C 7 -2.320312 6.925781 -1.9375 6.78125 -1.59375 C 6.632812 -1.257812 6.429688 -0.972656 6.171875 -0.734375 C 5.921875 -0.492188 5.617188 -0.3125 5.265625 -0.1875 C 4.910156 -0.0625 4.519531 0 4.09375 0 L 1.140625 0 Z M 2 -0.765625 L 4.09375 -0.765625 C 4.445312 -0.765625 4.75 -0.8125 5 -0.90625 C 5.257812 -1.007812 5.472656 -1.148438 5.640625 -1.328125 C 5.804688 -1.503906 5.925781 -1.710938 6 -1.953125 C 6.082031 -2.203125 6.125 -2.46875 6.125 -2.75 C 6.125 -3.03125 6.082031 -3.289062 6 -3.53125 C 5.925781 -3.78125 5.804688 -3.988281 5.640625 -4.15625 C 5.472656 -4.332031 5.257812 -4.46875 5 -4.5625 C 4.75 -4.664062 4.445312 -4.71875 4.09375 -4.71875 L 2 -4.71875 Z M 2 -0.765625 "/></g></g></g><g fill="#000000" fill-opacity="1"><g transform="translate(146.026053, 257.580053)"><g><path d="M 8.125 -8.875 L 8.125 0 L 7.265625 0 L 7.265625 -4.15625 L 2 -4.15625 L 2 0 L 1.125 0 L 1.125 -8.875 L 2 -8.875 L 2 -4.921875 L 7.265625 -4.921875 L 7.265625 -8.875 Z M 8.125 -8.875 "/></g></g></g><g fill="#000000" fill-opacity="1"><g transform="translate(159.772429, 257.580053)"><g><path d="M 1.140625 -8.875 L 2 -8.875 L 2 -5.484375 L 4.09375 -5.484375 C 4.53125 -5.484375 4.925781 -5.421875 5.28125 -5.296875 C 5.632812 -5.179688 5.9375 -5.003906 6.1875 -4.765625 C 6.445312 -4.535156 6.644531 -4.25 6.78125 -3.90625 C 6.925781 -3.570312 7 -3.1875 7 -2.75 C 7 -2.320312 6.925781 -1.9375 6.78125 -1.59375 C 6.632812 -1.257812 6.429688 -0.972656 6.171875 -0.734375 C 5.921875 -0.492188 5.617188 -0.3125 5.265625 -0.1875 C 4.910156 -0.0625 4.519531 0 4.09375 0 L 1.140625 0 Z M 2 -0.765625 L 4.09375 -0.765625 C 4.445312 -0.765625 4.75 -0.8125 5 -0.90625 C 5.257812 -1.007812 5.472656 -1.148438 5.640625 -1.328125 C 5.804688 -1.503906 5.925781 -1.710938 6 -1.953125 C 6.082031 -2.203125 6.125 -2.46875 6.125 -2.75 C 6.125 -3.03125 6.082031 -3.289062 6 -3.53125 C 5.925781 -3.78125 5.804688 -3.988281 5.640625 -4.15625 C 5.472656 -4.332031 5.257812 -4.46875 5 -4.5625 C 4.75 -4.664062 4.445312 -4.71875 4.09375 -4.71875 L 2 -4.71875 Z M 8.21875 0 L 8.21875 -8.859375 L 9.09375 -8.859375 L 9.09375 0 Z M 8.21875 0 "/></g></g></g><g fill="#000000" fill-opacity="1"><g transform="translate(174.493251, 257.580053)"><g><path d="M 6.625 -11.453125 C 6.601562 -11.046875 6.429688 -10.722656 6.109375 -10.484375 C 5.796875 -10.253906 5.351562 -10.140625 4.78125 -10.140625 C 4.21875 -10.140625 3.773438 -10.253906 3.453125 -10.484375 C 3.128906 -10.722656 2.960938 -11.046875 2.953125 -11.453125 L 3.484375 -11.453125 C 3.484375 -11.335938 3.515625 -11.226562 3.578125 -11.125 C 3.648438 -11.03125 3.742188 -10.945312 3.859375 -10.875 C 3.972656 -10.800781 4.109375 -10.738281 4.265625 -10.6875 C 4.429688 -10.644531 4.609375 -10.625 4.796875 -10.625 C 5.160156 -10.625 5.457031 -10.703125 5.6875 -10.859375 C 5.925781 -11.015625 6.0625 -11.210938 6.09375 -11.453125 Z M 2 -1.3125 L 7.5 -8.875 L 8.21875 -8.875 L 8.21875 0 L 7.34375 0 L 7.34375 -7.4375 L 1.9375 0 L 1.140625 0 L 1.140625 -8.875 L 2 -8.875 Z M 2 -1.3125 "/></g></g></g><g fill="#000000" fill-opacity="1"><g transform="translate(188.327079, 257.580053)"><g/></g></g><g fill="#000000" fill-opacity="1"><g transform="translate(196.00194, 257.580053)"><g><path d="M 2 -1.3125 L 7.5 -8.875 L 8.21875 -8.875 L 8.21875 0 L 7.34375 0 L 7.34375 -7.4375 L 1.9375 0 L 1.140625 0 L 1.140625 -8.875 L 2 -8.875 Z M 2 -1.3125 "/></g></g></g><g fill="#000000" fill-opacity="1"><g transform="translate(209.835769, 257.580053)"><g><path d="M 8.125 -8.875 L 8.125 0 L 7.265625 0 L 7.265625 -4.15625 L 2 -4.15625 L 2 0 L 1.125 0 L 1.125 -8.875 L 2 -8.875 L 2 -4.921875 L 7.265625 -4.921875 L 7.265625 -8.875 Z M 8.125 -8.875 "/></g></g></g><g fill="#000000" fill-opacity="1"><g transform="translate(223.582139, 257.580053)"><g><path d="M 7.40625 -8.09375 L 4.25 -8.09375 L 4.25 0 L 3.375 0 L 3.375 -8.09375 L 0.21875 -8.09375 L 0.21875 -8.875 L 7.40625 -8.875 Z M 7.40625 -8.09375 "/></g></g></g><g fill="#000000" fill-opacity="1"><g transform="translate(235.679454, 257.580053)"><g><path d="M 7.09375 -0.78125 L 7.09375 0 L 1.125 0 L 1.125 -8.875 L 6.96875 -8.875 L 6.96875 -8.09375 L 2 -8.09375 L 2 -4.90625 L 6.34375 -4.90625 L 6.34375 -4.15625 L 2 -4.15625 L 2 -0.78125 Z M 7.09375 -0.78125 "/></g></g></g><g fill="#000000" fill-opacity="1"><g transform="translate(247.77677, 257.580053)"><g><path d="M 1.125 0 L 1.125 -8.875 L 4.796875 -8.875 C 5.179688 -8.875 5.535156 -8.789062 5.859375 -8.625 C 6.179688 -8.46875 6.457031 -8.253906 6.6875 -7.984375 C 6.914062 -7.722656 7.097656 -7.425781 7.234375 -7.09375 C 7.367188 -6.757812 7.4375 -6.425781 7.4375 -6.09375 C 7.4375 -5.71875 7.375 -5.363281 7.25 -5.03125 C 7.125 -4.695312 6.945312 -4.398438 6.71875 -4.140625 C 6.5 -3.878906 6.234375 -3.671875 5.921875 -3.515625 C 5.609375 -3.359375 5.257812 -3.28125 4.875 -3.28125 L 2 -3.28125 L 2 0 Z M 2 -4.046875 L 4.84375 -4.046875 C 5.09375 -4.046875 5.320312 -4.101562 5.53125 -4.21875 C 5.75 -4.332031 5.929688 -4.484375 6.078125 -4.671875 C 6.234375 -4.859375 6.351562 -5.070312 6.4375 -5.3125 C 6.519531 -5.5625 6.5625 -5.820312 6.5625 -6.09375 C 6.5625 -6.363281 6.515625 -6.617188 6.421875 -6.859375 C 6.328125 -7.109375 6.195312 -7.320312 6.03125 -7.5 C 5.863281 -7.6875 5.671875 -7.832031 5.453125 -7.9375 C 5.234375 -8.039062 5.003906 -8.09375 4.765625 -8.09375 L 2 -8.09375 Z M 2 -4.046875 "/></g></g></g><g fill="#000000" fill-opacity="1"><g transform="translate(260.048989, 257.580053)"><g><path d="M 1.140625 -8.875 L 2 -8.875 L 2 -5.484375 L 4.09375 -5.484375 C 4.53125 -5.484375 4.925781 -5.421875 5.28125 -5.296875 C 5.632812 -5.179688 5.9375 -5.003906 6.1875 -4.765625 C 6.445312 -4.535156 6.644531 -4.25 6.78125 -3.90625 C 6.925781 -3.570312 7 -3.1875 7 -2.75 C 7 -2.320312 6.925781 -1.9375 6.78125 -1.59375 C 6.632812 -1.257812 6.429688 -0.972656 6.171875 -0.734375 C 5.921875 -0.492188 5.617188 -0.3125 5.265625 -0.1875 C 4.910156 -0.0625 4.519531 0 4.09375 0 L 1.140625 0 Z M 2 -0.765625 L 4.09375 -0.765625 C 4.445312 -0.765625 4.75 -0.8125 5 -0.90625 C 5.257812 -1.007812 5.472656 -1.148438 5.640625 -1.328125 C 5.804688 -1.503906 5.925781 -1.710938 6 -1.953125 C 6.082031 -2.203125 6.125 -2.46875 6.125 -2.75 C 6.125 -3.03125 6.082031 -3.289062 6 -3.53125 C 5.925781 -3.78125 5.804688 -3.988281 5.640625 -4.15625 C 5.472656 -4.332031 5.257812 -4.46875 5 -4.5625 C 4.75 -4.664062 4.445312 -4.71875 4.09375 -4.71875 L 2 -4.71875 Z M 2 -0.765625 "/></g></g></g><g fill="#000000" fill-opacity="1"><g transform="translate(271.896451, 257.580053)"><g><path d="M 7.09375 -0.78125 L 7.09375 0 L 1.125 0 L 1.125 -8.875 L 6.96875 -8.875 L 6.96875 -8.09375 L 2 -8.09375 L 2 -4.90625 L 6.34375 -4.90625 L 6.34375 -4.15625 L 2 -4.15625 L 2 -0.78125 Z M 7.09375 -0.78125 "/></g></g></g><g fill="#000000" fill-opacity="1"><g transform="translate(283.993777, 257.580053)"><g><path d="M 1.125 0 L 1.125 -8.875 L 4.796875 -8.875 C 5.179688 -8.875 5.535156 -8.789062 5.859375 -8.625 C 6.179688 -8.46875 6.457031 -8.253906 6.6875 -7.984375 C 6.914062 -7.722656 7.097656 -7.425781 7.234375 -7.09375 C 7.367188 -6.757812 7.4375 -6.425781 7.4375 -6.09375 C 7.4375 -5.71875 7.375 -5.363281 7.25 -5.03125 C 7.125 -4.695312 6.945312 -4.398438 6.71875 -4.140625 C 6.5 -3.878906 6.234375 -3.671875 5.921875 -3.515625 C 5.609375 -3.359375 5.257812 -3.28125 4.875 -3.28125 L 2 -3.28125 L 2 0 Z M 2 -4.046875 L 4.84375 -4.046875 C 5.09375 -4.046875 5.320312 -4.101562 5.53125 -4.21875 C 5.75 -4.332031 5.929688 -4.484375 6.078125 -4.671875 C 6.234375 -4.859375 6.351562 -5.070312 6.4375 -5.3125 C 6.519531 -5.5625 6.5625 -5.820312 6.5625 -6.09375 C 6.5625 -6.363281 6.515625 -6.617188 6.421875 -6.859375 C 6.328125 -7.109375 6.195312 -7.320312 6.03125 -7.5 C 5.863281 -7.6875 5.671875 -7.832031 5.453125 -7.9375 C 5.234375 -8.039062 5.003906 -8.09375 4.765625 -8.09375 L 2 -8.09375 Z M 2 -4.046875 "/></g></g></g><g clip-path="url(#23aa06768d)"><path stroke-linecap="round" transform="matrix(0.0145462, 0, 0, -0.0145016, 68.755898, 204.120265)" fill="none" stroke-linejoin="round" d="M 24.56878 51.661212 C 1022.465534 53.546777 2020.362287 55.432343 2561.740074 47.081982 C 3103.11786 38.462255 3187.97668 19.606603 3217.516143 146.747574 C 3247.055605 273.619179 3221.275711 546.487407 3216.44198 729.656603 C 3211.60825 912.825798 3227.720684 1006.295961 3197.644141 1057.744956 C 3167.567597 1108.924584 3091.570616 1118.083044 3051.02099 1101.921056 C 3010.202824 1086.028435 3005.100553 1044.545999 3011.545527 930.065252 C 3018.259041 815.315138 3037.056881 627.297346 3045.650179 465.138735 C 3054.243477 302.710757 3052.900774 166.141959 3073.578398 94.49048 C 3094.256022 22.569634 3136.953972 16.104839 3166.224894 31.728094 C 3195.495816 47.351349 3211.60825 85.601387 3221.544251 242.372669 C 3231.480252 399.413317 3235.508361 675.513943 3241.684794 837.941921 C 3247.592686 1000.639266 3255.648904 1050.202695 3309.625558 1074.17631 C 3363.602212 1098.149926 3463.767844 1096.533727 3516.938877 1096.264361 C 3569.841369 1095.725628 3575.480721 1096.533727 3576.286343 1036.734372 C 3576.823424 976.66565 3571.989694 855.989474 3568.498666 736.929497 C 3564.739098 618.138886 3562.053692 500.695108 3540.033366 440.087654 C 3518.013039 379.480199 3476.657792 375.439702 3448.729572 378.941466 C 3420.801353 382.173864 3406.031622 392.948522 3391.530431 475.37466 C 3376.7607 558.070165 3362.259509 712.686515 3349.101021 821.510567 C 3336.211074 930.334619 3325.200911 993.366371 3331.645884 1033.232608 C 3338.359399 1073.368211 3363.065131 1090.338298 3433.959841 1091.954497 C 3504.854551 1093.840062 3621.938239 1080.641106 3682.091327 1143.134125 C 3741.975874 1205.896512 3744.661279 1344.350874 3733.919656 1704.22447 C 3723.446574 2064.098067 3699.277923 2645.12153 3632.679862 3087.690631 C 3566.081801 3530.259732 3456.78579 3834.105103 3306.13453 4036.668685 C 3155.483271 4239.232266 2963.745305 4340.514056 2828.93794 4297.954155 C 2694.399115 4255.394254 2617.059431 4068.723294 2605.243646 3519.485073 C 2593.15932 2970.516219 2646.330353 2058.710737 2661.100084 1593.78422 C 2675.869816 1128.588336 2651.701164 1110.00205 3098.28413 1101.921056 C 3544.867096 1093.840062 4461.664598 1096.533727 5322.605661 1096.533727 C 6183.815265 1096.533727 6988.63135 1093.840062 7407.286097 1104.614721 C 7825.672303 1115.120013 7857.62863 1139.093628 7873.741064 1269.736364 C 7889.584958 1400.379099 7889.584958 1637.690954 7888.242255 1881.467604 C 7886.899552 2125.513621 7884.482687 2376.024432 7827.015005 2513.401329 C 7769.815864 2650.508859 7657.834447 2674.482475 7347.133009 2685.257133 C 7036.700112 2696.031792 6527.547193 2693.338127 6043.905629 2683.910301 C 5559.995524 2674.482475 5101.328233 2658.589853 4834.935988 2650.508859 C 4568.275204 2642.697232 4493.620925 2642.697232 4476.434329 2721.35224 C 4458.979192 2799.737881 4498.991737 2957.047896 4500.33444 3178.467129 C 4501.677143 3399.616997 4464.350003 3684.876082 4408.493565 3940.774223 C 4352.368586 4196.672364 4277.714308 4423.209561 4263.213117 4557.892793 C 4248.443386 4692.576025 4293.826742 4735.135926 4395.066537 4735.135926 C 4496.306331 4735.135926 4653.671104 4692.576025 4893.477832 4684.495031 C 5133.553101 4676.414037 5456.070324 4703.081317 5747.973922 4731.095429 C 6039.87752 4759.109542 6300.898953 4788.470486 6438.391724 4741.870088 C 6575.615955 4695.000323 6588.774443 4572.438582 6562.188927 4432.637387 C 6535.60341 4292.566826 6469.005349 4135.25681 6487.534649 3880.705502 C 6506.332488 3626.154193 6610.257688 3274.361591 6686.254669 3063.717016 C 6762.25165 2853.072441 6810.051872 2783.845259 6735.397593 2749.096985 C 6660.743315 2714.618078 6463.634538 2714.618078 6271.628031 2739.938526 C 6079.621525 2765.258973 5893.25437 2815.899868 5739.917705 2839.873484 C 5586.58104 2863.847099 5466.543406 2861.153434 5318.846093 2837.179819 C 5170.88024 2813.206204 4994.986167 2767.952638 4824.194366 2730.510699 C 4653.671104 2693.338127 4488.250114 2663.977183 4345.655072 2646.468362 C 4203.06003 2629.228909 4083.290936 2623.841579 3995.20963 2597.174299 C 3907.396864 2570.50702 3851.271885 2522.559789 3848.586479 2513.401329 C 3845.901074 2503.973503 3896.655241 2533.334447 3942.038597 2597.174299 C 3987.153413 2661.283518 4027.165958 2759.871644 4020.452443 2934.421113 C 4014.00747 3108.970582 3960.567897 3359.75076 3883.228213 3614.302069 C 3805.888529 3868.853377 3704.648734 4127.445183 3598.038129 4287.179496 C 3491.427523 4447.183176 3379.446106 4508.59873 3296.735611 4523.144519 C 3214.293656 4537.959675 3160.854083 4505.905065 3062.299694 4457.957835 C 2963.745305 4410.010604 2819.80756 4345.901386 2817.122155 4344.554553 C 2814.436749 4343.207721 2953.003683 4404.623275 3060.956991 4445.836344 C 3168.9103 4487.318779 3246.249984 4508.59873 3428.85757 4508.59873 C 3611.465157 4508.59873 3899.340647 4487.318779 4529.605362 4475.197288 C 5160.138617 4463.075798 6133.061098 4460.651499 7196.750291 4477.890953 C 8260.170943 4495.130407 9414.358307 4532.572345 10132.704329 4537.690308 C 10851.318891 4543.077637 11133.823569 4516.410357 11297.633316 4549.811799 C 11461.711604 4583.213241 11506.826419 4676.414037 11495.010634 4735.135926 C 11482.926309 4793.857816 11413.642842 4817.831431 11243.388121 4814.8684 C 11073.401941 4811.905369 10802.175967 4782.275058 10516.985883 4782.275058 C 10231.795799 4782.275058 9932.373065 4811.905369 9705.456284 4838.842015 C 9478.270963 4865.778662 9323.860136 4889.752277 9246.520452 4852.310338 C 9169.180768 4815.137766 9169.180768 4716.54964 9173.208877 4553.852296 C 9177.236985 4391.154952 9185.293202 4164.617755 9186.635905 3958.013677 C 9187.710067 3751.409599 9182.607797 3565.008006 9165.15266 3395.5765 C 9147.966063 3226.41436 9118.426601 3074.491674 9090.498381 2950.583101 C 9062.570162 2826.405161 9035.984646 2730.510699 9095.869193 2693.338127 C 9155.75374 2655.896189 9302.37689 2677.176139 9467.797881 2697.109258 C 9632.95033 2717.311743 9816.90062 2735.898029 10003.536315 2745.325855 C 10190.172011 2754.484315 10379.493112 2754.484315 10550.016373 2757.177979 C 10720.539634 2759.871644 10872.533596 2765.258973 10992.57123 2753.137482 C 11112.340324 2741.285358 11200.42163 2711.924413 11254.935366 2723.776538 C 11309.717642 2735.898029 11330.932347 2789.232589 11317.773859 2911.79433 C 11304.34683 3034.356071 11256.278068 3226.41436 11259.500555 3392.882835 C 11262.723042 3559.081943 11316.699696 3699.960604 11340.868348 3855.923787 C 11364.768458 4011.88697 11358.592025 4182.934675 11376.047162 4317.887273 C 11393.502299 4452.839872 11434.589006 4551.697364 11477.286957 4586.445638 C 11519.984907 4621.193912 11564.02556 4591.563601 11639.48546 4564.626955 C 11714.676819 4537.959675 11821.555966 4513.716693 11946.695871 4501.864568 C 12072.104316 4489.743077 12216.042061 4489.743077 12237.256766 4448.530008 C 12258.471471 4407.316939 12157.231677 4324.621435 12061.362694 4168.658252 C 11965.493711 4012.695069 11874.726998 3783.464208 11828.000939 3546.152353 C 11781.543421 3309.109865 11778.858015 3063.717016 11770.801798 2907.753833 C 11762.745581 2751.79065 11749.587093 2685.257133 11597.593131 2659.936686 C 11445.599169 2634.616238 11155.038274 2650.508859 10908.518032 2705.190252 C 10661.99779 2759.871644 10459.24966 2853.072441 10198.228228 2873.274925 C 9936.938254 2893.208044 9617.106437 2839.873484 9367.900789 2795.96675 C 9118.426601 2751.79065 8939.847122 2717.311743 8765.295753 2691.991295 C 8590.744383 2666.670847 8420.221122 2650.508859 8284.071053 2641.3504 C 8148.189526 2631.922573 8046.949731 2629.228909 7991.093293 2574.547516 C 7934.968314 2519.866124 7924.226691 2413.466371 7921.809826 2228.142243 C 7919.124421 2042.818116 7924.226691 1778.838981 7917.781718 1578.969065 C 7911.068203 1379.099148 7892.270364 1243.069084 7991.093293 1176.535567 C 8089.647682 1110.00205 8305.554299 1112.426348 8932.059446 1117.813678 C 9558.296052 1123.201007 10595.399729 1131.282001 11193.708116 1129.935169 C 11792.016503 1128.588336 11952.066682 1117.813678 12029.406366 1292.363147 C 12106.74605 1467.181982 12101.375238 1826.786212 12086.605507 2069.485396 C 12072.104316 2312.18458 12047.935665 2437.439986 12009.534364 2514.748161 C 11970.595981 2592.056337 11917.424949 2621.147915 11861.29997 2645.12153 C 11805.443532 2669.364512 11746.901688 2687.950798 11768.116393 2671.78881 C 11789.599638 2655.896189 11890.839432 2605.255293 11956.094791 2562.695392 C 12021.350149 2519.866124 12050.621071 2485.387217 12081.234696 2599.867964 C 12112.116861 2714.618078 12144.073189 2978.597213 12203.957736 3239.613317 C 12263.842282 3500.898787 12351.923589 3759.490593 12443.764464 3946.161553 C 12535.873879 4132.563146 12631.742862 4247.31326 12746.409685 4306.035149 C 12861.076507 4364.487672 12994.272629 4367.181336 13023.543551 4392.501784 C 13053.083014 4417.822232 12978.428736 4465.769462 12788.033473 4487.318779 C 12597.90675 4508.59873 12292.039042 4503.480767 12293.381745 4482.200816 C 12294.724448 4460.920866 12603.277561 4423.478927 12814.88753 4393.848616 C 13026.228957 4364.487672 13140.89578 4343.207721 13183.59373 4221.992812 C 13226.291681 4100.777903 13196.752218 3879.358669 13176.880216 3336.85461 C 13157.008214 2794.619918 13146.266591 1930.761667 13138.210374 1513.78238 C 13130.422698 1096.533727 13124.783346 1125.894672 13047.712203 1131.282001 C 12970.372519 1136.66933 12821.063963 1117.813678 12721.166871 1113.773181 C 12621.001239 1110.00205 12570.515612 1120.507342 12496.398415 1124.547839 C 12422.549759 1128.588336 12325.338073 1125.894672 12238.062388 1124.547839 C 12151.055244 1123.201007 12074.521181 1123.201007 12075.595344 1125.625305 C 12076.669506 1127.780237 12155.083352 1132.628833 12195.632978 1080.641106 C 12235.914063 1028.653378 12237.793847 919.829326 12238.599469 802.116182 C 12239.13655 684.13367 12238.599469 556.723333 12261.962498 490.459182 C 12285.325528 424.195032 12332.588668 418.807703 12360.785428 469.448598 C 12388.982188 520.089493 12398.381107 626.758613 12406.705865 748.242889 C 12415.030623 869.996531 12422.549759 1006.565328 12416.910407 1070.135814 C 12411.002514 1133.975666 12392.473215 1124.547839 12406.437324 1118.352411 C 12420.401434 1111.887615 12467.127493 1108.655218 12498.81528 1106.500286 C 12530.503067 1104.614721 12547.152583 1103.806622 12553.060475 951.345203 C 12558.968368 798.614418 12554.403178 494.230313 12553.329016 320.219577 C 12552.523394 146.208841 12555.2088 102.84084 12583.405559 81.022157 C 12611.602319 58.934107 12665.578973 58.395374 12691.627408 61.897138 C 12717.675844 65.668268 12715.79606 73.749262 12729.223088 234.561041 C 12742.918657 395.642187 12772.189579 709.454118 12782.931202 883.73422 C 12793.672825 1058.014323 12785.616608 1092.49323 12772.189579 1067.442149 C 12759.031091 1042.660434 12740.233251 958.079364 12718.212925 779.758765 C 12696.461139 601.438166 12670.949785 329.647403 12659.671081 191.193041 C 12648.392377 53.008044 12651.077783 48.428815 13260.127793 50.31438 C 13869.177802 52.199945 15084.592417 61.089038 16300.007031 69.708765 " stroke="#000000" stroke-width="44.511002" stroke-opacity="1" stroke-miterlimit="22.926001"/></g></svg>