<svg xmlns="http://www.w3.org/2000/svg" xmlns:xlink="http://www.w3.org/1999/xlink" width="500" zoomAndPan="magnify" viewBox="0 0 375 374.999991" height="500" preserveAspectRatio="xMidYMid meet" version="1.0"><defs><g/><clipPath id="b283057904"><path d="M 69.382812 126.378906 L 307 126.378906 L 307 197.628906 L 69.382812 197.628906 Z M 69.382812 126.378906 " clip-rule="nonzero"/></clipPath></defs><g fill="#000000" fill-opacity="1"><g transform="translate(79.56569, 239.157733)"><g><path d="M 6.3125 -0.9375 C 6.28125 -0.664062 6.175781 -0.441406 6 -0.265625 C 5.820312 -0.0859375 5.613281 0 5.375 0 C 5.082031 0 4.851562 -0.0859375 4.6875 -0.265625 C 4.53125 -0.441406 4.453125 -0.664062 4.453125 -0.9375 L 4.453125 -30.203125 C 4.453125 -30.472656 4.539062 -30.695312 4.71875 -30.875 C 4.894531 -31.050781 5.113281 -31.140625 5.375 -31.140625 C 5.644531 -31.140625 5.867188 -31.050781 6.046875 -30.875 C 6.222656 -30.695312 6.3125 -30.472656 6.3125 -30.203125 Z M 6.3125 -0.9375 "/></g></g></g><g fill="#000000" fill-opacity="1"><g transform="translate(92.776579, 239.157733)"><g><path d="M 26.953125 -31.140625 C 27.222656 -31.140625 27.429688 -31.054688 27.578125 -30.890625 C 27.722656 -30.734375 27.796875 -30.535156 27.796875 -30.296875 L 27.796875 -0.984375 C 27.796875 -0.648438 27.707031 -0.398438 27.53125 -0.234375 C 27.351562 -0.078125 27.132812 0 26.875 0 C 26.570312 0 26.332031 -0.117188 26.15625 -0.359375 L 6.140625 -27.71875 L 6.140625 -0.75 C 6.140625 -0.539062 6.054688 -0.363281 5.890625 -0.21875 C 5.734375 -0.0703125 5.535156 0 5.296875 0 C 5.023438 0 4.816406 -0.0703125 4.671875 -0.21875 C 4.523438 -0.363281 4.453125 -0.539062 4.453125 -0.75 L 4.453125 -30.25 C 4.453125 -30.539062 4.53125 -30.757812 4.6875 -30.90625 C 4.851562 -31.0625 5.039062 -31.140625 5.25 -31.140625 C 5.519531 -31.140625 5.742188 -31.035156 5.921875 -30.828125 L 26.109375 -3.296875 L 26.109375 -30.296875 C 26.109375 -30.535156 26.191406 -30.734375 26.359375 -30.890625 C 26.523438 -31.054688 26.722656 -31.140625 26.953125 -31.140625 Z M 26.953125 -31.140625 "/></g></g></g><g fill="#000000" fill-opacity="1"><g transform="translate(127.471608, 239.157733)"><g><path d="M 24.0625 -31.140625 C 24.300781 -31.140625 24.507812 -31.054688 24.6875 -30.890625 C 24.863281 -30.734375 24.953125 -30.535156 24.953125 -30.296875 C 24.953125 -30.023438 24.867188 -29.816406 24.703125 -29.671875 C 24.546875 -29.523438 24.332031 -29.453125 24.0625 -29.453125 L 14.140625 -29.453125 L 14.140625 -0.890625 C 14.140625 -0.648438 14.050781 -0.441406 13.875 -0.265625 C 13.695312 -0.0859375 13.488281 0 13.25 0 C 12.988281 0 12.773438 -0.0859375 12.609375 -0.265625 C 12.441406 -0.441406 12.359375 -0.648438 12.359375 -0.890625 L 12.359375 -29.453125 L 2.453125 -29.453125 C 2.210938 -29.453125 2.003906 -29.53125 1.828125 -29.6875 C 1.648438 -29.851562 1.5625 -30.054688 1.5625 -30.296875 C 1.5625 -30.535156 1.648438 -30.734375 1.828125 -30.890625 C 2.003906 -31.054688 2.210938 -31.140625 2.453125 -31.140625 Z M 24.0625 -31.140625 "/></g></g></g><g fill="#000000" fill-opacity="1"><g transform="translate(156.428632, 239.157733)"><g><path d="M 22.109375 -1.78125 C 22.347656 -1.78125 22.554688 -1.691406 22.734375 -1.515625 C 22.910156 -1.335938 23 -1.128906 23 -0.890625 C 23 -0.617188 22.910156 -0.398438 22.734375 -0.234375 C 22.554688 -0.078125 22.347656 0 22.109375 0 L 5.34375 0 C 5.101562 0 4.894531 -0.0859375 4.71875 -0.265625 C 4.539062 -0.441406 4.453125 -0.648438 4.453125 -0.890625 L 4.453125 -30.25 C 4.453125 -30.488281 4.539062 -30.695312 4.71875 -30.875 C 4.894531 -31.050781 5.101562 -31.140625 5.34375 -31.140625 L 22.109375 -31.140625 C 22.347656 -31.140625 22.554688 -31.050781 22.734375 -30.875 C 22.910156 -30.695312 23 -30.488281 23 -30.25 C 23 -29.976562 22.910156 -29.757812 22.734375 -29.59375 C 22.554688 -29.4375 22.347656 -29.359375 22.109375 -29.359375 L 6.3125 -29.359375 L 6.3125 -16.953125 L 20.109375 -16.953125 C 20.347656 -16.953125 20.554688 -16.863281 20.734375 -16.6875 C 20.910156 -16.507812 21 -16.300781 21 -16.0625 C 21 -15.789062 20.910156 -15.570312 20.734375 -15.40625 C 20.554688 -15.25 20.347656 -15.171875 20.109375 -15.171875 L 6.3125 -15.171875 L 6.3125 -1.78125 Z M 22.109375 -1.78125 "/></g></g></g><g fill="#000000" fill-opacity="1"><g transform="translate(184.095726, 239.157733)"><g><path d="M 26.609375 -1.734375 C 26.929688 -1.523438 27.09375 -1.257812 27.09375 -0.9375 C 27.09375 -0.664062 27.007812 -0.445312 26.84375 -0.28125 C 26.6875 -0.125 26.488281 -0.046875 26.25 -0.046875 C 26.070312 -0.046875 25.9375 -0.078125 25.84375 -0.140625 C 25.039062 -0.578125 24.398438 -1.320312 23.921875 -2.375 C 23.453125 -3.425781 23.21875 -5.15625 23.21875 -7.5625 C 23.21875 -9.988281 22.566406 -11.65625 21.265625 -12.5625 C 19.960938 -13.46875 18.445312 -13.921875 16.71875 -13.921875 L 6.3125 -13.921875 L 6.3125 -0.890625 C 6.3125 -0.648438 6.222656 -0.441406 6.046875 -0.265625 C 5.867188 -0.0859375 5.644531 0 5.375 0 C 5.113281 0 4.894531 -0.0859375 4.71875 -0.265625 C 4.539062 -0.441406 4.453125 -0.648438 4.453125 -0.890625 L 4.453125 -30.25 C 4.453125 -30.488281 4.539062 -30.695312 4.71875 -30.875 C 4.894531 -31.050781 5.101562 -31.140625 5.34375 -31.140625 L 17.078125 -31.140625 C 18.796875 -31.140625 20.320312 -30.789062 21.65625 -30.09375 C 23 -29.394531 24.039062 -28.4375 24.78125 -27.21875 C 25.519531 -26.007812 25.890625 -24.632812 25.890625 -23.09375 C 25.890625 -21.101562 25.363281 -19.394531 24.3125 -17.96875 C 23.257812 -16.550781 21.890625 -15.585938 20.203125 -15.078125 C 21.617188 -14.628906 22.785156 -13.742188 23.703125 -12.421875 C 24.628906 -11.109375 25.09375 -9.488281 25.09375 -7.5625 C 25.09375 -5.570312 25.21875 -4.179688 25.46875 -3.390625 C 25.71875 -2.609375 26.097656 -2.054688 26.609375 -1.734375 Z M 17.296875 -15.703125 C 19.171875 -15.878906 20.757812 -16.617188 22.0625 -17.921875 C 23.363281 -19.234375 24.015625 -20.941406 24.015625 -23.046875 C 24.015625 -24.878906 23.363281 -26.390625 22.0625 -27.578125 C 20.757812 -28.765625 19.023438 -29.359375 16.859375 -29.359375 L 6.3125 -29.359375 L 6.3125 -15.703125 Z M 17.296875 -15.703125 "/></g></g></g><g fill="#000000" fill-opacity="1"><g transform="translate(216.077436, 239.157733)"><g><path d="M 6.3125 -0.9375 C 6.28125 -0.664062 6.175781 -0.441406 6 -0.265625 C 5.820312 -0.0859375 5.613281 0 5.375 0 C 5.082031 0 4.851562 -0.0859375 4.6875 -0.265625 C 4.53125 -0.441406 4.453125 -0.664062 4.453125 -0.9375 L 4.453125 -30.203125 C 4.453125 -30.472656 4.539062 -30.695312 4.71875 -30.875 C 4.894531 -31.050781 5.113281 -31.140625 5.375 -31.140625 C 5.644531 -31.140625 5.867188 -31.050781 6.046875 -30.875 C 6.222656 -30.695312 6.3125 -30.472656 6.3125 -30.203125 Z M 6.3125 -0.9375 "/></g></g></g><g fill="#000000" fill-opacity="1"><g transform="translate(229.288327, 239.157733)"><g><path d="M 31.9375 -15.5625 C 31.9375 -12.457031 31.304688 -9.6875 30.046875 -7.25 C 28.785156 -4.820312 27.023438 -2.929688 24.765625 -1.578125 C 22.515625 -0.234375 19.953125 0.4375 17.078125 0.4375 C 14.203125 0.4375 11.632812 -0.234375 9.375 -1.578125 C 7.125 -2.929688 5.367188 -4.820312 4.109375 -7.25 C 2.847656 -9.6875 2.21875 -12.457031 2.21875 -15.5625 C 2.21875 -18.675781 2.847656 -21.445312 4.109375 -23.875 C 5.367188 -26.3125 7.125 -28.203125 9.375 -29.546875 C 11.632812 -30.898438 14.203125 -31.578125 17.078125 -31.578125 C 19.953125 -31.578125 22.515625 -30.898438 24.765625 -29.546875 C 27.023438 -28.203125 28.785156 -26.3125 30.046875 -23.875 C 31.304688 -21.445312 31.9375 -18.675781 31.9375 -15.5625 Z M 30.078125 -15.5625 C 30.078125 -18.351562 29.523438 -20.832031 28.421875 -23 C 27.328125 -25.164062 25.789062 -26.835938 23.8125 -28.015625 C 21.84375 -29.203125 19.597656 -29.796875 17.078125 -29.796875 C 14.554688 -29.796875 12.3125 -29.203125 10.34375 -28.015625 C 8.375 -26.835938 6.835938 -25.164062 5.734375 -23 C 4.640625 -20.832031 4.09375 -18.351562 4.09375 -15.5625 C 4.09375 -12.78125 4.640625 -10.304688 5.734375 -8.140625 C 6.835938 -5.972656 8.375 -4.296875 10.34375 -3.109375 C 12.3125 -1.921875 14.554688 -1.328125 17.078125 -1.328125 C 19.597656 -1.328125 21.84375 -1.921875 23.8125 -3.109375 C 25.789062 -4.296875 27.328125 -5.972656 28.421875 -8.140625 C 29.523438 -10.304688 30.078125 -12.78125 30.078125 -15.5625 Z M 30.078125 -15.5625 "/></g></g></g><g fill="#000000" fill-opacity="1"><g transform="translate(265.896016, 239.157733)"><g><path d="M 26.609375 -1.734375 C 26.929688 -1.523438 27.09375 -1.257812 27.09375 -0.9375 C 27.09375 -0.664062 27.007812 -0.445312 26.84375 -0.28125 C 26.6875 -0.125 26.488281 -0.046875 26.25 -0.046875 C 26.070312 -0.046875 25.9375 -0.078125 25.84375 -0.140625 C 25.039062 -0.578125 24.398438 -1.320312 23.921875 -2.375 C 23.453125 -3.425781 23.21875 -5.15625 23.21875 -7.5625 C 23.21875 -9.988281 22.566406 -11.65625 21.265625 -12.5625 C 19.960938 -13.46875 18.445312 -13.921875 16.71875 -13.921875 L 6.3125 -13.921875 L 6.3125 -0.890625 C 6.3125 -0.648438 6.222656 -0.441406 6.046875 -0.265625 C 5.867188 -0.0859375 5.644531 0 5.375 0 C 5.113281 0 4.894531 -0.0859375 4.71875 -0.265625 C 4.539062 -0.441406 4.453125 -0.648438 4.453125 -0.890625 L 4.453125 -30.25 C 4.453125 -30.488281 4.539062 -30.695312 4.71875 -30.875 C 4.894531 -31.050781 5.101562 -31.140625 5.34375 -31.140625 L 17.078125 -31.140625 C 18.796875 -31.140625 20.320312 -30.789062 21.65625 -30.09375 C 23 -29.394531 24.039062 -28.4375 24.78125 -27.21875 C 25.519531 -26.007812 25.890625 -24.632812 25.890625 -23.09375 C 25.890625 -21.101562 25.363281 -19.394531 24.3125 -17.96875 C 23.257812 -16.550781 21.890625 -15.585938 20.203125 -15.078125 C 21.617188 -14.628906 22.785156 -13.742188 23.703125 -12.421875 C 24.628906 -11.109375 25.09375 -9.488281 25.09375 -7.5625 C 25.09375 -5.570312 25.21875 -4.179688 25.46875 -3.390625 C 25.71875 -2.609375 26.097656 -2.054688 26.609375 -1.734375 Z M 17.296875 -15.703125 C 19.171875 -15.878906 20.757812 -16.617188 22.0625 -17.921875 C 23.363281 -19.234375 24.015625 -20.941406 24.015625 -23.046875 C 24.015625 -24.878906 23.363281 -26.390625 22.0625 -27.578125 C 20.757812 -28.765625 19.023438 -29.359375 16.859375 -29.359375 L 6.3125 -29.359375 L 6.3125 -15.703125 Z M 17.296875 -15.703125 "/></g></g></g><g fill="#000000" fill-opacity="1"><g transform="translate(82.578625, 257.580053)"><g><path d="M 0.53125 -4.5 C 0.53125 -5.03125 0.625 -5.5625 0.8125 -6.09375 C 1 -6.625 1.269531 -7.097656 1.625 -7.515625 C 1.976562 -7.929688 2.414062 -8.269531 2.9375 -8.53125 C 3.46875 -8.789062 4.066406 -8.921875 4.734375 -8.921875 C 5.523438 -8.921875 6.203125 -8.738281 6.765625 -8.375 C 7.328125 -8.019531 7.742188 -7.554688 8.015625 -6.984375 L 7.328125 -6.5625 C 7.179688 -6.851562 7.003906 -7.097656 6.796875 -7.296875 C 6.597656 -7.492188 6.378906 -7.65625 6.140625 -7.78125 C 5.910156 -7.90625 5.671875 -7.992188 5.421875 -8.046875 C 5.171875 -8.109375 4.925781 -8.140625 4.6875 -8.140625 C 4.15625 -8.140625 3.679688 -8.03125 3.265625 -7.8125 C 2.859375 -7.59375 2.515625 -7.304688 2.234375 -6.953125 C 1.960938 -6.609375 1.753906 -6.21875 1.609375 -5.78125 C 1.472656 -5.34375 1.40625 -4.898438 1.40625 -4.453125 C 1.40625 -3.960938 1.488281 -3.488281 1.65625 -3.03125 C 1.820312 -2.582031 2.050781 -2.1875 2.34375 -1.84375 C 2.644531 -1.5 3 -1.222656 3.40625 -1.015625 C 3.8125 -0.816406 4.25 -0.71875 4.71875 -0.71875 C 4.96875 -0.71875 5.222656 -0.75 5.484375 -0.8125 C 5.753906 -0.875 6.007812 -0.972656 6.25 -1.109375 C 6.5 -1.242188 6.726562 -1.410156 6.9375 -1.609375 C 7.144531 -1.816406 7.320312 -2.066406 7.46875 -2.359375 L 8.1875 -1.984375 C 8.039062 -1.648438 7.835938 -1.351562 7.578125 -1.09375 C 7.328125 -0.84375 7.039062 -0.628906 6.71875 -0.453125 C 6.40625 -0.285156 6.070312 -0.15625 5.71875 -0.0625 C 5.363281 0.03125 5.015625 0.078125 4.671875 0.078125 C 4.066406 0.078125 3.507812 -0.0507812 3 -0.3125 C 2.488281 -0.582031 2.050781 -0.929688 1.6875 -1.359375 C 1.320312 -1.796875 1.035156 -2.285156 0.828125 -2.828125 C 0.628906 -3.378906 0.53125 -3.9375 0.53125 -4.5 Z M 0.53125 -4.5 "/></g></g></g><g fill="#000000" fill-opacity="1"><g transform="translate(95.637901, 257.580053)"><g><path d="M 7.40625 -8.09375 L 4.25 -8.09375 L 4.25 0 L 3.375 0 L 3.375 -8.09375 L 0.21875 -8.09375 L 0.21875 -8.875 L 7.40625 -8.875 Z M 7.40625 -8.09375 "/></g></g></g><g fill="#000000" fill-opacity="1"><g transform="translate(107.735221, 257.580053)"><g><path d="M 2 -1.3125 L 7.5 -8.875 L 8.21875 -8.875 L 8.21875 0 L 7.34375 0 L 7.34375 -7.4375 L 1.9375 0 L 1.140625 0 L 1.140625 -8.875 L 2 -8.875 Z M 2 -1.3125 "/></g></g></g><g fill="#000000" fill-opacity="1"><g transform="translate(121.569051, 257.580053)"><g><path d="M 3.140625 -6.53125 C 3.035156 -5.351562 2.90625 -4.347656 2.75 -3.515625 C 2.601562 -2.679688 2.414062 -2 2.1875 -1.46875 C 1.957031 -0.9375 1.679688 -0.546875 1.359375 -0.296875 C 1.035156 -0.0546875 0.65625 0.0625 0.21875 0.0625 L 0.078125 -0.78125 C 0.242188 -0.78125 0.398438 -0.8125 0.546875 -0.875 C 0.703125 -0.9375 0.851562 -1.039062 1 -1.1875 C 1.144531 -1.34375 1.28125 -1.554688 1.40625 -1.828125 C 1.53125 -2.097656 1.644531 -2.445312 1.75 -2.875 C 1.851562 -3.3125 1.945312 -3.832031 2.03125 -4.4375 C 2.125 -5.039062 2.207031 -5.757812 2.28125 -6.59375 L 2.46875 -8.875 L 6.96875 -8.875 L 6.96875 0 L 6.109375 0 L 6.109375 -8.09375 L 3.265625 -8.09375 Z M 3.140625 -6.53125 "/></g></g></g><g fill="#000000" fill-opacity="1"><g transform="translate(134.178586, 257.580053)"><g><path d="M 1.140625 -8.875 L 2 -8.875 L 2 -5.484375 L 4.09375 -5.484375 C 4.53125 -5.484375 4.925781 -5.421875 5.28125 -5.296875 C 5.632812 -5.179688 5.9375 -5.003906 6.1875 -4.765625 C 6.445312 -4.535156 6.644531 -4.25 6.78125 -3.90625 C 6.925781 -3.570312 7 -3.1875 7 -2.75 C 7 -2.320312 6.925781 -1.9375 6.78125 -1.59375 C 6.632812 -1.257812 6.429688 -0.972656 6.171875 -0.734375 C 5.921875 -0.492188 5.617188 -0.3125 5.265625 -0.1875 C 4.910156 -0.0625 4.519531 0 4.09375 0 L 1.140625 0 Z M 2 -0.765625 L 4.09375 -0.765625 C 4.445312 -0.765625 4.75 -0.8125 5 -0.90625 C 5.257812 -1.007812 5.472656 -1.148438 5.640625 -1.328125 C 5.804688 -1.503906 5.925781 -1.710938 6 -1.953125 C 6.082031 -2.203125 6.125 -2.46875 6.125 -2.75 C 6.125 -3.03125 6.082031 -3.289062 6 -3.53125 C 5.925781 -3.78125 5.804688 -3.988281 5.640625 -4.15625 C 5.472656 -4.332031 5.257812 -4.46875 5 -4.5625 C 4.75 -4.664062 4.445312 -4.71875 4.09375 -4.71875 L 2 -4.71875 Z M 2 -0.765625 "/></g></g></g><g fill="#000000" fill-opacity="1"><g transform="translate(146.026053, 257.580053)"><g><path d="M 8.125 -8.875 L 8.125 0 L 7.265625 0 L 7.265625 -4.15625 L 2 -4.15625 L 2 0 L 1.125 0 L 1.125 -8.875 L 2 -8.875 L 2 -4.921875 L 7.265625 -4.921875 L 7.265625 -8.875 Z M 8.125 -8.875 "/></g></g></g><g fill="#000000" fill-opacity="1"><g transform="translate(159.772429, 257.580053)"><g><path d="M 1.140625 -8.875 L 2 -8.875 L 2 -5.484375 L 4.09375 -5.484375 C 4.53125 -5.484375 4.925781 -5.421875 5.28125 -5.296875 C 5.632812 -5.179688 5.9375 -5.003906 6.1875 -4.765625 C 6.445312 -4.535156 6.644531 -4.25 6.78125 -3.90625 C 6.925781 -3.570312 7 -3.1875 7 -2.75 C 7 -2.320312 6.925781 -1.9375 6.78125 -1.59375 C 6.632812 -1.257812 6.429688 -0.972656 6.171875 -0.734375 C 5.921875 -0.492188 5.617188 -0.3125 5.265625 -0.1875 C 4.910156 -0.0625 4.519531 0 4.09375 0 L 1.140625 0 Z M 2 -0.765625 L 4.09375 -0.765625 C 4.445312 -0.765625 4.75 -0.8125 5 -0.90625 C 5.257812 -1.007812 5.472656 -1.148438 5.640625 -1.328125 C 5.804688 -1.503906 5.925781 -1.710938 6 -1.953125 C 6.082031 -2.203125 6.125 -2.46875 6.125 -2.75 C 6.125 -3.03125 6.082031 -3.289062 6 -3.53125 C 5.925781 -3.78125 5.804688 -3.988281 5.640625 -4.15625 C 5.472656 -4.332031 5.257812 -4.46875 5 -4.5625 C 4.75 -4.664062 4.445312 -4.71875 4.09375 -4.71875 L 2 -4.71875 Z M 8.21875 0 L 8.21875 -8.859375 L 9.09375 -8.859375 L 9.09375 0 Z M 8.21875 0 "/></g></g></g><g fill="#000000" fill-opacity="1"><g transform="translate(174.493251, 257.580053)"><g><path d="M 6.625 -11.453125 C 6.601562 -11.046875 6.429688 -10.722656 6.109375 -10.484375 C 5.796875 -10.253906 5.351562 -10.140625 4.78125 -10.140625 C 4.21875 -10.140625 3.773438 -10.253906 3.453125 -10.484375 C 3.128906 -10.722656 2.960938 -11.046875 2.953125 -11.453125 L 3.484375 -11.453125 C 3.484375 -11.335938 3.515625 -11.226562 3.578125 -11.125 C 3.648438 -11.03125 3.742188 -10.945312 3.859375 -10.875 C 3.972656 -10.800781 4.109375 -10.738281 4.265625 -10.6875 C 4.429688 -10.644531 4.609375 -10.625 4.796875 -10.625 C 5.160156 -10.625 5.457031 -10.703125 5.6875 -10.859375 C 5.925781 -11.015625 6.0625 -11.210938 6.09375 -11.453125 Z M 2 -1.3125 L 7.5 -8.875 L 8.21875 -8.875 L 8.21875 0 L 7.34375 0 L 7.34375 -7.4375 L 1.9375 0 L 1.140625 0 L 1.140625 -8.875 L 2 -8.875 Z M 2 -1.3125 "/></g></g></g><g fill="#000000" fill-opacity="1"><g transform="translate(188.327079, 257.580053)"><g/></g></g><g fill="#000000" fill-opacity="1"><g transform="translate(196.00194, 257.580053)"><g><path d="M 2 -1.3125 L 7.5 -8.875 L 8.21875 -8.875 L 8.21875 0 L 7.34375 0 L 7.34375 -7.4375 L 1.9375 0 L 1.140625 0 L 1.140625 -8.875 L 2 -8.875 Z M 2 -1.3125 "/></g></g></g><g fill="#000000" fill-opacity="1"><g transform="translate(209.835769, 257.580053)"><g><path d="M 8.125 -8.875 L 8.125 0 L 7.265625 0 L 7.265625 -4.15625 L 2 -4.15625 L 2 0 L 1.125 0 L 1.125 -8.875 L 2 -8.875 L 2 -4.921875 L 7.265625 -4.921875 L 7.265625 -8.875 Z M 8.125 -8.875 "/></g></g></g><g fill="#000000" fill-opacity="1"><g transform="translate(223.582139, 257.580053)"><g><path d="M 7.40625 -8.09375 L 4.25 -8.09375 L 4.25 0 L 3.375 0 L 3.375 -8.09375 L 0.21875 -8.09375 L 0.21875 -8.875 L 7.40625 -8.875 Z M 7.40625 -8.09375 "/></g></g></g><g fill="#000000" fill-opacity="1"><g transform="translate(235.679454, 257.580053)"><g><path d="M 7.09375 -0.78125 L 7.09375 0 L 1.125 0 L 1.125 -8.875 L 6.96875 -8.875 L 6.96875 -8.09375 L 2 -8.09375 L 2 -4.90625 L 6.34375 -4.90625 L 6.34375 -4.15625 L 2 -4.15625 L 2 -0.78125 Z M 7.09375 -0.78125 "/></g></g></g><g fill="#000000" fill-opacity="1"><g transform="translate(247.77677, 257.580053)"><g><path d="M 1.125 0 L 1.125 -8.875 L 4.796875 -8.875 C 5.179688 -8.875 5.535156 -8.789062 5.859375 -8.625 C 6.179688 -8.46875 6.457031 -8.253906 6.6875 -7.984375 C 6.914062 -7.722656 7.097656 -7.425781 7.234375 -7.09375 C 7.367188 -6.757812 7.4375 -6.425781 7.4375 -6.09375 C 7.4375 -5.71875 7.375 -5.363281 7.25 -5.03125 C 7.125 -4.695312 6.945312 -4.398438 6.71875 -4.140625 C 6.5 -3.878906 6.234375 -3.671875 5.921875 -3.515625 C 5.609375 -3.359375 5.257812 -3.28125 4.875 -3.28125 L 2 -3.28125 L 2 0 Z M 2 -4.046875 L 4.84375 -4.046875 C 5.09375 -4.046875 5.320312 -4.101562 5.53125 -4.21875 C 5.75 -4.332031 5.929688 -4.484375 6.078125 -4.671875 C 6.234375 -4.859375 6.351562 -5.070312 6.4375 -5.3125 C 6.519531 -5.5625 6.5625 -5.820312 6.5625 -6.09375 C 6.5625 -6.363281 6.515625 -6.617188 6.421875 -6.859375 C 6.328125 -7.109375 6.195312 -7.320312 6.03125 -7.5 C 5.863281 -7.6875 5.671875 -7.832031 5.453125 -7.9375 C 5.234375 -8.039062 5.003906 -8.09375 4.765625 -8.09375 L 2 -8.09375 Z M 2 -4.046875 "/></g></g></g><g fill="#000000" fill-opacity="1"><g transform="translate(260.048989, 257.580053)"><g><path d="M 1.140625 -8.875 L 2 -8.875 L 2 -5.484375 L 4.09375 -5.484375 C 4.53125 -5.484375 4.925781 -5.421875 5.28125 -5.296875 C 5.632812 -5.179688 5.9375 -5.003906 6.1875 -4.765625 C 6.445312 -4.535156 6.644531 -4.25 6.78125 -3.90625 C 6.925781 -3.570312 7 -3.1875 7 -2.75 C 7 -2.320312 6.925781 -1.9375 6.78125 -1.59375 C 6.632812 -1.257812 6.429688 -0.972656 6.171875 -0.734375 C 5.921875 -0.492188 5.617188 -0.3125 5.265625 -0.1875 C 4.910156 -0.0625 4.519531 0 4.09375 0 L 1.140625 0 Z M 2 -0.765625 L 4.09375 -0.765625 C 4.445312 -0.765625 4.75 -0.8125 5 -0.90625 C 5.257812 -1.007812 5.472656 -1.148438 5.640625 -1.328125 C 5.804688 -1.503906 5.925781 -1.710938 6 -1.953125 C 6.082031 -2.203125 6.125 -2.46875 6.125 -2.75 C 6.125 -3.03125 6.082031 -3.289062 6 -3.53125 C 5.925781 -3.78125 5.804688 -3.988281 5.640625 -4.15625 C 5.472656 -4.332031 5.257812 -4.46875 5 -4.5625 C 4.75 -4.664062 4.445312 -4.71875 4.09375 -4.71875 L 2 -4.71875 Z M 2 -0.765625 "/></g></g></g><g fill="#000000" fill-opacity="1"><g transform="translate(271.896451, 257.580053)"><g><path d="M 7.09375 -0.78125 L 7.09375 0 L 1.125 0 L 1.125 -8.875 L 6.96875 -8.875 L 6.96875 -8.09375 L 2 -8.09375 L 2 -4.90625 L 6.34375 -4.90625 L 6.34375 -4.15625 L 2 -4.15625 L 2 -0.78125 Z M 7.09375 -0.78125 "/></g></g></g><g fill="#000000" fill-opacity="1"><g transform="translate(283.993777, 257.580053)"><g><path d="M 1.125 0 L 1.125 -8.875 L 4.796875 -8.875 C 5.179688 -8.875 5.535156 -8.789062 5.859375 -8.625 C 6.179688 -8.46875 6.457031 -8.253906 6.6875 -7.984375 C 6.914062 -7.722656 7.097656 -7.425781 7.234375 -7.09375 C 7.367188 -6.757812 7.4375 -6.425781 7.4375 -6.09375 C 7.4375 -5.71875 7.375 -5.363281 7.25 -5.03125 C 7.125 -4.695312 6.945312 -4.398438 6.71875 -4.140625 C 6.5 -3.878906 6.234375 -3.671875 5.921875 -3.515625 C 5.609375 -3.359375 5.257812 -3.28125 4.875 -3.28125 L 2 -3.28125 L 2 0 Z M 2 -4.046875 L 4.84375 -4.046875 C 5.09375 -4.046875 5.320312 -4.101562 5.53125 -4.21875 C 5.75 -4.332031 5.929688 -4.484375 6.078125 -4.671875 C 6.234375 -4.859375 6.351562 -5.070312 6.4375 -5.3125 C 6.519531 -5.5625 6.5625 -5.820312 6.5625 -6.09375 C 6.5625 -6.363281 6.515625 -6.617188 6.421875 -6.859375 C 6.328125 -7.109375 6.195312 -7.320312 6.03125 -7.5 C 5.863281 -7.6875 5.671875 -7.832031 5.453125 -7.9375 C 5.234375 -8.039062 5.003906 -8.09375 4.765625 -8.09375 L 2 -8.09375 Z M 2 -4.046875 "/></g></g></g><g clip-path="url(#b283057904)"><path stroke-linecap="round" transform="matrix(0.0145462, 0, 0, -0.0145016, 69.527059, 197.524792)" fill="none" stroke-linejoin="round" d="M 24.456758 51.811753 C 1022.353512 53.697318 2020.250265 55.582883 2561.628052 46.963156 C 3103.005838 38.612796 3187.864658 19.757143 3217.404121 146.628748 C 3246.943583 273.500353 3221.432229 546.368581 3216.598499 729.537777 C 3211.496228 912.706973 3227.608662 1006.446502 3197.532118 1057.62613 C 3167.724115 1108.805759 3091.727134 1117.964218 3050.908968 1102.071597 C 3010.359342 1085.909609 3004.988531 1044.69654 3011.702045 929.946426 C 3018.415559 815.465679 3036.944858 627.447887 3045.538157 465.019909 C 3054.399995 302.861297 3053.057292 166.023134 3073.734916 94.371654 C 3094.144 22.720175 3136.84195 15.986013 3166.112872 31.609268 C 3195.652334 47.501889 3211.496228 85.482561 3221.432229 242.523209 C 3231.636771 399.563858 3235.664879 675.395118 3241.572772 838.092462 C 3247.480664 1000.789806 3255.536881 1050.083869 3309.513536 1074.057485 C 3363.758731 1098.0311 3463.924363 1096.414901 3516.826855 1096.145535 C 3569.729347 1095.876168 3575.637239 1096.414901 3576.17432 1036.615546 C 3576.711402 976.816191 3572.146212 856.140015 3568.386644 737.080038 C 3564.627076 618.020061 3562.210211 500.845649 3540.189884 440.238194 C 3518.169558 379.63074 3476.81431 375.590243 3448.886091 378.82264 C 3420.689331 382.055038 3406.18814 392.829696 3391.418409 475.525201 C 3376.917218 558.220706 3362.147487 712.837056 3349.25754 821.391741 C 3336.367593 930.215793 3325.088889 993.247545 3331.802403 1033.383149 C 3338.515917 1073.249385 3362.953109 1090.219473 3433.847819 1092.105038 C 3504.742529 1093.990603 3622.094758 1080.52228 3681.979305 1143.284666 C 3742.132392 1205.777686 3744.817798 1344.501415 3734.076175 1704.375011 C 3723.334552 2064.248607 3699.434441 2645.272071 3632.83638 3087.841172 C 3565.969779 3530.140906 3456.673767 3833.986278 3306.291049 4036.819225 C 3155.63979 4239.382806 2963.633283 4340.664597 2829.094458 4297.835329 C 2694.287093 4255.275428 2617.215949 4068.604468 2605.131624 3519.635614 C 2593.047298 2970.397393 2646.486871 2058.861278 2660.988062 1593.665394 C 2675.757793 1128.46951 2651.857683 1109.883224 3098.172108 1101.80223 C 3544.755074 1093.990603 4461.821116 1096.414901 5322.76218 1096.414901 C 6183.703243 1096.414901 6988.787868 1093.990603 7407.174074 1104.495895 C 7825.828821 1115.270554 7857.785149 1139.244169 7873.629042 1269.886904 C 7889.741476 1400.529639 7889.741476 1637.572128 7888.398774 1881.618145 C 7887.056071 2125.394795 7884.370665 2375.905606 7826.902983 2513.282503 C 7769.703842 2650.6594 7657.722425 2674.633015 7347.289527 2685.138307 C 7036.588089 2695.912966 6527.703712 2693.219301 6043.793607 2683.791475 C 5559.883502 2674.633015 5101.484751 2658.471028 4834.823966 2650.6594 C 4568.431722 2642.578406 4493.777444 2642.578406 4476.322307 2721.233414 C 4459.135711 2799.888421 4499.148255 2957.198436 4500.490958 3178.348304 C 4501.833661 3399.498171 4464.506522 3684.757256 4408.381543 3940.655397 C 4352.525105 4196.553539 4277.870827 4423.090735 4263.101095 4557.773967 C 4248.599905 4692.457199 4293.71472 4735.017101 4394.954515 4735.017101 C 4496.46285 4735.017101 4653.559082 4692.457199 4893.634351 4684.376205 C 5133.441079 4676.564578 5455.958302 4703.231858 5747.8619 4730.976604 C 6039.765498 4758.990716 6301.055472 4788.351661 6438.279702 4741.751262 C 6575.503933 4695.150864 6588.930961 4572.589123 6562.076904 4432.518561 C 6535.491388 4292.717366 6468.893327 4135.407351 6487.691167 3880.856042 C 6506.220466 3626.304734 6610.145666 3274.242765 6686.142647 3063.867556 C 6762.139628 2853.222981 6810.20839 2783.9958 6735.554112 2749.247526 C 6660.899834 2714.499252 6463.522516 2714.499252 6271.78455 2739.8197 C 6079.778043 2765.140147 5893.142348 2815.781043 5739.805683 2839.754658 C 5586.737559 2863.728273 5466.699924 2861.034609 5318.734071 2837.060993 C 5170.768218 2813.087378 4994.874145 2767.833812 4824.350884 2730.66124 C 4653.559082 2693.219301 4488.406632 2663.858357 4345.81159 2646.618903 C 4203.216548 2629.379449 4083.178914 2623.99212 3995.366148 2597.32484 C 3907.284842 2570.65756 3851.159863 2522.71033 3848.742998 2513.282503 C 3846.057592 2504.124043 3896.543219 2533.215622 3941.926575 2597.32484 C 3987.309931 2661.164692 4027.322476 2760.022185 4020.608962 2934.571653 C 4013.895448 3109.121122 3960.724415 3359.631934 3883.384731 3614.183243 C 3806.045047 3868.734552 3704.805253 4127.326357 3597.926106 4287.330037 C 3491.315501 4447.333717 3379.602624 4508.479904 3296.892129 4523.29506 C 3214.181634 4537.840849 3161.010601 4505.78624 3062.187672 4457.839009 C 2963.633283 4409.891778 2819.695538 4346.051926 2817.010133 4344.705094 C 2814.324727 4343.358262 2952.89166 4404.504449 3060.844969 4445.986884 C 3168.798278 4487.199953 3246.137961 4508.479904 3428.745548 4508.479904 C 3611.353135 4508.479904 3899.228625 4487.199953 4529.76188 4475.078463 C 5160.026595 4463.226338 6132.949076 4460.532674 7196.638268 4477.772127 C 8260.327461 4495.280947 9414.514826 4532.453519 10132.860847 4537.840849 C 10851.206869 4543.228178 11133.711547 4516.560898 11297.789834 4549.96234 C 11461.599581 4583.094415 11506.982938 4676.564578 11494.898612 4735.017101 C 11482.814286 4793.73899 11413.53082 4817.712605 11243.54464 4814.749574 C 11073.289919 4812.055909 10802.332485 4782.156232 10517.142401 4782.156232 C 10231.952317 4782.156232 9932.529583 4812.055909 9705.344262 4838.723189 C 9478.427481 4865.659836 9323.748114 4889.633451 9246.40843 4852.460879 C 9169.068746 4815.018941 9169.068746 4716.430815 9173.096854 4553.73347 C 9177.124963 4391.305492 9185.18118 4164.768296 9186.523883 3958.164218 C 9187.866586 3751.56014 9182.495774 3564.88918 9165.040637 3395.72704 C 9147.854041 3226.295534 9118.583119 3074.372848 9090.6549 2950.464275 C 9062.45814 2826.555701 9035.872624 2730.66124 9095.757171 2693.219301 C 9155.910258 2656.046729 9302.533409 2677.32668 9467.685858 2697.259798 C 9633.106849 2717.192917 9816.788598 2735.779203 10003.424293 2745.207029 C 10190.059988 2754.634855 10379.381089 2754.634855 10549.90435 2757.32852 C 10720.696152 2760.022185 10872.421574 2765.140147 10992.459208 2753.288023 C 11112.496842 2741.166532 11200.309608 2711.805587 11255.091884 2723.927078 C 11309.605619 2735.779203 11331.088865 2789.113763 11317.661837 2911.94487 C 11304.234808 3034.506612 11256.166046 3226.295534 11259.388533 3392.764009 C 11262.61102 3559.232484 11316.856215 3699.841778 11340.756325 3855.804961 C 11364.924977 4011.768144 11358.480003 4182.815849 11375.93514 4317.768447 C 11393.390277 4452.721046 11434.476984 4551.847905 11477.174934 4586.596179 C 11519.872885 4621.075086 11564.182079 4591.444775 11639.373438 4564.777495 C 11714.833338 4537.840849 11821.443944 4513.867233 11946.583849 4501.745743 C 12071.992294 4489.893618 12215.930039 4489.893618 12237.413285 4448.411183 C 12258.627989 4407.198114 12157.388195 4324.502609 12061.519212 4168.539426 C 11965.381688 4012.576243 11874.883517 3783.614749 11828.157458 3546.302894 C 11781.431399 3308.991039 11778.745993 3063.867556 11770.689776 2907.904373 C 11762.9021 2751.941191 11749.475071 2685.138307 11597.481109 2659.81786 C 11445.487147 2634.497412 11155.194792 2650.6594 10908.40601 2705.340792 C 10661.885768 2760.022185 10459.406179 2853.222981 10198.116205 2873.1561 C 9936.826232 2893.089218 9616.994415 2839.754658 9367.788767 2795.847924 C 9118.583119 2751.941191 8940.003641 2717.192917 8765.452271 2691.872469 C 8590.632361 2666.552021 8420.1091 2650.6594 8284.227572 2641.231574 C 8148.346044 2632.073114 8046.837709 2629.379449 7990.981271 2574.698057 C 7935.124832 2520.016665 7924.38321 2413.347545 7921.697804 2228.023418 C 7919.012398 2042.69929 7924.38321 1778.989522 7917.669696 1579.119605 C 7910.956181 1378.980322 7892.426882 1243.219624 7990.981271 1176.416741 C 8089.53566 1109.883224 8305.442277 1112.576889 8931.947424 1117.964218 C 9558.452571 1123.082181 10595.287707 1131.163175 11193.596094 1129.816343 C 11792.173022 1128.46951 11952.223201 1117.964218 12029.294344 1292.513687 C 12106.634028 1467.063156 12101.263216 1826.936752 12086.762025 2069.36657 C 12071.992294 2312.065754 12048.092184 2437.32116 12009.422342 2514.629336 C 11970.7525 2591.937511 11917.312927 2621.298455 11861.456488 2645.272071 C 11805.60005 2669.245686 11746.789665 2687.831972 11768.00437 2671.939351 C 11789.487616 2656.046729 11890.72741 2605.405834 11955.982768 2562.576566 C 12021.506667 2520.016665 12050.777589 2485.268391 12081.391214 2600.018505 C 12112.004839 2714.499252 12143.961167 2978.478387 12204.114254 3239.763857 C 12263.998801 3501.049328 12351.811567 3759.371767 12443.920982 3946.042727 C 12535.761856 4132.713686 12631.89938 4247.194434 12746.297662 4305.916323 C 12860.964485 4364.638212 12994.429148 4367.331877 13023.70007 4392.652325 C 13052.970992 4417.972772 12978.316714 4465.920003 12788.189991 4487.199953 C 12597.794728 4508.749271 12292.195561 4503.631308 12293.269723 4482.351357 C 12294.612426 4460.80204 12603.165539 4423.360101 12814.775507 4393.999157 C 13026.385476 4364.638212 13140.783758 4343.358262 13183.481708 4221.873986 C 13226.179659 4100.659077 13196.908737 3879.50921 13176.768194 3337.005151 C 13156.896192 2794.501092 13146.42311 1930.912208 13138.366893 1513.663554 C 13130.310676 1096.414901 13124.939864 1125.775846 13047.60018 1131.163175 C 12970.260497 1136.550504 12821.220481 1117.964218 12721.054849 1113.923721 C 12621.157757 1109.883224 12570.40359 1120.657883 12496.554933 1124.429013 C 12422.437736 1128.46951 12325.226051 1125.775846 12238.218906 1124.429013 C 12151.211762 1123.082181 12074.6777 1123.082181 12075.483322 1125.506479 C 12076.557484 1127.930778 12155.23987 1132.510007 12195.520956 1080.52228 C 12235.802041 1028.534552 12237.950366 919.979867 12238.487447 801.997356 C 12239.293069 684.014844 12238.487447 556.873873 12261.850476 490.340357 C 12285.213506 424.076206 12332.476646 418.688877 12360.941946 469.599139 C 12389.138706 520.240034 12398.537626 626.639787 12406.862383 748.393429 C 12415.187141 869.877705 12422.437736 1006.715869 12416.798384 1070.286354 C 12411.159033 1133.85684 12392.361193 1124.429013 12406.593843 1118.233585 C 12420.557952 1111.76879 12467.015471 1108.536392 12498.703258 1106.650827 C 12530.391045 1104.495895 12547.04056 1103.957162 12553.216993 951.226377 C 12559.124886 798.764958 12554.291156 494.111487 12553.485534 320.100751 C 12552.411372 146.359382 12555.096777 102.991381 12583.293537 80.903331 C 12611.758837 59.084647 12665.735492 58.276548 12691.783927 62.047678 C 12717.832362 65.549442 12715.684037 73.630436 12729.379607 234.442216 C 12743.075176 395.523361 12772.346098 709.335292 12783.08772 883.615394 C 12793.560802 1057.895497 12785.504585 1092.643771 12772.346098 1067.59269 C 12758.919069 1042.541608 12740.38977 957.960539 12718.369443 779.639939 C 12696.349117 601.31934 12671.106303 329.528577 12659.827599 191.343581 C 12648.280355 52.889219 12650.96576 48.309989 13260.01577 50.195554 C 13869.06578 52.350486 15084.480394 60.970213 16299.895009 69.589939 " stroke="#000000" stroke-width="44.511002" stroke-opacity="1" stroke-miterlimit="22.926001"/></g></svg>