<svg xmlns="http://www.w3.org/2000/svg" xmlns:xlink="http://www.w3.org/1999/xlink" width="500" zoomAndPan="magnify" viewBox="0 0 375 374.999991" height="500" preserveAspectRatio="xMidYMid meet" version="1.0"><defs><g/><clipPath id="1f7d93ac7b"><path d="M 224 130 L 278 130 L 278 209 L 224 209 Z M 224 130 " clip-rule="nonzero"/></clipPath><clipPath id="e031b5bbd5"><path d="M 224.429688 210.015625 L 221.363281 130.574219 L 280.566406 128.285156 L 283.636719 207.726562 Z M 224.429688 210.015625 " clip-rule="nonzero"/></clipPath><clipPath id="8efa25af39"><path d="M 224.429688 210.015625 L 221.363281 130.574219 L 280.566406 128.285156 L 283.636719 207.726562 Z M 224.429688 210.015625 " clip-rule="nonzero"/></clipPath><clipPath id="1f2a8f6ffc"><path d="M 112 124 L 263 124 L 263 209.65625 L 112 209.65625 Z M 112 124 " clip-rule="nonzero"/></clipPath></defs><g clip-path="url(#1f7d93ac7b)"><g clip-path="url(#e031b5bbd5)"><g clip-path="url(#8efa25af39)"><path fill="#8cccc1" d="M 231.058594 167.199219 C 231.140625 182.070312 229.246094 191.019531 229.035156 191.285156 C 227.441406 198.191406 224.160156 203.058594 225.066406 206.066406 C 225.714844 208.21875 227.460938 209.886719 232.675781 208.285156 C 246.210938 204.140625 248.890625 199.917969 254.605469 192.570312 C 265.238281 178.898438 281.675781 156.992188 276.273438 140.507812 C 272.902344 130.199219 252.613281 129.371094 241.917969 130.824219 C 225.320312 133.085938 230.910156 139.847656 231.058594 167.199219 Z M 231.058594 167.199219 " fill-opacity="1" fill-rule="nonzero"/></g></g></g><path fill="#8cccc1" d="M 114.457031 186.25 C 117.472656 198.980469 127.402344 202.089844 143.652344 205.386719 C 171.703125 211.070312 217.738281 214.820312 225.59375 187.371094 C 228.167969 178.378906 230.011719 148.484375 217.789062 138.105469 C 209.324219 130.914062 188.644531 125.308594 183.539062 123.699219 C 141.671875 110.578125 133.460938 111.914062 126.332031 115.933594 C 112.480469 123.746094 111.550781 173.984375 114.457031 186.25 Z M 114.457031 186.25 " fill-opacity="1" fill-rule="nonzero"/><g clip-path="url(#1f2a8f6ffc)"><path fill="#000001" d="M 191.382812 134.332031 C 189.804688 137.53125 189.550781 140.804688 189.539062 142.464844 C 189.515625 146.546875 190.691406 149.042969 191.214844 149.050781 C 191.441406 149.050781 192.308594 148 192.433594 142.832031 C 192.515625 139.53125 192.164062 136.695312 191.382812 134.332031 Z M 193.410156 160.414062 C 193.636719 162.570312 193.628906 165.382812 193.464844 168.132812 C 219.394531 168.054688 241.5625 167.476562 245.351562 166.796875 C 242.035156 163.546875 236.332031 158.472656 233.929688 158.050781 C 230.816406 157.503906 199.367188 156.753906 195.566406 157 C 194.804688 157.050781 194 158.339844 193.410156 160.414062 Z M 192.664062 164.488281 C 192.546875 165.628906 192.488281 166.851562 192.503906 168.132812 C 192.511719 168.132812 192.519531 168.132812 192.53125 168.132812 C 192.605469 166.914062 192.652344 165.675781 192.664062 164.488281 Z M 138.246094 166.550781 C 140.835938 167.566406 161.929688 168.203125 191.609375 168.136719 C 191.578125 165.410156 191.890625 162.585938 192.5 160.359375 C 192.394531 159.355469 192.226562 158.519531 191.996094 157.9375 C 191.828125 157.515625 191.632812 157.265625 191.46875 157.265625 C 190.210938 157.265625 182.917969 157.460938 174.476562 157.6875 C 163.453125 157.984375 150.960938 158.320312 148.136719 158.320312 C 145.511719 158.320312 140.664062 162.757812 138.246094 166.550781 Z M 193 172.949219 C 193.609375 175.800781 194.824219 178.03125 196.875 178.085938 C 202.832031 178.234375 234.210938 178.128906 243.6875 178.09375 C 244.808594 178.089844 245.738281 177.214844 245.808594 176.105469 C 245.976562 173.453125 246.21875 170.339844 246.554688 167.160156 C 246.535156 167.210938 246.507812 167.257812 246.46875 167.300781 C 246.238281 167.574219 245.800781 168.078125 229.113281 168.539062 C 219.394531 168.808594 206.410156 168.984375 193.40625 169.023438 C 193.304688 170.398438 193.167969 171.738281 193 172.949219 Z M 159.484375 190.859375 C 175.445312 191.515625 216.121094 192.917969 241.089844 191.414062 C 240.515625 190.820312 239.855469 190.460938 239.101562 190.402344 C 205.753906 187.8125 173.148438 189.777344 159.484375 190.859375 Z M 239.003906 194.183594 C 238.832031 194.183594 238.671875 194.265625 238.566406 194.40625 C 238.464844 194.546875 238.4375 194.722656 238.496094 194.890625 L 242.414062 206.5 C 242.492188 206.730469 242.722656 206.882812 242.960938 206.867188 L 243.933594 206.800781 C 244.21875 206.78125 244.441406 206.546875 244.4375 206.261719 C 244.402344 201.882812 243.894531 197.292969 242.707031 194.183594 Z M 134.300781 191.195312 C 136.300781 191.984375 138.402344 192.300781 139.621094 192.425781 C 140.011719 192.464844 140.371094 192.664062 140.613281 192.972656 C 140.851562 193.285156 140.953125 193.683594 140.890625 194.074219 L 138.59375 208.140625 C 138.566406 208.296875 138.613281 208.449219 138.714844 208.574219 C 138.820312 208.695312 138.964844 208.761719 139.125 208.761719 L 140.894531 208.761719 C 141.148438 208.761719 141.363281 208.589844 141.421875 208.347656 L 145.292969 191.851562 C 145.332031 191.691406 145.292969 191.527344 145.191406 191.398438 C 145.085938 191.269531 144.933594 191.195312 144.769531 191.195312 Z M 113.292969 190.300781 L 130.929688 190.300781 C 130.082031 189.621094 129.367188 188.789062 128.890625 187.773438 C 126.765625 183.230469 117.453125 155.253906 121.21875 148.921875 C 121.742188 148.039062 122.484375 147.558594 123.433594 147.496094 C 128.136719 147.171875 130.578125 155.847656 132.949219 164.226562 C 134.703125 170.421875 136.515625 176.824219 138.972656 178.136719 C 141.453125 179.460938 152.195312 180.078125 166.351562 179.707031 C 180.449219 179.339844 190.113281 178.230469 190.984375 177.414062 C 191.363281 177.058594 191.757812 175.296875 192.070312 172.949219 C 191.835938 171.789062 191.6875 170.476562 191.628906 169.027344 C 178.105469 169.054688 140.019531 168.96875 137.519531 167.167969 C 137.179688 166.921875 137.171875 166.578125 137.316406 166.34375 C 139.601562 162.621094 144.820312 157.429688 148.136719 157.429688 C 150.949219 157.429688 163.433594 157.09375 174.449219 156.796875 C 182.898438 156.570312 190.199219 156.375 191.46875 156.375 C 192.042969 156.375 192.503906 156.789062 192.832031 157.609375 C 192.9375 157.878906 193.035156 158.199219 193.117188 158.558594 C 193.742188 157.109375 194.546875 156.171875 195.507812 156.109375 C 199.324219 155.863281 230.949219 156.621094 234.085938 157.171875 C 237.457031 157.761719 245.53125 165.707031 246.441406 166.613281 C 246.519531 166.691406 246.570312 166.785156 246.585938 166.886719 C 247.589844 157.640625 249.4375 147.9375 252.785156 147.5 C 253.339844 147.425781 253.589844 147.28125 253.589844 147.164062 C 253.609375 146.039062 247.898438 142.546875 243.75 141.875 C 242.695312 141.707031 241.757812 141.9375 240.882812 142.585938 C 237.761719 144.902344 236.578125 151.761719 236.214844 154.601562 C 236.070312 155.722656 235.070312 156.511719 233.9375 156.40625 C 229.136719 155.945312 215.515625 154.878906 192.757812 154.878906 C 170.304688 154.878906 153.472656 156.023438 148.851562 156.378906 C 147.941406 156.445312 147.136719 155.828125 146.976562 154.9375 C 146.503906 152.324219 144.554688 143.660156 139.320312 141.859375 C 137.988281 141.402344 135.664062 142.082031 133.308594 143.105469 C 130.308594 146.210938 126.507812 146.792969 126.441406 146.800781 C 126.234375 146.832031 126.035156 146.710938 125.960938 146.515625 C 125.886719 146.320312 125.957031 146.101562 126.132812 145.988281 C 126.359375 145.839844 129.515625 143.785156 132.886719 142.3125 C 134.617188 140.410156 136.011719 137.527344 136.011719 133.175781 C 136.011719 130.957031 136.769531 129.125 138.265625 127.730469 C 142.902344 123.402344 153.679688 124.078125 161.546875 124.570312 C 163.679688 124.703125 165.523438 124.816406 166.972656 124.816406 C 168.050781 124.816406 169.3125 124.746094 170.644531 124.667969 C 176.308594 124.339844 184.066406 123.890625 188.867188 128.503906 C 189.949219 129.542969 190.839844 130.804688 191.53125 132.28125 C 191.800781 131.878906 192.089844 131.476562 192.410156 131.085938 C 195.625 127.121094 200.574219 125.101562 207.121094 125.082031 C 210.792969 125.070312 214.257812 125.015625 217.3125 124.972656 C 236.335938 124.679688 245.886719 124.535156 246.835938 135.066406 C 247.417969 141.546875 250.300781 142.351562 253.636719 143.289062 C 256.171875 144 258.792969 144.734375 260.492188 148 C 263.613281 153.980469 258.804688 176.917969 253.429688 186.808594 C 251.746094 189.90625 250.105469 191.5625 248.554688 191.71875 C 246.765625 191.902344 244.835938 192.0625 242.789062 192.199219 C 242.980469 192.539062 243.164062 192.90625 243.332031 193.289062 L 262.386719 193.289062 C 262.398438 193.289062 262.410156 193.292969 262.417969 193.292969 C 262.515625 193.296875 262.976562 194.226562 262.371094 194.183594 L 243.679688 194.183594 C 245.054688 198.035156 245.3125 203.320312 245.335938 206.253906 C 245.34375 207.011719 244.753906 207.640625 243.996094 207.691406 L 243.019531 207.753906 C 242.371094 207.792969 241.773438 207.398438 241.5625 206.785156 L 237.644531 195.171875 C 237.496094 194.730469 237.566406 194.261719 237.839844 193.886719 C 238.113281 193.507812 238.539062 193.289062 239.003906 193.289062 L 242.328125 193.289062 C 242.152344 192.917969 241.964844 192.574219 241.761719 192.265625 C 210.394531 194.234375 153.328125 191.488281 152.710938 191.457031 C 152.476562 191.445312 152.292969 191.257812 152.285156 191.023438 C 152.277344 190.792969 152.453125 190.59375 152.6875 190.570312 C 153.109375 190.523438 195.507812 186.121094 239.171875 189.511719 C 240.425781 189.609375 241.425781 190.292969 242.222656 191.34375 C 244.449219 191.199219 246.539062 191.027344 248.464844 190.832031 C 249.316406 190.746094 250.730469 189.902344 252.640625 186.382812 C 257.847656 176.800781 262.632812 154.039062 259.695312 148.410156 C 258.171875 145.488281 255.851562 144.835938 253.394531 144.144531 C 250.042969 143.207031 246.578125 142.238281 245.941406 135.148438 C 245.066406 125.441406 236.371094 125.574219 217.328125 125.863281 C 214.265625 125.910156 210.800781 125.960938 207.125 125.972656 C 198.652344 126 194.242188 129.441406 191.957031 133.277344 C 192.960938 135.886719 193.425781 139.089844 193.332031 142.855469 C 193.21875 147.578125 192.5 149.960938 191.203125 149.941406 C 189.59375 149.917969 188.621094 146.039062 188.644531 142.460938 C 188.65625 140.363281 189.007812 136.683594 190.964844 133.214844 C 190.285156 131.59375 189.378906 130.234375 188.246094 129.144531 C 183.722656 124.804688 176.5 125.222656 170.695312 125.558594 C 169.351562 125.636719 168.078125 125.710938 166.972656 125.710938 C 165.492188 125.710938 163.640625 125.59375 161.492188 125.460938 C 153.785156 124.976562 143.230469 124.320312 138.878906 128.382812 C 137.554688 129.617188 136.910156 131.1875 136.910156 133.175781 C 136.910156 136.9375 135.898438 139.675781 134.5 141.664062 C 136.457031 140.953125 138.339844 140.578125 139.617188 141.015625 C 145.152344 142.921875 147.226562 151.277344 147.859375 154.78125 C 147.941406 155.21875 148.335938 155.519531 148.78125 155.488281 C 153.414062 155.136719 170.273438 153.988281 192.757812 153.988281 C 215.554688 153.988281 229.210938 155.058594 234.023438 155.519531 C 234.675781 155.578125 235.242188 155.128906 235.324219 154.488281 C 235.792969 150.820312 237.070312 144.304688 240.34375 141.875 C 241.410156 141.082031 242.605469 140.789062 243.894531 140.996094 C 247.601562 141.59375 254.519531 145.082031 254.488281 147.179688 C 254.480469 147.636719 254.199219 148.214844 252.902344 148.382812 C 250.140625 148.742188 247.765625 159.386719 246.703125 176.160156 C 246.605469 177.738281 245.28125 178.980469 243.691406 178.984375 C 234.210938 179.019531 202.820312 179.125 196.851562 178.976562 C 194.992188 178.929688 193.546875 177.535156 192.648438 175.054688 C 192.34375 176.59375 191.984375 177.703125 191.601562 178.0625 C 189.972656 179.589844 174.386719 180.390625 166.375 180.597656 C 154.996094 180.894531 141.710938 180.613281 138.546875 178.921875 C 135.753906 177.429688 133.972656 171.132812 132.085938 164.46875 C 129.917969 156.804688 127.464844 148.117188 123.492188 148.386719 C 122.851562 148.429688 122.359375 148.753906 121.992188 149.375 C 118.453125 155.328125 127.6875 183.085938 129.707031 187.394531 C 130.289062 188.644531 131.300781 189.589844 132.480469 190.300781 L 144.769531 190.300781 C 145.210938 190.300781 145.621094 190.5 145.894531 190.84375 C 146.167969 191.1875 146.269531 191.628906 146.167969 192.054688 L 142.292969 208.550781 C 142.140625 209.199219 141.566406 209.652344 140.894531 209.652344 L 139.125 209.652344 C 138.703125 209.652344 138.304688 209.46875 138.03125 209.152344 C 137.757812 208.832031 137.640625 208.410156 137.707031 207.996094 L 140.003906 193.929688 C 140.027344 193.78125 139.992188 193.636719 139.898438 193.515625 C 139.808594 193.398438 139.675781 193.328125 139.53125 193.3125 C 137.898438 193.144531 134.785156 192.648438 132.246094 191.195312 L 113.292969 191.195312 C 112.042969 191.195312 111.707031 190.300781 113.292969 190.300781 " fill-opacity="1" fill-rule="nonzero"/></g><g fill="#000001" fill-opacity="1"><g transform="translate(123.331106, 260.883812)"><g><path d="M 1.703125 -3.265625 C 1.117188 -3.265625 0.828125 -3.582031 0.828125 -4.21875 C 0.828125 -4.851562 1.117188 -5.171875 1.703125 -5.171875 C 2.285156 -5.171875 2.578125 -4.851562 2.578125 -4.21875 C 2.578125 -3.582031 2.285156 -3.265625 1.703125 -3.265625 Z M 1.703125 -3.265625 "/></g></g></g><g fill="#000001" fill-opacity="1"><g transform="translate(126.725451, 260.883812)"><g><path d="M 4.171875 0.140625 C 3.503906 0.140625 2.914062 0.00390625 2.40625 -0.265625 C 1.894531 -0.535156 1.492188 -0.953125 1.203125 -1.515625 C 0.910156 -2.078125 0.765625 -2.800781 0.765625 -3.6875 C 0.765625 -4.601562 0.914062 -5.347656 1.21875 -5.921875 C 1.519531 -6.503906 1.929688 -6.925781 2.453125 -7.1875 C 2.984375 -7.457031 3.585938 -7.59375 4.265625 -7.59375 C 4.628906 -7.59375 4.988281 -7.550781 5.34375 -7.46875 C 5.707031 -7.394531 6 -7.304688 6.21875 -7.203125 L 5.84375 -6.1875 C 5.625 -6.269531 5.363281 -6.347656 5.0625 -6.421875 C 4.769531 -6.492188 4.492188 -6.53125 4.234375 -6.53125 C 2.765625 -6.53125 2.03125 -5.585938 2.03125 -3.703125 C 2.03125 -2.804688 2.207031 -2.117188 2.5625 -1.640625 C 2.925781 -1.160156 3.457031 -0.921875 4.15625 -0.921875 C 4.5625 -0.921875 4.921875 -0.960938 5.234375 -1.046875 C 5.546875 -1.128906 5.832031 -1.226562 6.09375 -1.34375 L 6.09375 -0.265625 C 5.84375 -0.128906 5.566406 -0.03125 5.265625 0.03125 C 4.960938 0.101562 4.597656 0.140625 4.171875 0.140625 Z M 4.171875 0.140625 "/></g></g></g><g fill="#000001" fill-opacity="1"><g transform="translate(133.40285, 260.883812)"><g><path d="M 6.328125 -6.4375 L 3.890625 -6.4375 L 3.890625 0 L 2.6875 0 L 2.6875 -6.4375 L 0.28125 -6.4375 L 0.28125 -7.46875 L 6.328125 -7.46875 Z M 6.328125 -6.4375 "/></g></g></g><g fill="#000001" fill-opacity="1"><g transform="translate(140.024592, 260.883812)"><g><path d="M 2.34375 -7.46875 L 2.34375 -2.90625 C 2.34375 -2.789062 2.335938 -2.625 2.328125 -2.40625 C 2.316406 -2.1875 2.300781 -1.960938 2.28125 -1.734375 C 2.269531 -1.503906 2.257812 -1.332031 2.25 -1.21875 L 6.25 -7.46875 L 7.75 -7.46875 L 7.75 0 L 6.609375 0 L 6.609375 -4.40625 C 6.609375 -4.550781 6.609375 -4.742188 6.609375 -4.984375 C 6.617188 -5.222656 6.628906 -5.460938 6.640625 -5.703125 C 6.648438 -5.941406 6.660156 -6.117188 6.671875 -6.234375 L 2.703125 0 L 1.1875 0 L 1.1875 -7.46875 Z M 2.34375 -7.46875 "/></g></g></g><g fill="#000001" fill-opacity="1"><g transform="translate(148.969522, 260.883812)"><g><path d="M 6.859375 0 L 5.625 0 L 5.625 -6.453125 L 3.421875 -6.453125 C 3.304688 -4.878906 3.140625 -3.613281 2.921875 -2.65625 C 2.710938 -1.695312 2.425781 -1 2.0625 -0.5625 C 1.707031 -0.125 1.265625 0.09375 0.734375 0.09375 C 0.617188 0.09375 0.5 0.0859375 0.375 0.078125 C 0.257812 0.0664062 0.164062 0.0390625 0.09375 0 L 0.09375 -0.921875 C 0.15625 -0.898438 0.21875 -0.882812 0.28125 -0.875 C 0.34375 -0.863281 0.40625 -0.859375 0.46875 -0.859375 C 0.96875 -0.859375 1.367188 -1.390625 1.671875 -2.453125 C 1.972656 -3.523438 2.203125 -5.195312 2.359375 -7.46875 L 6.859375 -7.46875 Z M 6.859375 0 "/></g></g></g><g fill="#000001" fill-opacity="1"><g transform="translate(157.010216, 260.883812)"><g><path d="M 2.40625 -4.40625 L 4.625 -4.40625 C 6.5625 -4.40625 7.53125 -3.695312 7.53125 -2.28125 C 7.53125 -1.582031 7.289062 -1.023438 6.8125 -0.609375 C 6.34375 -0.203125 5.59375 0 4.5625 0 L 1.1875 0 L 1.1875 -7.46875 L 2.40625 -7.46875 Z M 6.3125 -2.21875 C 6.3125 -2.664062 6.148438 -2.972656 5.828125 -3.140625 C 5.503906 -3.304688 5.054688 -3.390625 4.484375 -3.390625 L 2.40625 -3.390625 L 2.40625 -0.984375 L 4.515625 -0.984375 C 5.035156 -0.984375 5.460938 -1.078125 5.796875 -1.265625 C 6.140625 -1.453125 6.3125 -1.769531 6.3125 -2.21875 Z M 6.3125 -2.21875 "/></g></g></g><g fill="#000001" fill-opacity="1"><g transform="translate(165.273485, 260.883812)"><g><path d="M 2.40625 -7.46875 L 2.40625 -4.359375 L 6.453125 -4.359375 L 6.453125 -7.46875 L 7.6875 -7.46875 L 7.6875 0 L 6.453125 0 L 6.453125 -3.328125 L 2.40625 -3.328125 L 2.40625 0 L 1.1875 0 L 1.1875 -7.46875 Z M 2.40625 -7.46875 "/></g></g></g><g fill="#000001" fill-opacity="1"><g transform="translate(174.134935, 260.883812)"><g><path d="M 1.1875 0 L 1.1875 -7.46875 L 2.40625 -7.46875 L 2.40625 -4.40625 L 4.34375 -4.40625 C 5.3125 -4.40625 6.023438 -4.226562 6.484375 -3.875 C 6.953125 -3.519531 7.1875 -2.988281 7.1875 -2.28125 C 7.1875 -1.582031 6.957031 -1.023438 6.5 -0.609375 C 6.039062 -0.203125 5.300781 0 4.28125 0 Z M 8.421875 0 L 8.421875 -7.46875 L 9.640625 -7.46875 L 9.640625 0 Z M 2.40625 -0.984375 L 4.171875 -0.984375 C 4.703125 -0.984375 5.132812 -1.070312 5.46875 -1.25 C 5.800781 -1.4375 5.96875 -1.757812 5.96875 -2.21875 C 5.96875 -2.664062 5.8125 -2.972656 5.5 -3.140625 C 5.195312 -3.304688 4.757812 -3.390625 4.1875 -3.390625 L 2.40625 -3.390625 Z M 2.40625 -0.984375 "/></g></g></g><g fill="#000001" fill-opacity="1"><g transform="translate(184.957873, 260.883812)"><g><path d="M 2.34375 -7.46875 L 2.34375 -2.90625 C 2.34375 -2.789062 2.335938 -2.625 2.328125 -2.40625 C 2.316406 -2.1875 2.300781 -1.960938 2.28125 -1.734375 C 2.269531 -1.503906 2.257812 -1.332031 2.25 -1.21875 L 6.25 -7.46875 L 7.75 -7.46875 L 7.75 0 L 6.609375 0 L 6.609375 -4.40625 C 6.609375 -4.550781 6.609375 -4.742188 6.609375 -4.984375 C 6.617188 -5.222656 6.628906 -5.460938 6.640625 -5.703125 C 6.648438 -5.941406 6.660156 -6.117188 6.671875 -6.234375 L 2.703125 0 L 1.1875 0 L 1.1875 -7.46875 Z M 7.21875 -10.546875 C 7.15625 -9.859375 6.921875 -9.332031 6.515625 -8.96875 C 6.117188 -8.613281 5.476562 -8.4375 4.59375 -8.4375 C 3.6875 -8.4375 3.039062 -8.613281 2.65625 -8.96875 C 2.28125 -9.320312 2.070312 -9.847656 2.03125 -10.546875 L 3.171875 -10.546875 C 3.222656 -10.046875 3.351562 -9.707031 3.5625 -9.53125 C 3.769531 -9.363281 4.125 -9.28125 4.625 -9.28125 C 5.050781 -9.28125 5.382812 -9.367188 5.625 -9.546875 C 5.875 -9.734375 6.019531 -10.066406 6.0625 -10.546875 Z M 7.21875 -10.546875 "/></g></g></g><g fill="#000001" fill-opacity="1"><g transform="translate(193.902803, 260.883812)"><g/></g></g><g fill="#000001" fill-opacity="1"><g transform="translate(197.199764, 260.883812)"><g><path d="M 2.34375 -7.46875 L 2.34375 -2.90625 C 2.34375 -2.789062 2.335938 -2.625 2.328125 -2.40625 C 2.316406 -2.1875 2.300781 -1.960938 2.28125 -1.734375 C 2.269531 -1.503906 2.257812 -1.332031 2.25 -1.21875 L 6.25 -7.46875 L 7.75 -7.46875 L 7.75 0 L 6.609375 0 L 6.609375 -4.40625 C 6.609375 -4.550781 6.609375 -4.742188 6.609375 -4.984375 C 6.617188 -5.222656 6.628906 -5.460938 6.640625 -5.703125 C 6.648438 -5.941406 6.660156 -6.117188 6.671875 -6.234375 L 2.703125 0 L 1.1875 0 L 1.1875 -7.46875 Z M 2.34375 -7.46875 "/></g></g></g><g fill="#000001" fill-opacity="1"><g transform="translate(206.144694, 260.883812)"><g><path d="M 2.40625 -7.46875 L 2.40625 -4.359375 L 6.453125 -4.359375 L 6.453125 -7.46875 L 7.6875 -7.46875 L 7.6875 0 L 6.453125 0 L 6.453125 -3.328125 L 2.40625 -3.328125 L 2.40625 0 L 1.1875 0 L 1.1875 -7.46875 Z M 2.40625 -7.46875 "/></g></g></g><g fill="#000001" fill-opacity="1"><g transform="translate(215.006144, 260.883812)"><g><path d="M 6.328125 -6.4375 L 3.890625 -6.4375 L 3.890625 0 L 2.6875 0 L 2.6875 -6.4375 L 0.28125 -6.4375 L 0.28125 -7.46875 L 6.328125 -7.46875 Z M 6.328125 -6.4375 "/></g></g></g><g fill="#000001" fill-opacity="1"><g transform="translate(221.627885, 260.883812)"><g><path d="M 4.0625 -7.59375 C 4.695312 -7.59375 5.242188 -7.453125 5.703125 -7.171875 C 6.171875 -6.898438 6.523438 -6.507812 6.765625 -6 C 7.015625 -5.5 7.140625 -4.910156 7.140625 -4.234375 L 7.140625 -3.5 L 2.03125 -3.5 C 2.050781 -2.65625 2.265625 -2.007812 2.671875 -1.5625 C 3.085938 -1.125 3.664062 -0.90625 4.40625 -0.90625 C 4.882812 -0.90625 5.304688 -0.945312 5.671875 -1.03125 C 6.035156 -1.125 6.414062 -1.253906 6.8125 -1.421875 L 6.8125 -0.34375 C 6.425781 -0.175781 6.046875 -0.0546875 5.671875 0.015625 C 5.304688 0.0976562 4.867188 0.140625 4.359375 0.140625 C 3.640625 0.140625 3.007812 0 2.46875 -0.28125 C 1.9375 -0.570312 1.519531 -1 1.21875 -1.5625 C 0.914062 -2.132812 0.765625 -2.835938 0.765625 -3.671875 C 0.765625 -4.492188 0.898438 -5.195312 1.171875 -5.78125 C 1.453125 -6.363281 1.835938 -6.8125 2.328125 -7.125 C 2.828125 -7.4375 3.40625 -7.59375 4.0625 -7.59375 Z M 4.046875 -6.59375 C 3.460938 -6.59375 3 -6.40625 2.65625 -6.03125 C 2.320312 -5.65625 2.125 -5.132812 2.0625 -4.46875 L 5.859375 -4.46875 C 5.847656 -5.101562 5.695312 -5.613281 5.40625 -6 C 5.125 -6.394531 4.671875 -6.59375 4.046875 -6.59375 Z M 4.046875 -6.59375 "/></g></g></g><g fill="#000001" fill-opacity="1"><g transform="translate(229.473824, 260.883812)"><g><path d="M 4.734375 -7.59375 C 5.648438 -7.59375 6.390625 -7.273438 6.953125 -6.640625 C 7.515625 -6.003906 7.796875 -5.039062 7.796875 -3.75 C 7.796875 -2.476562 7.515625 -1.507812 6.953125 -0.84375 C 6.390625 -0.1875 5.644531 0.140625 4.71875 0.140625 C 4.144531 0.140625 3.671875 0.0351562 3.296875 -0.171875 C 2.921875 -0.390625 2.625 -0.648438 2.40625 -0.953125 L 2.328125 -0.953125 C 2.335938 -0.785156 2.351562 -0.582031 2.375 -0.34375 C 2.394531 -0.101562 2.40625 0.101562 2.40625 0.28125 L 2.40625 3.34375 L 1.1875 3.34375 L 1.1875 -7.46875 L 2.1875 -7.46875 L 2.359375 -6.453125 L 2.40625 -6.453125 C 2.632812 -6.773438 2.925781 -7.046875 3.28125 -7.265625 C 3.644531 -7.484375 4.128906 -7.59375 4.734375 -7.59375 Z M 4.515625 -6.578125 C 3.753906 -6.578125 3.210938 -6.363281 2.890625 -5.9375 C 2.578125 -5.507812 2.414062 -4.859375 2.40625 -3.984375 L 2.40625 -3.75 C 2.40625 -2.820312 2.554688 -2.109375 2.859375 -1.609375 C 3.160156 -1.117188 3.71875 -0.875 4.53125 -0.875 C 4.976562 -0.875 5.347656 -0.992188 5.640625 -1.234375 C 5.941406 -1.484375 6.164062 -1.828125 6.3125 -2.265625 C 6.457031 -2.703125 6.53125 -3.203125 6.53125 -3.765625 C 6.53125 -4.617188 6.363281 -5.300781 6.03125 -5.8125 C 5.707031 -6.320312 5.203125 -6.578125 4.515625 -6.578125 Z M 4.515625 -6.578125 "/></g></g></g><g fill="#000001" fill-opacity="1"><g transform="translate(238.029232, 260.883812)"><g><path d="M 2.40625 -4.40625 L 4.625 -4.40625 C 6.5625 -4.40625 7.53125 -3.695312 7.53125 -2.28125 C 7.53125 -1.582031 7.289062 -1.023438 6.8125 -0.609375 C 6.34375 -0.203125 5.59375 0 4.5625 0 L 1.1875 0 L 1.1875 -7.46875 L 2.40625 -7.46875 Z M 6.3125 -2.21875 C 6.3125 -2.664062 6.148438 -2.972656 5.828125 -3.140625 C 5.503906 -3.304688 5.054688 -3.390625 4.484375 -3.390625 L 2.40625 -3.390625 L 2.40625 -0.984375 L 4.515625 -0.984375 C 5.035156 -0.984375 5.460938 -1.078125 5.796875 -1.265625 C 6.140625 -1.453125 6.3125 -1.769531 6.3125 -2.21875 Z M 6.3125 -2.21875 "/></g></g></g><g fill="#000001" fill-opacity="1"><g transform="translate(246.292502, 260.883812)"><g><path d="M 4.0625 -7.59375 C 4.695312 -7.59375 5.242188 -7.453125 5.703125 -7.171875 C 6.171875 -6.898438 6.523438 -6.507812 6.765625 -6 C 7.015625 -5.5 7.140625 -4.910156 7.140625 -4.234375 L 7.140625 -3.5 L 2.03125 -3.5 C 2.050781 -2.65625 2.265625 -2.007812 2.671875 -1.5625 C 3.085938 -1.125 3.664062 -0.90625 4.40625 -0.90625 C 4.882812 -0.90625 5.304688 -0.945312 5.671875 -1.03125 C 6.035156 -1.125 6.414062 -1.253906 6.8125 -1.421875 L 6.8125 -0.34375 C 6.425781 -0.175781 6.046875 -0.0546875 5.671875 0.015625 C 5.304688 0.0976562 4.867188 0.140625 4.359375 0.140625 C 3.640625 0.140625 3.007812 0 2.46875 -0.28125 C 1.9375 -0.570312 1.519531 -1 1.21875 -1.5625 C 0.914062 -2.132812 0.765625 -2.835938 0.765625 -3.671875 C 0.765625 -4.492188 0.898438 -5.195312 1.171875 -5.78125 C 1.453125 -6.363281 1.835938 -6.8125 2.328125 -7.125 C 2.828125 -7.4375 3.40625 -7.59375 4.0625 -7.59375 Z M 4.046875 -6.59375 C 3.460938 -6.59375 3 -6.40625 2.65625 -6.03125 C 2.320312 -5.65625 2.125 -5.132812 2.0625 -4.46875 L 5.859375 -4.46875 C 5.847656 -5.101562 5.695312 -5.613281 5.40625 -6 C 5.125 -6.394531 4.671875 -6.59375 4.046875 -6.59375 Z M 4.046875 -6.59375 "/></g></g></g><g fill="#000001" fill-opacity="1"><g transform="translate(254.138441, 260.883812)"><g><path d="M 4.734375 -7.59375 C 5.648438 -7.59375 6.390625 -7.273438 6.953125 -6.640625 C 7.515625 -6.003906 7.796875 -5.039062 7.796875 -3.75 C 7.796875 -2.476562 7.515625 -1.507812 6.953125 -0.84375 C 6.390625 -0.1875 5.644531 0.140625 4.71875 0.140625 C 4.144531 0.140625 3.671875 0.0351562 3.296875 -0.171875 C 2.921875 -0.390625 2.625 -0.648438 2.40625 -0.953125 L 2.328125 -0.953125 C 2.335938 -0.785156 2.351562 -0.582031 2.375 -0.34375 C 2.394531 -0.101562 2.40625 0.101562 2.40625 0.28125 L 2.40625 3.34375 L 1.1875 3.34375 L 1.1875 -7.46875 L 2.1875 -7.46875 L 2.359375 -6.453125 L 2.40625 -6.453125 C 2.632812 -6.773438 2.925781 -7.046875 3.28125 -7.265625 C 3.644531 -7.484375 4.128906 -7.59375 4.734375 -7.59375 Z M 4.515625 -6.578125 C 3.753906 -6.578125 3.210938 -6.363281 2.890625 -5.9375 C 2.578125 -5.507812 2.414062 -4.859375 2.40625 -3.984375 L 2.40625 -3.75 C 2.40625 -2.820312 2.554688 -2.109375 2.859375 -1.609375 C 3.160156 -1.117188 3.71875 -0.875 4.53125 -0.875 C 4.976562 -0.875 5.347656 -0.992188 5.640625 -1.234375 C 5.941406 -1.484375 6.164062 -1.828125 6.3125 -2.265625 C 6.457031 -2.703125 6.53125 -3.203125 6.53125 -3.765625 C 6.53125 -4.617188 6.363281 -5.300781 6.03125 -5.8125 C 5.707031 -6.320312 5.203125 -6.578125 4.515625 -6.578125 Z M 4.515625 -6.578125 "/></g></g></g><g fill="#000001" fill-opacity="1"><g transform="translate(262.693849, 260.883812)"><g/></g></g><g fill="#000001" fill-opacity="1"><g transform="translate(265.990808, 260.883812)"><g><path d="M 1.703125 -3.265625 C 1.117188 -3.265625 0.828125 -3.582031 0.828125 -4.21875 C 0.828125 -4.851562 1.117188 -5.171875 1.703125 -5.171875 C 2.285156 -5.171875 2.578125 -4.851562 2.578125 -4.21875 C 2.578125 -3.582031 2.285156 -3.265625 1.703125 -3.265625 Z M 1.703125 -3.265625 "/></g></g></g><g fill="#000000" fill-opacity="1"><g transform="translate(88.437434, 245.521175)"><g><path d="M 6.3125 -0.9375 C 6.28125 -0.664062 6.175781 -0.441406 6 -0.265625 C 5.820312 -0.0859375 5.613281 0 5.375 0 C 5.082031 0 4.851562 -0.0859375 4.6875 -0.265625 C 4.53125 -0.441406 4.453125 -0.664062 4.453125 -0.9375 L 4.453125 -30.203125 C 4.453125 -30.472656 4.539062 -30.695312 4.71875 -30.875 C 4.894531 -31.050781 5.113281 -31.140625 5.375 -31.140625 C 5.644531 -31.140625 5.867188 -31.050781 6.046875 -30.875 C 6.222656 -30.695312 6.3125 -30.472656 6.3125 -30.203125 Z M 6.3125 -0.9375 "/></g></g></g><g fill="#000000" fill-opacity="1"><g transform="translate(101.648322, 245.521175)"><g><path d="M 26.953125 -31.140625 C 27.222656 -31.140625 27.429688 -31.054688 27.578125 -30.890625 C 27.722656 -30.734375 27.796875 -30.535156 27.796875 -30.296875 L 27.796875 -0.984375 C 27.796875 -0.648438 27.707031 -0.398438 27.53125 -0.234375 C 27.351562 -0.078125 27.132812 0 26.875 0 C 26.570312 0 26.332031 -0.117188 26.15625 -0.359375 L 6.140625 -27.71875 L 6.140625 -0.75 C 6.140625 -0.539062 6.054688 -0.363281 5.890625 -0.21875 C 5.734375 -0.0703125 5.535156 0 5.296875 0 C 5.023438 0 4.816406 -0.0703125 4.671875 -0.21875 C 4.523438 -0.363281 4.453125 -0.539062 4.453125 -0.75 L 4.453125 -30.25 C 4.453125 -30.539062 4.53125 -30.757812 4.6875 -30.90625 C 4.851562 -31.0625 5.039062 -31.140625 5.25 -31.140625 C 5.519531 -31.140625 5.742188 -31.035156 5.921875 -30.828125 L 26.109375 -3.296875 L 26.109375 -30.296875 C 26.109375 -30.535156 26.191406 -30.734375 26.359375 -30.890625 C 26.523438 -31.054688 26.722656 -31.140625 26.953125 -31.140625 Z M 26.953125 -31.140625 "/></g></g></g><g fill="#000000" fill-opacity="1"><g transform="translate(136.343351, 245.521175)"><g><path d="M 24.0625 -31.140625 C 24.300781 -31.140625 24.507812 -31.054688 24.6875 -30.890625 C 24.863281 -30.734375 24.953125 -30.535156 24.953125 -30.296875 C 24.953125 -30.023438 24.867188 -29.816406 24.703125 -29.671875 C 24.546875 -29.523438 24.332031 -29.453125 24.0625 -29.453125 L 14.140625 -29.453125 L 14.140625 -0.890625 C 14.140625 -0.648438 14.050781 -0.441406 13.875 -0.265625 C 13.695312 -0.0859375 13.488281 0 13.25 0 C 12.988281 0 12.773438 -0.0859375 12.609375 -0.265625 C 12.441406 -0.441406 12.359375 -0.648438 12.359375 -0.890625 L 12.359375 -29.453125 L 2.453125 -29.453125 C 2.210938 -29.453125 2.003906 -29.53125 1.828125 -29.6875 C 1.648438 -29.851562 1.5625 -30.054688 1.5625 -30.296875 C 1.5625 -30.535156 1.648438 -30.734375 1.828125 -30.890625 C 2.003906 -31.054688 2.210938 -31.140625 2.453125 -31.140625 Z M 24.0625 -31.140625 "/></g></g></g><g fill="#000000" fill-opacity="1"><g transform="translate(165.300376, 245.521175)"><g><path d="M 22.109375 -1.78125 C 22.347656 -1.78125 22.554688 -1.691406 22.734375 -1.515625 C 22.910156 -1.335938 23 -1.128906 23 -0.890625 C 23 -0.617188 22.910156 -0.398438 22.734375 -0.234375 C 22.554688 -0.078125 22.347656 0 22.109375 0 L 5.34375 0 C 5.101562 0 4.894531 -0.0859375 4.71875 -0.265625 C 4.539062 -0.441406 4.453125 -0.648438 4.453125 -0.890625 L 4.453125 -30.25 C 4.453125 -30.488281 4.539062 -30.695312 4.71875 -30.875 C 4.894531 -31.050781 5.101562 -31.140625 5.34375 -31.140625 L 22.109375 -31.140625 C 22.347656 -31.140625 22.554688 -31.050781 22.734375 -30.875 C 22.910156 -30.695312 23 -30.488281 23 -30.25 C 23 -29.976562 22.910156 -29.757812 22.734375 -29.59375 C 22.554688 -29.4375 22.347656 -29.359375 22.109375 -29.359375 L 6.3125 -29.359375 L 6.3125 -16.953125 L 20.109375 -16.953125 C 20.347656 -16.953125 20.554688 -16.863281 20.734375 -16.6875 C 20.910156 -16.507812 21 -16.300781 21 -16.0625 C 21 -15.789062 20.910156 -15.570312 20.734375 -15.40625 C 20.554688 -15.25 20.347656 -15.171875 20.109375 -15.171875 L 6.3125 -15.171875 L 6.3125 -1.78125 Z M 22.109375 -1.78125 "/></g></g></g><g fill="#000000" fill-opacity="1"><g transform="translate(192.967469, 245.521175)"><g><path d="M 26.609375 -1.734375 C 26.929688 -1.523438 27.09375 -1.257812 27.09375 -0.9375 C 27.09375 -0.664062 27.007812 -0.445312 26.84375 -0.28125 C 26.6875 -0.125 26.488281 -0.046875 26.25 -0.046875 C 26.070312 -0.046875 25.9375 -0.078125 25.84375 -0.140625 C 25.039062 -0.578125 24.398438 -1.320312 23.921875 -2.375 C 23.453125 -3.425781 23.21875 -5.15625 23.21875 -7.5625 C 23.21875 -9.988281 22.566406 -11.65625 21.265625 -12.5625 C 19.960938 -13.46875 18.445312 -13.921875 16.71875 -13.921875 L 6.3125 -13.921875 L 6.3125 -0.890625 C 6.3125 -0.648438 6.222656 -0.441406 6.046875 -0.265625 C 5.867188 -0.0859375 5.644531 0 5.375 0 C 5.113281 0 4.894531 -0.0859375 4.71875 -0.265625 C 4.539062 -0.441406 4.453125 -0.648438 4.453125 -0.890625 L 4.453125 -30.25 C 4.453125 -30.488281 4.539062 -30.695312 4.71875 -30.875 C 4.894531 -31.050781 5.101562 -31.140625 5.34375 -31.140625 L 17.078125 -31.140625 C 18.796875 -31.140625 20.320312 -30.789062 21.65625 -30.09375 C 23 -29.394531 24.039062 -28.4375 24.78125 -27.21875 C 25.519531 -26.007812 25.890625 -24.632812 25.890625 -23.09375 C 25.890625 -21.101562 25.363281 -19.394531 24.3125 -17.96875 C 23.257812 -16.550781 21.890625 -15.585938 20.203125 -15.078125 C 21.617188 -14.628906 22.785156 -13.742188 23.703125 -12.421875 C 24.628906 -11.109375 25.09375 -9.488281 25.09375 -7.5625 C 25.09375 -5.570312 25.21875 -4.179688 25.46875 -3.390625 C 25.71875 -2.609375 26.097656 -2.054688 26.609375 -1.734375 Z M 17.296875 -15.703125 C 19.171875 -15.878906 20.757812 -16.617188 22.0625 -17.921875 C 23.363281 -19.234375 24.015625 -20.941406 24.015625 -23.046875 C 24.015625 -24.878906 23.363281 -26.390625 22.0625 -27.578125 C 20.757812 -28.765625 19.023438 -29.359375 16.859375 -29.359375 L 6.3125 -29.359375 L 6.3125 -15.703125 Z M 17.296875 -15.703125 "/></g></g></g><g fill="#000000" fill-opacity="1"><g transform="translate(224.94918, 245.521175)"><g><path d="M 6.3125 -0.9375 C 6.28125 -0.664062 6.175781 -0.441406 6 -0.265625 C 5.820312 -0.0859375 5.613281 0 5.375 0 C 5.082031 0 4.851562 -0.0859375 4.6875 -0.265625 C 4.53125 -0.441406 4.453125 -0.664062 4.453125 -0.9375 L 4.453125 -30.203125 C 4.453125 -30.472656 4.539062 -30.695312 4.71875 -30.875 C 4.894531 -31.050781 5.113281 -31.140625 5.375 -31.140625 C 5.644531 -31.140625 5.867188 -31.050781 6.046875 -30.875 C 6.222656 -30.695312 6.3125 -30.472656 6.3125 -30.203125 Z M 6.3125 -0.9375 "/></g></g></g><g fill="#000000" fill-opacity="1"><g transform="translate(238.16007, 245.521175)"><g><path d="M 31.9375 -15.5625 C 31.9375 -12.457031 31.304688 -9.6875 30.046875 -7.25 C 28.785156 -4.820312 27.023438 -2.929688 24.765625 -1.578125 C 22.515625 -0.234375 19.953125 0.4375 17.078125 0.4375 C 14.203125 0.4375 11.632812 -0.234375 9.375 -1.578125 C 7.125 -2.929688 5.367188 -4.820312 4.109375 -7.25 C 2.847656 -9.6875 2.21875 -12.457031 2.21875 -15.5625 C 2.21875 -18.675781 2.847656 -21.445312 4.109375 -23.875 C 5.367188 -26.3125 7.125 -28.203125 9.375 -29.546875 C 11.632812 -30.898438 14.203125 -31.578125 17.078125 -31.578125 C 19.953125 -31.578125 22.515625 -30.898438 24.765625 -29.546875 C 27.023438 -28.203125 28.785156 -26.3125 30.046875 -23.875 C 31.304688 -21.445312 31.9375 -18.675781 31.9375 -15.5625 Z M 30.078125 -15.5625 C 30.078125 -18.351562 29.523438 -20.832031 28.421875 -23 C 27.328125 -25.164062 25.789062 -26.835938 23.8125 -28.015625 C 21.84375 -29.203125 19.597656 -29.796875 17.078125 -29.796875 C 14.554688 -29.796875 12.3125 -29.203125 10.34375 -28.015625 C 8.375 -26.835938 6.835938 -25.164062 5.734375 -23 C 4.640625 -20.832031 4.09375 -18.351562 4.09375 -15.5625 C 4.09375 -12.78125 4.640625 -10.304688 5.734375 -8.140625 C 6.835938 -5.972656 8.375 -4.296875 10.34375 -3.109375 C 12.3125 -1.921875 14.554688 -1.328125 17.078125 -1.328125 C 19.597656 -1.328125 21.84375 -1.921875 23.8125 -3.109375 C 25.789062 -4.296875 27.328125 -5.972656 28.421875 -8.140625 C 29.523438 -10.304688 30.078125 -12.78125 30.078125 -15.5625 Z M 30.078125 -15.5625 "/></g></g></g><g fill="#000000" fill-opacity="1"><g transform="translate(274.767759, 245.521175)"><g><path d="M 26.609375 -1.734375 C 26.929688 -1.523438 27.09375 -1.257812 27.09375 -0.9375 C 27.09375 -0.664062 27.007812 -0.445312 26.84375 -0.28125 C 26.6875 -0.125 26.488281 -0.046875 26.25 -0.046875 C 26.070312 -0.046875 25.9375 -0.078125 25.84375 -0.140625 C 25.039062 -0.578125 24.398438 -1.320312 23.921875 -2.375 C 23.453125 -3.425781 23.21875 -5.15625 23.21875 -7.5625 C 23.21875 -9.988281 22.566406 -11.65625 21.265625 -12.5625 C 19.960938 -13.46875 18.445312 -13.921875 16.71875 -13.921875 L 6.3125 -13.921875 L 6.3125 -0.890625 C 6.3125 -0.648438 6.222656 -0.441406 6.046875 -0.265625 C 5.867188 -0.0859375 5.644531 0 5.375 0 C 5.113281 0 4.894531 -0.0859375 4.71875 -0.265625 C 4.539062 -0.441406 4.453125 -0.648438 4.453125 -0.890625 L 4.453125 -30.25 C 4.453125 -30.488281 4.539062 -30.695312 4.71875 -30.875 C 4.894531 -31.050781 5.101562 -31.140625 5.34375 -31.140625 L 17.078125 -31.140625 C 18.796875 -31.140625 20.320312 -30.789062 21.65625 -30.09375 C 23 -29.394531 24.039062 -28.4375 24.78125 -27.21875 C 25.519531 -26.007812 25.890625 -24.632812 25.890625 -23.09375 C 25.890625 -21.101562 25.363281 -19.394531 24.3125 -17.96875 C 23.257812 -16.550781 21.890625 -15.585938 20.203125 -15.078125 C 21.617188 -14.628906 22.785156 -13.742188 23.703125 -12.421875 C 24.628906 -11.109375 25.09375 -9.488281 25.09375 -7.5625 C 25.09375 -5.570312 25.21875 -4.179688 25.46875 -3.390625 C 25.71875 -2.609375 26.097656 -2.054688 26.609375 -1.734375 Z M 17.296875 -15.703125 C 19.171875 -15.878906 20.757812 -16.617188 22.0625 -17.921875 C 23.363281 -19.234375 24.015625 -20.941406 24.015625 -23.046875 C 24.015625 -24.878906 23.363281 -26.390625 22.0625 -27.578125 C 20.757812 -28.765625 19.023438 -29.359375 16.859375 -29.359375 L 6.3125 -29.359375 L 6.3125 -15.703125 Z M 17.296875 -15.703125 "/></g></g></g></svg>