<svg xmlns="http://www.w3.org/2000/svg" xmlns:xlink="http://www.w3.org/1999/xlink" viewBox="0,0,256,256" width="50px" height="50px" fill-rule="nonzero"><g fill="#ffffff" fill-rule="nonzero" stroke="none" stroke-width="1" stroke-linecap="butt" stroke-linejoin="miter" stroke-miterlimit="10" stroke-dasharray="" stroke-dashoffset="0" font-family="none" font-weight="none" font-size="none" text-anchor="none" style="mix-blend-mode: normal"><g transform="scale(5.12,5.12)"><path d="M5,7c-2.75,0 -5,2.25 -5,5v26c0,2.75 2.25,5 5,5h40c2.75,0 5,-2.25 5,-5v-26c0,-2.75 -2.25,-5 -5,-5zM5,9h40c1.66797,0 3,1.33203 3,3v26c0,1.66797 -1.33203,3 -3,3h-40c-1.66797,0 -3,-1.33203 -3,-3v-26c0,-1.66797 1.33203,-3 3,-3zM17,13c-6.61719,0 -12,5.38281 -12,12c0,6.61719 5.38281,12 12,12c3.07813,0 5.875,-1.18359 8,-3.09375c2.125,1.91016 4.92578,3.09375 8,3.09375c6.61719,0 12,-5.38281 12,-12c0,-6.61719 -5.38281,-12 -12,-12c-3.07422,0 -5.875,1.18359 -8,3.09375c-2.125,-1.91016 -4.92187,-3.09375 -8,-3.09375zM33,15c5.53516,0 10,4.46484 10,10c0,5.53516 -4.46484,10 -10,10c-2.55078,0 -4.89062,-0.93359 -6.65625,-2.5c1.65234,-2.05859 2.65625,-4.66016 2.65625,-7.5c0,-2.83984 -1.00391,-5.44141 -2.65625,-7.5c1.76563,-1.56641 4.10547,-2.5 6.65625,-2.5z"></path></g></g></svg>