<svg xmlns="http://www.w3.org/2000/svg" xmlns:xlink="http://www.w3.org/1999/xlink" width="1920" zoomAndPan="magnify" viewBox="0 0 1440 809.999993" height="1080" preserveAspectRatio="xMidYMid meet" version="1.0"><defs><clipPath id="ccc1948e87"><path d="M 167.632812 38.976562 L 1272.890625 38.976562 L 1272.890625 771.234375 L 167.632812 771.234375 Z M 167.632812 38.976562 " clip-rule="nonzero"/></clipPath></defs><g clip-path="url(#ccc1948e87)"><path fill="#454652" d="M 1170.648438 310.140625 L 1188.691406 278.871094 L 1152.597656 278.871094 Z M 1186.941406 345.992188 L 1170.648438 317.757812 L 1154.347656 345.992188 Z M 1174.273438 310.84375 L 1207.960938 310.84375 L 1191.117188 281.660156 Z M 1150.171875 344.992188 L 1167.691406 314.640625 L 1132.65625 314.640625 Z M 1150.171875 354.023438 L 1134.570312 381.058594 L 1165.773438 381.058594 Z M 1225.242188 352.339844 L 1197.933594 352.339844 L 1211.585938 375.996094 Z M 1207.066406 315.546875 L 1175.164062 315.546875 L 1191.117188 343.183594 Z M 1185.964844 351.375 L 1155.324219 351.375 L 1170.648438 377.917969 Z M 1227.953125 279.84375 L 1195.222656 279.84375 L 1211.585938 308.195312 Z M 433.683594 531.847656 L 418.503906 558.144531 L 448.863281 558.144531 Z M 1211.585938 319.789062 L 1197.054688 344.972656 L 1226.125 344.972656 Z M 510.0625 528.917969 L 480.136719 528.917969 L 495.097656 554.84375 Z M 961.417969 457.414062 L 929.507812 457.414062 L 945.464844 485.050781 Z M 920.882812 457.175781 L 888.152344 457.175781 L 904.523438 485.527344 Z M 924.992188 460.34375 L 909.320312 487.5 L 940.667969 487.5 Z M 899.089844 493.410156 L 869.011719 493.410156 L 884.046875 519.460938 Z M 867.960938 487.742188 L 900.140625 487.742188 L 884.046875 459.863281 Z M 474.628906 532.425781 L 459.945312 557.859375 L 489.300781 557.859375 Z M 429.234375 528.304688 L 397.1875 528.304688 L 413.214844 556.0625 Z M 469.546875 528.671875 L 438.761719 528.671875 L 454.15625 555.335938 Z M 1191.117188 355.761719 L 1177.019531 380.191406 L 1205.214844 380.191406 Z M 965.933594 460.835938 L 950.679688 487.253906 L 981.183594 487.253906 Z M 1001.867188 457.695312 L 970.945312 457.695312 L 986.402344 484.484375 Z M 515.570312 532.84375 L 501.25 557.648438 L 529.886719 557.648438 Z M 246.425781 633.882812 L 211.519531 633.882812 L 228.976562 664.117188 Z M 703.640625 488.054688 L 736.921875 488.054688 L 720.285156 459.226562 Z M 269.914062 601.492188 L 253.621094 629.730469 L 286.214844 629.730469 Z M 454.15625 487.699219 L 472.402344 456.085938 L 435.910156 456.085938 Z M 679.339844 452.230469 L 697.585938 420.625 L 661.089844 420.625 Z M 662.695312 488.054688 L 695.976562 488.054688 L 679.339844 459.226562 Z M 470.65625 523.445312 L 454.15625 494.851562 L 437.652344 523.445312 Z M 863.578125 485.925781 L 880.285156 456.980469 L 846.871094 456.980469 Z M 228.976562 674.375 L 214.371094 699.683594 L 243.578125 699.683594 Z M 284.808594 635.359375 L 255.023438 635.359375 L 269.914062 661.164062 Z M 249.445312 637.921875 L 233.980469 664.710938 L 264.90625 664.710938 Z M 249.445312 629.113281 L 267.296875 598.183594 L 231.597656 598.183594 Z M 1252.527344 174.867188 L 1235.347656 204.636719 L 1269.710938 204.636719 Z M 1252.527344 248.527344 L 1237.703125 274.207031 L 1267.351562 274.207031 Z M 1236.097656 208.871094 L 1252.527344 237.34375 L 1268.964844 208.871094 Z M 1215.484375 244.253906 L 1232.058594 272.964844 L 1248.628906 244.253906 Z M 1232.058594 210.101562 L 1214.671875 240.21875 L 1249.441406 240.21875 Z M 720.285156 452.230469 L 738.527344 420.625 L 702.035156 420.625 Z M 1211.585938 245.804688 L 1194.40625 275.570312 L 1228.769531 275.570312 Z M 761.222656 452.15625 L 779.402344 420.660156 L 743.046875 420.660156 Z M 986.402344 416.6875 L 1004.585938 385.195312 L 968.226562 385.195312 Z M 744.652344 488.019531 L 777.796875 488.019531 L 761.222656 459.308594 Z M 785.660156 487.980469 L 818.664062 487.980469 L 802.164062 459.386719 Z M 986.402344 424 L 969.972656 452.472656 L 1002.839844 452.472656 Z M 802.164062 452.082031 L 820.277344 420.699219 L 784.050781 420.699219 Z M 1006.878906 461.578125 L 992.269531 486.882812 L 1021.484375 486.882812 Z M 802.164062 533.609375 L 788.507812 557.265625 L 815.824219 557.265625 Z M 843.109375 533.78125 L 829.601562 557.179688 L 856.613281 557.179688 Z M 836.65625 529.460938 L 808.609375 529.460938 L 822.632812 553.757812 Z M 877.382812 529.585938 L 849.773438 529.585938 L 863.578125 553.5 Z M 884.046875 534.128906 L 870.839844 557.007812 L 897.257812 557.007812 Z M 918.023438 529.757812 L 891.011719 529.757812 L 904.523438 553.15625 Z M 795.863281 529.375 L 767.523438 529.375 L 781.691406 553.921875 Z M 679.339844 533.4375 L 665.535156 557.355469 L 693.140625 557.355469 Z M 714.054688 529.332031 L 685.566406 529.332031 L 699.808594 554.007812 Z M 754.992188 529.332031 L 726.507812 529.332031 L 740.753906 554.007812 Z M 761.222656 533.4375 L 747.421875 557.355469 L 775.027344 557.355469 Z M 720.285156 533.4375 L 706.476562 557.355469 L 734.085938 557.355469 Z M 1063.699219 421.984375 L 1031.933594 421.984375 L 1047.816406 449.503906 Z M 904.523438 497.207031 L 890.058594 522.265625 L 918.984375 522.265625 Z M 1047.816406 462.421875 L 1033.941406 486.464844 L 1061.695312 486.464844 Z M 1082.238281 458.570312 L 1054.34375 458.570312 L 1068.289062 482.742188 Z M 1068.289062 425.777344 L 1053.398438 451.585938 L 1083.183594 451.585938 Z M 1042.097656 458.105469 L 1012.597656 458.105469 L 1027.347656 483.660156 Z M 945.464844 497.71875 L 931.4375 522.011719 L 959.488281 522.011719 Z M 939.742188 493.574219 L 910.242188 493.574219 L 924.992188 519.128906 Z M 986.402344 498.3125 L 972.902344 521.714844 L 999.914062 521.714844 Z M 980.179688 493.867188 L 951.6875 493.867188 L 965.933594 518.546875 Z M 1020.53125 494.203125 L 993.222656 494.203125 L 1006.878906 517.867188 Z M 323.835938 636.460938 L 297.882812 636.460938 L 310.859375 658.953125 Z M 781.691406 496.464844 L 766.585938 522.644531 L 796.800781 522.644531 Z M 638.394531 520.273438 L 654.136719 493.003906 L 622.652344 493.003906 Z M 699.808594 496.296875 L 684.5625 522.722656 L 715.0625 522.722656 Z M 740.753906 496.382812 L 725.574219 522.683594 L 755.929688 522.683594 Z M 695.011719 493.042969 L 663.664062 493.042969 L 679.339844 520.195312 Z M 658.867188 496.296875 L 643.617188 522.722656 L 674.117188 522.722656 Z M 735.953125 493.042969 L 704.605469 493.042969 L 720.285156 520.195312 Z M 858.429688 493.242188 L 827.789062 493.242188 L 843.109375 519.789062 Z M 822.632812 496.628906 L 807.671875 522.558594 L 837.601562 522.558594 Z M 817.699219 493.125 L 786.632812 493.125 L 802.164062 520.035156 Z M 863.578125 496.875 L 848.828125 522.429688 L 878.328125 522.429688 Z M 776.898438 493.042969 L 745.550781 493.042969 L 761.222656 520.195312 Z M 591.515625 529.164062 L 562.445312 529.164062 L 576.984375 554.347656 Z M 597.453125 533.265625 L 583.503906 557.4375 L 611.40625 557.4375 Z M 673.1875 529.289062 L 644.550781 529.289062 L 658.867188 554.09375 Z M 638.394531 533.351562 L 624.523438 557.394531 L 652.269531 557.394531 Z M 556.507812 533.101562 L 542.410156 557.523438 L 570.605469 557.523438 Z M 632.316406 529.25 L 603.539062 529.25 L 617.925781 554.179688 Z M 561.519531 522.84375 L 592.441406 522.84375 L 576.984375 496.058594 Z M 633.242188 522.761719 L 617.925781 496.21875 L 602.605469 522.761719 Z M 550.722656 529.085938 L 521.363281 529.085938 L 536.039062 554.511719 Z M 597.453125 520.433594 L 613.335938 492.921875 L 581.570312 492.921875 Z M 515.570312 520.996094 L 531.933594 492.644531 L 499.203125 492.644531 Z M 520.371094 522.964844 L 551.710938 522.964844 L 536.039062 495.8125 Z M 556.507812 520.675781 L 572.601562 492.804688 L 540.421875 492.804688 Z M 752.175781 601.898438 L 729.332031 601.898438 L 740.753906 621.6875 Z M 515.570312 655.730469 L 525.757812 638.074219 L 505.378906 638.074219 Z M 512.03125 764.222656 L 519.109375 764.222656 L 515.570312 758.09375 Z M 495.097656 754.597656 L 498.769531 748.242188 L 491.429688 748.242188 Z M 489.53125 729.929688 L 500.660156 729.929688 L 495.097656 720.289062 Z M 515.570312 607.402344 L 504.390625 626.773438 L 526.746094 626.773438 Z M 507.5 695.90625 L 523.640625 695.90625 L 515.570312 681.925781 Z M 529.835938 730.292969 L 542.246094 730.292969 L 536.039062 719.550781 Z M 433.683594 720.808594 L 438.808594 711.9375 L 428.566406 711.9375 Z M 515.570312 722.53125 L 522.183594 711.074219 L 508.953125 711.074219 Z M 536.039062 689.378906 L 544.660156 674.449219 L 527.421875 674.449219 Z M 526.363281 661.371094 L 545.714844 661.371094 L 536.039062 644.605469 Z M 474.628906 655.820312 L 484.898438 638.023438 L 464.355469 638.023438 Z M 454.15625 752.941406 L 456.390625 749.070312 L 451.921875 749.070312 Z M 454.15625 689.175781 L 462.59375 674.550781 L 445.714844 674.550781 Z M 426.1875 695.582031 L 441.1875 695.582031 L 433.683594 682.582031 Z M 449.738281 729.269531 L 458.578125 729.269531 L 454.15625 721.609375 Z M 444.480469 661.371094 L 463.835938 661.371094 L 454.15625 644.605469 Z M 466.746094 695.796875 L 482.507812 695.796875 L 474.628906 682.144531 Z M 474.628906 721.816406 L 480.621094 711.425781 L 468.632812 711.425781 Z M 485.417969 661.371094 L 504.777344 661.371094 L 495.097656 644.605469 Z M 495.097656 689.277344 L 503.628906 674.5 L 486.570312 674.5 Z M 556.507812 607.5 L 545.414062 626.71875 L 567.609375 626.71875 Z M 472.726562 763.28125 L 476.53125 763.28125 L 474.628906 759.984375 Z M 474.628906 607.21875 L 463.285156 626.863281 L 485.96875 626.863281 Z M 536.039062 755.878906 L 540.816406 747.601562 L 531.265625 747.601562 Z M 611.207031 730.59375 L 624.640625 730.59375 L 617.925781 718.957031 Z M 556.507812 655.628906 L 566.613281 638.121094 L 546.410156 638.121094 Z M 617.925781 756.914062 L 623.601562 747.085938 L 612.253906 747.085938 Z M 608.335938 661.320312 L 627.519531 661.320312 L 617.925781 644.699219 Z M 638.394531 655.628906 L 648.503906 638.121094 L 628.289062 638.121094 Z M 617.925781 689.488281 L 626.636719 674.398438 L 609.21875 674.398438 Z M 649.273438 661.320312 L 668.457031 661.320312 L 658.867188 644.699219 Z M 658.867188 689.589844 L 667.667969 674.347656 L 650.070312 674.347656 Z M 630.144531 696.015625 L 646.648438 696.015625 L 638.394531 681.714844 Z M 638.394531 723.332031 L 645.707031 710.671875 L 631.085938 710.671875 Z M 633.277344 765.140625 L 643.515625 765.140625 L 638.394531 756.265625 Z M 638.394531 607.589844 L 627.382812 626.675781 L 649.410156 626.675781 Z M 567.390625 661.320312 L 586.574219 661.320312 L 576.984375 644.699219 Z M 576.984375 689.488281 L 585.695312 674.398438 L 568.273438 674.398438 Z M 556.507812 722.996094 L 563.527344 710.84375 L 549.496094 710.84375 Z M 548.347656 695.964844 L 564.675781 695.964844 L 556.507812 681.824219 Z M 551.972656 764.800781 L 561.054688 764.800781 L 556.507812 756.9375 Z M 597.453125 723.222656 L 604.664062 710.730469 L 590.242188 710.730469 Z M 589.199219 696.015625 L 605.710938 696.015625 L 597.453125 681.714844 Z M 592.5625 765.007812 L 602.347656 765.007812 L 597.453125 756.53125 Z M 576.984375 756.535156 L 582.324219 747.273438 L 571.636719 747.273438 Z M 597.453125 655.628906 L 607.558594 638.121094 L 587.351562 638.121094 Z M 570.46875 730.476562 L 583.496094 730.476562 L 576.984375 719.191406 Z M 597.453125 607.589844 L 586.4375 626.675781 L 608.46875 626.675781 Z M 363.464844 637.222656 L 340.140625 637.222656 L 351.800781 657.421875 Z M 194.777344 734.640625 L 222.234375 734.640625 L 208.5 710.855469 Z M 740.753906 570.566406 L 728.386719 591.988281 L 753.117188 591.988281 Z M 699.808594 570.566406 L 687.445312 591.988281 L 712.175781 591.988281 Z M 249.445312 753.980469 L 252.574219 748.550781 L 246.3125 748.550781 Z M 1103.652344 422.558594 L 1073.867188 422.558594 L 1088.761719 448.359375 Z M 167.632812 739.859375 L 167.632812 771.234375 L 185.738281 739.859375 Z M 205.683594 704.699219 L 170.382812 704.699219 L 188.03125 735.277344 Z M 226.898438 763.378906 L 231.046875 763.378906 L 228.976562 759.789062 Z M 241.339844 707.75 L 216.605469 707.75 L 228.976562 729.171875 Z M 175.742188 769.28125 L 200.316406 769.28125 L 188.03125 747.988281 Z M 711.230469 601.898438 L 688.386719 601.898438 L 699.808594 621.6875 Z M 208.5 761.832031 L 218.4375 744.625 L 198.566406 744.625 Z M 547.703125 601.761719 L 524.378906 601.761719 L 536.039062 621.960938 Z M 506.917969 601.667969 L 483.28125 601.667969 L 495.097656 622.144531 Z M 495.097656 569.941406 L 482.195312 592.296875 L 508.003906 592.296875 Z M 454.15625 569.507812 L 440.871094 592.515625 L 467.4375 592.515625 Z M 466.289062 601.484375 L 442.023438 601.484375 L 454.15625 622.503906 Z M 588.484375 601.851562 L 565.480469 601.851562 L 576.984375 621.777344 Z M 617.925781 570.472656 L 605.480469 592.035156 L 630.367188 592.035156 Z M 670.285156 601.898438 L 647.449219 601.898438 L 658.867188 621.6875 Z M 536.039062 570.210938 L 523.367188 592.167969 L 548.714844 592.167969 Z M 433.683594 656.015625 L 444.125 637.925781 L 423.246094 637.925781 Z M 576.984375 570.386719 L 564.464844 592.082031 L 589.503906 592.082031 Z M 629.421875 601.851562 L 606.425781 601.851562 L 617.925781 621.777344 Z M 658.867188 570.566406 L 646.5 591.988281 L 671.234375 591.988281 Z M 343.824219 695.855469 L 359.773438 695.855469 L 351.800781 682.035156 Z M 403.59375 637.691406 L 381.890625 637.691406 L 392.746094 656.496094 Z M 392.746094 719.996094 L 397.167969 712.335938 L 388.320312 712.335938 Z M 369.28125 728.441406 L 375.261719 728.441406 L 372.269531 723.257812 Z M 361.832031 661.8125 L 382.714844 661.8125 L 372.269531 643.722656 Z M 372.269531 689.488281 L 380.980469 674.398438 L 363.558594 674.398438 Z M 409.941406 728.601562 L 416.484375 728.601562 L 413.214844 722.9375 Z M 385.339844 695.523438 L 400.144531 695.523438 L 392.746094 682.691406 Z M 433.683594 606.847656 L 422.027344 627.046875 L 445.34375 627.046875 Z M 413.214844 750.769531 L 413.570312 750.152344 L 412.859375 750.152344 Z M 403.28125 661.519531 L 423.148438 661.519531 L 413.214844 644.304688 Z M 413.214844 689.066406 L 421.558594 674.601562 L 404.863281 674.601562 Z M 351.800781 720.277344 L 356.464844 712.199219 L 347.140625 712.199219 Z M 290.390625 692.335938 L 301.5625 672.96875 L 279.207031 672.96875 Z M 290.390625 750.769531 L 290.742188 750.152344 L 290.035156 750.152344 Z M 269.914062 724.953125 L 278.625 709.859375 L 261.203125 709.859375 Z M 258.574219 697.796875 L 281.253906 697.796875 L 269.914062 678.148438 Z M 285.378906 729.609375 L 295.394531 729.609375 L 290.390625 720.929688 Z M 310.859375 603.695312 L 296.46875 628.625 L 325.246094 628.625 Z M 240.734375 731.742188 L 258.15625 731.742188 L 249.445312 716.65625 Z M 331.328125 690.507812 L 340.917969 673.886719 L 321.734375 673.886719 Z M 328.0625 728.601562 L 334.597656 728.601562 L 331.328125 722.9375 Z M 301.703125 696.535156 L 320.015625 696.535156 L 310.859375 680.671875 Z M 319.910156 662.378906 L 342.75 662.378906 L 331.328125 642.589844 Z M 310.859375 721.9375 L 316.953125 711.371094 L 304.753906 711.371094 Z M 783.464844 418.3125 L 820.867188 418.3125 L 802.164062 385.910156 Z M 599.878906 453.40625 L 635.972656 453.40625 L 617.925781 422.132812 Z M 290.390625 559.160156 L 309.089844 526.757812 L 271.6875 526.757812 Z M 558.800781 453.480469 L 595.164062 453.480469 L 576.984375 421.984375 Z M 597.453125 452.460938 L 615.898438 420.511719 L 579.015625 420.511719 Z M 638.394531 452.304688 L 656.703125 420.585938 L 620.082031 420.585938 Z M 742.519531 418.3125 L 779.921875 418.3125 L 761.222656 385.910156 Z M 722.902344 453.289062 L 758.601562 453.289062 L 740.753906 422.363281 Z M 701.644531 418.277344 L 738.917969 418.277344 L 720.285156 385.984375 Z M 556.507812 452.535156 L 575.015625 420.46875 L 538.007812 420.46875 Z M 660.765625 418.238281 L 697.910156 418.238281 L 679.339844 386.066406 Z M 681.890625 453.328125 L 717.726562 453.328125 L 699.808594 422.289062 Z M 640.953125 453.328125 L 676.785156 453.328125 L 658.867188 422.289062 Z M 517.726562 453.558594 L 554.351562 453.558594 L 536.039062 421.832031 Z M 354.488281 524.1875 L 390.050781 524.1875 L 372.269531 493.375 Z M 374.167969 489.171875 L 411.316406 489.171875 L 392.746094 456.996094 Z M 312.757812 524.640625 L 349.902344 524.640625 L 331.328125 492.464844 Z M 292.941406 559.726562 L 328.777344 559.726562 L 310.859375 528.691406 Z M 351.800781 523.464844 L 370.308594 491.40625 L 333.292969 491.40625 Z M 515.570312 452.757812 L 534.273438 420.355469 L 496.867188 420.355469 Z M 476.527344 453.707031 L 513.671875 453.707031 L 495.097656 421.527344 Z M 456.976562 488.636719 L 492.277344 488.636719 L 474.628906 458.0625 Z M 415.570312 488.90625 L 451.800781 488.90625 L 433.683594 457.527344 Z M 435.714844 453.632812 L 472.597656 453.632812 L 454.15625 421.683594 Z M 413.214844 488.152344 L 431.851562 455.863281 L 394.574219 455.863281 Z M 620.082031 418.089844 L 656.703125 418.089844 L 638.394531 386.363281 Z M 1112.054688 346.773438 L 1147.351562 346.773438 L 1129.703125 316.191406 Z M 1131.867188 311.691406 L 1168.484375 311.691406 L 1150.171875 279.96875 Z M 1151.941406 276.449219 L 1189.347656 276.449219 L 1170.648438 244.046875 Z M 1109.230469 346.132812 L 1127.742188 314.070312 L 1090.726562 314.070312 Z M 1070.253906 347.265625 L 1107.265625 347.265625 L 1088.761719 315.203125 Z M 1191.117188 275.121094 L 1209.5625 243.179688 L 1172.671875 243.179688 Z M 1234.023438 136.738281 L 1252.527344 168.800781 L 1271.035156 136.738281 Z M 763.847656 453.289062 L 799.546875 453.289062 L 781.691406 422.363281 Z M 1211.585938 239.882812 L 1230.222656 207.59375 L 1192.953125 207.59375 Z M 1050.503906 382.316406 L 1086.070312 382.316406 L 1068.289062 351.507812 Z M 1232.058594 204.417969 L 1250.691406 172.132812 L 1213.421875 172.132812 Z M 1272.929688 132.144531 L 1272.929688 101.800781 L 1255.417969 101.800781 Z M 824.46875 418.277344 L 861.742188 418.277344 L 843.109375 385.984375 Z M 865.546875 418.203125 L 902.554688 418.203125 L 884.046875 386.140625 Z M 863.578125 416.84375 L 881.890625 385.117188 L 845.265625 385.117188 Z M 804.917969 453.214844 L 840.351562 453.214844 L 822.632812 422.519531 Z M 658.867188 757.039062 L 664.648438 747.023438 L 653.082031 747.023438 Z M 904.523438 417.296875 L 923.222656 384.890625 L 885.820312 384.890625 Z M 1008.972656 382.660156 L 1045.722656 382.660156 L 1027.347656 350.824219 Z M 989.359375 417.632812 L 1024.394531 417.632812 L 1006.878906 387.277344 Z M 945.464844 417.066406 L 963.96875 385.007812 L 926.957031 385.007812 Z M 947.953125 417.902344 L 983.914062 417.902344 L 965.933594 386.746094 Z M 906.683594 418.089844 L 943.304688 418.089844 L 924.992188 386.363281 Z M 1047.816406 381.523438 L 1066.261719 349.578125 L 1029.378906 349.578125 Z M 1272.929688 338.101562 L 1272.929688 318.023438 L 1261.34375 318.023438 Z M 1272.929688 680.855469 L 1272.929688 678.648438 L 1271.652344 678.648438 Z M 1272.929688 586.65625 L 1272.929688 581.355469 L 1269.871094 586.65625 Z M 167.632812 708.097656 L 167.632812 736.089844 L 183.789062 736.089844 Z M 1272.929688 611.65625 L 1272.929688 606.847656 L 1270.15625 606.847656 Z M 1272.929688 656.777344 L 1272.929688 653.910156 L 1271.277344 656.777344 Z M 474.628906 451.316406 L 492.078125 421.082031 L 457.179688 421.082031 Z M 251.800781 559.839844 L 288.027344 559.839844 L 269.914062 528.460938 Z M 269.914062 594.175781 L 288.226562 562.453125 L 251.605469 562.453125 Z M 335.363281 487.941406 L 368.234375 487.941406 L 351.800781 459.460938 Z M 201.3125 636.292969 L 174.753906 636.292969 L 188.03125 659.300781 Z M 222.75 600.269531 L 194.261719 600.269531 L 208.5 624.945312 Z M 1272.929688 726.917969 L 1272.929688 726.425781 L 1272.644531 726.917969 Z M 167.632812 583.917969 L 167.632812 585.375 L 168.472656 585.375 Z M 167.632812 607.5 L 167.632812 610.359375 L 169.285156 607.5 Z M 167.632812 537.355469 L 167.632812 537.84375 L 167.914062 537.355469 Z M 167.632812 648.980469 L 167.632812 659.242188 L 173.550781 659.242188 Z M 1272.929688 542.539062 L 1272.929688 535.003906 L 1268.578125 535.003906 Z M 167.632812 673.640625 L 167.632812 690.871094 L 177.578125 673.640625 Z M 1272.929688 517.003906 L 1272.929688 507.867188 L 1267.65625 517.003906 Z M 1272.929688 474.828125 L 1272.929688 462.460938 L 1265.792969 462.460938 Z M 1272.929688 377.929688 L 1272.929688 360.402344 L 1262.8125 377.929688 Z M 1259.65625 38.976562 L 1272.929688 61.972656 L 1272.929688 38.976562 Z M 1272.929688 406.546875 L 1272.929688 390.203125 L 1263.5 390.203125 Z M 1272.929688 447.644531 L 1272.929688 433.789062 L 1264.933594 447.644531 Z M 188.03125 669.796875 L 169.460938 701.976562 L 206.601562 701.976562 Z M 1191.117188 429.886719 L 1179.773438 449.53125 L 1202.457031 449.53125 Z M 793.03125 601.945312 L 770.355469 601.945312 L 781.691406 621.589844 Z M 977.277344 566.476562 L 954.59375 566.476562 L 965.933594 586.125 Z M 1243.480469 389.097656 L 1220.640625 389.097656 L 1232.058594 408.878906 Z M 1264.191406 353.492188 L 1240.867188 353.492188 L 1252.527344 373.691406 Z M 1222.519531 424.847656 L 1200.648438 424.847656 L 1211.585938 443.789062 Z M 210.59375 630.925781 L 247.351562 630.925781 L 228.976562 599.089844 Z M 1109.230469 426.867188 L 1095.28125 451.035156 L 1123.183594 451.035156 Z M 263.320312 671.410156 L 235.570312 671.410156 L 249.445312 695.457031 Z M 190.1875 666.355469 L 226.816406 666.355469 L 208.5 634.632812 Z M 290.390625 640.703125 L 277.332031 663.320312 L 303.441406 663.320312 Z M 225.820312 669.425781 L 191.183594 669.425781 L 208.5 699.425781 Z M 1272.929688 168.738281 L 1272.929688 140.386719 L 1256.566406 168.738281 Z M 1092.386719 310.84375 L 1126.078125 310.84375 L 1109.230469 281.660156 Z M 1030.835938 346.386719 L 1064.796875 346.386719 L 1047.816406 316.96875 Z M 1006.878906 381.300781 L 1025.121094 349.6875 L 988.628906 349.6875 Z M 1129.703125 309.527344 L 1147.222656 279.179688 L 1112.1875 279.179688 Z M 928.683594 381.734375 L 962.238281 381.734375 L 945.464844 352.667969 Z M 1195.566406 203.96875 L 1227.609375 203.96875 L 1211.585938 176.210938 Z M 1173.667969 240.261719 L 1208.566406 240.261719 L 1191.117188 210.027344 Z M 579.871094 417.667969 L 615.039062 417.667969 L 597.453125 387.203125 Z M 1272.929688 98.734375 L 1272.929688 67.589844 L 1254.953125 98.734375 Z M 1234.878906 133.972656 L 1270.179688 133.972656 L 1252.527344 103.390625 Z M 1252.527344 322.210938 L 1240.085938 343.765625 L 1264.972656 343.765625 Z M 1216.316406 168.339844 L 1247.800781 168.339844 L 1232.058594 141.0625 Z M 230.804688 595.609375 L 268.085938 595.609375 L 249.445312 563.324219 Z M 539.464844 488.296875 L 573.558594 488.296875 L 556.507812 458.757812 Z M 498.253906 488.449219 L 532.886719 488.449219 L 515.570312 458.449219 Z M 699.808594 486.316406 L 716.859375 456.78125 L 682.761719 456.78125 Z M 479.007812 523.210938 L 511.191406 523.210938 L 495.097656 495.332031 Z M 495.097656 487.316406 L 513.015625 456.277344 L 477.183594 456.277344 Z M 580.609375 488.175781 L 614.296875 488.175781 L 597.453125 458.992188 Z M 576.984375 486.703125 L 594.363281 456.585938 L 559.597656 456.585938 Z M 658.867188 486.394531 L 675.984375 456.738281 L 641.753906 456.738281 Z M 621.683594 488.09375 L 655.101562 488.09375 L 638.394531 459.148438 Z M 474.628906 521.46875 L 491.402344 492.402344 L 457.851562 492.402344 Z M 617.925781 486.46875 L 635.109375 456.707031 L 600.742188 456.707031 Z M 536.039062 486.933594 L 553.625 456.46875 L 518.453125 456.46875 Z M 335.023438 559.074219 L 368.578125 559.074219 L 351.800781 530.003906 Z M 433.683594 522.011719 L 450.933594 492.132812 L 416.433594 492.132812 Z M 372.269531 557.011719 L 389.113281 527.832031 L 355.429688 527.832031 Z M 331.328125 566.742188 L 315.65625 593.902344 L 347.003906 593.902344 Z M 327.769531 563.261719 L 293.945312 563.261719 L 310.859375 592.5625 Z M 331.328125 558.175781 L 349.175781 527.246094 L 313.476562 527.246094 Z M 396.097656 523.796875 L 430.332031 523.796875 L 413.214844 494.148438 Z M 392.746094 522.710938 L 410.59375 491.785156 L 374.890625 491.785156 Z M 392.746094 531.035156 L 376.859375 558.550781 L 408.628906 558.550781 Z M 407.421875 564.546875 L 378.0625 564.546875 L 392.746094 589.980469 Z M 367.472656 563.976562 L 336.132812 563.976562 L 351.800781 591.125 Z M 372.269531 568.058594 L 357.738281 593.242188 L 386.804688 593.242188 Z M 1164.855469 387.214844 L 1135.496094 387.214844 L 1150.171875 412.644531 Z M 1088.761719 389.089844 L 1072.808594 416.730469 L 1104.710938 416.730469 Z M 1092.386719 381.773438 L 1126.078125 381.773438 L 1109.230469 352.59375 Z M 1088.761719 380.769531 L 1106.546875 349.957031 L 1070.980469 349.957031 Z M 1068.289062 415.222656 L 1085.203125 385.921875 L 1051.378906 385.921875 Z M 1030.972656 417.242188 L 1064.664062 417.242188 L 1047.816406 388.054688 Z M 1143.503906 423.1875 L 1115.898438 423.1875 L 1129.703125 447.101562 Z M 1027.347656 416.078125 L 1044.996094 385.5 L 1009.699219 385.5 Z M 1125.117188 386.523438 L 1093.351562 386.523438 L 1109.230469 414.035156 Z M 290.390625 565.078125 L 273.273438 594.730469 L 307.5 594.730469 Z M 1129.703125 379.601562 L 1146.476562 350.539062 L 1112.929688 350.539062 Z M 1129.703125 390.394531 L 1114.878906 416.078125 L 1144.527344 416.078125 Z M 843.109375 452.003906 L 861.152344 420.738281 L 825.058594 420.738281 Z M 740.753906 486.316406 L 757.800781 456.78125 L 723.703125 456.78125 Z M 826.808594 487.859375 L 859.402344 487.859375 L 843.109375 459.621094 Z M 846.058594 453.09375 L 881.097656 453.09375 L 863.578125 422.746094 Z M 822.632812 486.082031 L 839.484375 456.898438 L 805.792969 456.898438 Z M 781.691406 486.234375 L 798.675781 456.820312 L 764.714844 456.820312 Z M 1023.515625 421.550781 L 990.234375 421.550781 L 1006.878906 450.378906 Z M 1027.347656 424.800781 L 1011.601562 452.070312 L 1043.09375 452.070312 Z M 884.046875 451.773438 L 901.902344 420.851562 L 866.203125 420.851562 Z M 948.816406 421.277344 L 965.933594 450.925781 L 983.046875 421.277344 Z M 928.554688 452.746094 L 962.378906 452.746094 L 945.464844 423.445312 Z M 887.273438 452.941406 L 921.769531 452.941406 L 904.523438 423.054688 Z M 924.992188 451.390625 L 942.507812 421.042969 L 907.472656 421.042969 Z M 1006.878906 535.824219 L 995.136719 556.160156 L 1018.613281 556.160156 Z M 1088.761719 463.457031 L 1075.78125 485.945312 L 1101.742188 485.945312 Z M 965.933594 535.097656 L 953.570312 556.519531 L 978.300781 556.519531 Z M 1068.289062 499.988281 L 1056.234375 520.875 L 1080.347656 520.875 Z M 1161.996094 459.800781 L 1138.355469 459.800781 L 1150.171875 480.273438 Z M 1129.703125 464.707031 L 1117.808594 485.320312 L 1141.597656 485.320312 Z M 1122.210938 459.128906 L 1096.253906 459.128906 L 1109.230469 481.617188 Z M 1060.722656 494.640625 L 1034.914062 494.640625 L 1047.816406 516.996094 Z M 998.921875 530.332031 L 973.882812 530.332031 L 986.402344 552.019531 Z M 1272.929688 201.03125 L 1272.929688 173.761719 L 1257.191406 173.761719 Z M 1027.347656 499.101562 L 1014.519531 521.320312 L 1040.175781 521.320312 Z M 1039.167969 530.730469 L 1015.53125 530.730469 L 1027.347656 551.210938 Z M 1100.816406 495.132812 L 1076.703125 495.132812 L 1088.761719 516.019531 Z M 1238.503906 281.191406 L 1252.527344 305.488281 L 1266.550781 281.191406 Z M 1272.929688 308.304688 L 1272.929688 286.867188 L 1260.558594 308.304688 Z M 1272.929688 269.726562 L 1272.929688 245.808594 L 1259.125 245.808594 Z M 1150.171875 428.257812 L 1137.425781 450.34375 L 1162.925781 450.34375 Z M 1232.058594 283.996094 L 1217.234375 309.675781 L 1246.882812 309.675781 Z M 1272.929688 238.574219 L 1272.929688 213.515625 L 1258.464844 238.574219 Z M 1183.167969 423.929688 L 1158.121094 423.929688 L 1170.648438 445.617188 Z M 1170.648438 391.910156 L 1157.136719 415.316406 L 1184.148438 415.316406 Z M 1232.058594 357.855469 L 1219.769531 379.144531 L 1244.34375 379.144531 Z M 1246.082031 316.660156 L 1218.035156 316.660156 L 1232.058594 340.957031 Z M 1211.585938 393.863281 L 1199.769531 414.335938 L 1223.40625 414.335938 Z M 1204.320312 388.066406 L 1177.910156 388.066406 L 1191.117188 410.945312 Z M 781.691406 570.652344 L 769.40625 591.945312 L 793.980469 591.945312 Z M 488.285156 565.140625 L 460.96875 565.140625 L 474.628906 588.796875 Z M 651.296875 565.570312 L 625.492188 565.570312 L 638.394531 587.929688 Z M 447.78125 564.882812 L 419.585938 564.882812 L 433.683594 589.308594 Z M 569.640625 565.441406 L 543.382812 565.441406 L 556.507812 588.191406 Z M 610.433594 565.53125 L 584.476562 565.53125 L 597.453125 588.019531 Z M 958.515625 530.023438 L 932.410156 530.023438 L 945.464844 552.636719 Z M 345.714844 600.183594 L 316.9375 600.183594 L 331.328125 625.113281 Z M 351.800781 605.148438 L 338.671875 627.898438 L 364.933594 627.898438 Z M 392.746094 606.210938 L 380.527344 627.367188 L 404.957031 627.367188 Z M 385.628906 600.777344 L 358.917969 600.777344 L 372.269531 623.917969 Z M 425.8125 601.21875 L 400.613281 601.21875 L 413.214844 623.042969 Z M 413.214844 568.90625 L 399.410156 592.820312 L 427.015625 592.820312 Z M 528.925781 565.3125 L 502.210938 565.3125 L 515.570312 588.453125 Z M 863.578125 571.109375 L 851.683594 591.722656 L 875.472656 591.722656 Z M 896.257812 565.972656 L 871.835938 565.972656 L 884.046875 587.128906 Z M 904.523438 571.476562 L 892.941406 591.539062 L 916.101562 591.539062 Z M 924.992188 534.566406 L 912.164062 556.789062 L 937.820312 556.789062 Z M 936.8125 566.199219 L 913.175781 566.199219 L 924.992188 586.675781 Z M 814.839844 565.703125 L 789.492188 565.703125 L 802.164062 587.664062 Z M 774.050781 565.617188 L 748.394531 565.617188 L 761.222656 587.84375 Z M 855.628906 565.792969 L 830.589844 565.792969 L 843.109375 587.488281 Z M 733.105469 565.617188 L 707.457031 565.617188 L 720.285156 587.84375 Z M 822.632812 570.835938 L 810.503906 591.851562 L 834.769531 591.851562 Z M 306.339844 599.285156 L 274.4375 599.285156 L 290.390625 626.914062 Z M 692.167969 565.617188 L 666.511719 565.617188 L 679.339844 587.84375 Z M 967.703125 382.851562 L 1005.105469 382.851562 L 986.402344 350.449219 Z M 781.691406 359.605469 L 770.921875 378.269531 L 792.464844 378.269531 Z M 785.621094 322.492188 L 777.765625 322.492188 L 781.691406 329.292969 Z M 803.894531 288.296875 L 800.4375 288.296875 L 802.164062 291.285156 Z M 781.691406 415.070312 L 798.472656 386.003906 L 764.917969 386.003906 Z M 782.355469 253.441406 L 781.03125 253.441406 L 781.691406 254.589844 Z M 762.949219 288.296875 L 759.496094 288.296875 L 761.222656 291.285156 Z M 802.164062 264.589844 L 801.25 266.175781 L 803.082031 266.175781 Z M 761.222656 264.589844 L 760.3125 266.175781 L 762.136719 266.175781 Z M 781.691406 298.53125 L 779.460938 302.40625 L 783.925781 302.40625 Z M 761.222656 330.796875 L 756.21875 339.476562 L 766.230469 339.476562 Z M 768.824219 355.835938 L 753.625 355.835938 L 761.222656 369 Z M 740.753906 414.675781 L 757.191406 386.203125 L 724.316406 386.203125 Z M 843.109375 264.589844 L 842.195312 266.175781 L 844.019531 266.175781 Z M 802.164062 330.664062 L 797.046875 339.539062 L 807.285156 339.539062 Z M 864.234375 253.441406 L 862.921875 253.441406 L 863.578125 254.589844 Z M 851.90625 355.144531 L 834.308594 355.144531 L 843.109375 370.390625 Z M 844.832031 288.296875 L 841.382812 288.296875 L 843.109375 291.285156 Z M 843.109375 330.40625 L 837.761719 339.671875 L 848.449219 339.671875 Z M 822.632812 415.765625 L 840.019531 385.652344 L 805.253906 385.652344 Z M 822.632812 298.347656 L 820.242188 302.496094 L 825.03125 302.496094 Z M 810.144531 355.621094 L 794.1875 355.621094 L 802.164062 369.433594 Z M 822.632812 358.765625 L 811.132812 378.691406 L 834.136719 378.691406 Z M 823.296875 253.441406 L 821.976562 253.441406 L 822.632812 254.589844 Z M 826.816406 322.347656 L 818.460938 322.347656 L 822.632812 329.585938 Z M 638.394531 331.199219 L 633.734375 339.269531 L 643.058594 339.269531 Z M 680.878906 288.402344 L 677.796875 288.402344 L 679.339844 291.070312 Z M 658.867188 360.769531 L 649.101562 377.683594 L 668.632812 377.683594 Z M 658.867188 414.113281 L 674.816406 386.476562 L 642.914062 386.476562 Z M 686.746094 355.953125 L 671.933594 355.953125 L 679.339844 368.777344 Z M 679.339844 331.066406 L 674.558594 339.339844 L 684.117188 339.339844 Z M 679.339844 264.882812 L 678.675781 266.027344 L 679.996094 266.027344 Z M 645.414062 356.175781 L 631.378906 356.175781 L 638.394531 368.332031 Z M 863.578125 229.769531 L 863.222656 230.386719 L 863.933594 230.386719 Z M 659.527344 253.441406 L 658.207031 253.441406 L 658.867188 254.589844 Z M 662.535156 322.640625 L 655.199219 322.640625 L 658.867188 328.996094 Z M 658.867188 298.722656 L 656.796875 302.3125 L 660.941406 302.3125 Z M 699.808594 298.53125 L 697.574219 302.40625 L 702.046875 302.40625 Z M 720.285156 330.929688 L 715.386719 339.40625 L 725.171875 339.40625 Z M 740.753906 298.53125 L 738.515625 302.40625 L 742.988281 302.40625 Z M 727.78125 355.894531 L 712.78125 355.894531 L 720.285156 368.890625 Z M 740.753906 360.085938 L 730.394531 378.027344 L 751.109375 378.027344 Z M 741.410156 253.441406 L 740.089844 253.441406 L 740.753906 254.589844 Z M 744.683594 322.492188 L 736.824219 322.492188 L 740.753906 329.292969 Z M 700.472656 253.441406 L 699.152344 253.441406 L 699.808594 254.589844 Z M 703.605469 322.566406 L 696.011719 322.566406 L 699.808594 329.148438 Z M 721.820312 288.402344 L 718.738281 288.402344 L 720.285156 291.070312 Z M 699.808594 360.28125 L 689.625 377.929688 L 710 377.929688 Z M 720.285156 264.589844 L 719.367188 266.175781 L 721.191406 266.175781 Z M 638.394531 264.882812 L 637.738281 266.027344 L 639.054688 266.027344 Z M 699.808594 414.515625 L 716.109375 386.28125 L 683.515625 386.28125 Z M 1047.816406 262.035156 L 1044.6875 267.457031 L 1050.949219 267.457031 Z M 1029.074219 252.828125 L 1025.621094 252.828125 L 1027.347656 255.816406 Z M 1027.347656 229.417969 L 1026.683594 230.5625 L 1028.011719 230.5625 Z M 1027.347656 294.316406 L 1021.460938 304.515625 L 1033.238281 304.515625 Z M 1038.929688 318.070312 L 1015.765625 318.070312 L 1027.347656 338.136719 Z M 1006.878906 322.117188 L 994.351562 343.8125 L 1019.398438 343.8125 Z M 993.808594 320.484375 L 978.996094 320.484375 L 986.402344 333.3125 Z M 986.402344 295.867188 L 981.863281 303.738281 L 990.945312 303.738281 Z M 1006.878906 263.257812 L 1004.808594 266.84375 L 1008.949219 266.84375 Z M 1010.925781 286.953125 L 1002.824219 286.953125 L 1006.878906 293.972656 Z M 1007.234375 218.15625 L 1006.523438 218.15625 L 1006.878906 218.765625 Z M 1109.230469 227.0625 L 1106.535156 231.738281 L 1111.933594 231.738281 Z M 1088.761719 259.867188 L 1083.753906 268.539062 L 1093.769531 268.539062 Z M 1098.953125 283.40625 L 1078.574219 283.40625 L 1088.761719 301.0625 Z M 1088.761719 194.304688 L 1088.40625 194.917969 L 1089.113281 194.917969 Z M 986.402344 229.417969 L 985.746094 230.5625 L 987.066406 230.5625 Z M 863.578125 298.171875 L 861.027344 302.589844 L 866.128906 302.589844 Z M 1068.289062 343.898438 L 1084.859375 315.191406 L 1051.714844 315.191406 Z M 1053.164062 286.203125 L 1042.472656 286.203125 L 1047.816406 295.464844 Z M 1071.140625 252.183594 L 1065.441406 252.183594 L 1068.289062 257.113281 Z M 1068.289062 289.246094 L 1058.019531 307.050781 L 1078.5625 307.050781 Z M 1048.480469 217.976562 L 1047.160156 217.976562 L 1047.816406 219.121094 Z M 1068.289062 228.863281 L 1067.152344 230.839844 L 1069.429688 230.839844 Z M 1089.898438 217.699219 L 1087.621094 217.699219 L 1088.761719 219.671875 Z M 1109.589844 182.6875 L 1108.878906 182.6875 L 1109.230469 183.304688 Z M 904.523438 229.769531 L 904.167969 230.386719 L 904.875 230.386719 Z M 905.179688 253.441406 L 903.859375 253.441406 L 904.523438 254.589844 Z M 909.640625 321.796875 L 899.402344 321.796875 L 904.523438 330.671875 Z M 904.523438 297.664062 L 901.53125 302.839844 L 907.511719 302.839844 Z M 894.40625 354.246094 L 873.695312 354.246094 L 884.046875 372.1875 Z M 868.117188 322.136719 L 859.035156 322.136719 L 863.578125 330 Z M 850.75 379.457031 L 876.40625 379.457031 L 863.578125 357.234375 Z M 889.984375 380.441406 L 919.054688 380.441406 L 904.523438 355.257812 Z M 884.046875 264.589844 L 883.136719 266.175781 L 884.960938 266.175781 Z M 884.046875 330.03125 L 878.375 339.859375 L 889.71875 339.859375 Z M 886.125 288.097656 L 881.976562 288.097656 L 884.046875 291.683594 Z M 945.464844 229.769531 L 945.105469 230.386719 L 945.820312 230.386719 Z M 965.933594 263.871094 L 964.390625 266.535156 L 967.472656 266.535156 Z M 968.925781 287.566406 L 962.945312 287.566406 L 965.933594 292.75 Z M 965.933594 377.917969 L 981.257812 351.375 L 950.613281 351.375 Z M 951.140625 321.484375 L 939.792969 321.484375 L 945.464844 331.3125 Z M 965.933594 326.523438 L 957.222656 341.609375 L 974.644531 341.609375 Z M 924.992188 264.332031 L 923.851562 266.308594 L 926.128906 266.308594 Z M 945.464844 296.871094 L 941.792969 303.234375 L 949.132812 303.234375 Z M 924.992188 328.710938 L 918.171875 340.515625 L 931.808594 340.515625 Z M 927.386719 287.910156 L 922.601562 287.910156 L 924.992188 292.054688 Z M 937.515625 352.992188 L 912.472656 352.992188 L 924.992188 374.6875 Z M 987.542969 253.167969 L 985.265625 253.167969 L 986.402344 255.140625 Z M 946.375 253.296875 L 944.550781 253.296875 L 945.464844 254.882812 Z M 474.628906 334 L 472.390625 337.875 L 476.863281 337.875 Z M 294.808594 464.074219 L 285.96875 464.074219 L 290.390625 471.734375 Z M 352.710938 359.699219 L 350.886719 359.699219 L 351.800781 361.277344 Z M 331.328125 436.933594 L 326.09375 446 L 336.566406 446 Z M 326.601562 493.003906 L 295.113281 493.003906 L 310.859375 520.273438 Z M 341.265625 460.886719 L 321.394531 460.886719 L 331.328125 478.101562 Z M 333.054688 394.699219 L 329.605469 394.699219 L 331.328125 397.683594 Z M 310.859375 405.523438 L 309.132812 408.507812 L 312.585938 408.507812 Z M 310.859375 467.570312 L 301.4375 483.890625 L 320.277344 483.890625 Z M 275.78125 522.351562 L 304.996094 522.351562 L 290.390625 497.042969 Z M 311.210938 360.019531 L 310.503906 360.019531 L 310.859375 360.636719 Z M 313.992188 429.347656 L 307.722656 429.347656 L 310.859375 434.777344 Z M 331.328125 370.992188 L 330.417969 372.574219 L 332.242188 372.574219 Z M 394.46875 359.230469 L 391.019531 359.230469 L 392.746094 362.222656 Z M 392.746094 335.527344 L 391.832031 337.105469 L 393.65625 337.105469 Z M 402.246094 425.671875 L 383.238281 425.671875 L 392.746094 442.132812 Z M 392.746094 401.472656 L 387.511719 410.539062 L 397.972656 410.539062 Z M 372.269531 485.527344 L 388.640625 457.175781 L 355.90625 457.175781 Z M 375.542969 393.804688 L 369 393.804688 L 372.269531 399.46875 Z M 357.035156 428.136719 L 346.570312 428.136719 L 351.800781 437.203125 Z M 351.800781 403.582031 L 348.394531 409.480469 L 355.203125 409.480469 Z M 372.269531 370.054688 L 370.550781 373.042969 L 373.996094 373.042969 Z M 372.269531 431.3125 L 362.164062 448.816406 L 382.375 448.816406 Z M 351.800781 336.167969 L 351.445312 336.785156 L 352.15625 336.785156 Z M 372.625 324.554688 L 371.917969 324.554688 L 372.269531 325.167969 Z M 251.171875 465.628906 L 247.71875 465.628906 L 249.445312 468.617188 Z M 211.199219 536 L 205.800781 536 L 208.5 540.675781 Z M 208.855469 466.417969 L 208.148438 466.417969 L 208.5 467.035156 Z M 208.5 574.476562 L 199.523438 590.035156 L 217.480469 590.035156 Z M 290.390625 439.863281 L 287.691406 444.542969 L 293.089844 444.542969 Z M 228.976562 477.132812 L 227.832031 479.109375 L 230.113281 479.109375 Z M 190.578125 571.554688 L 185.480469 571.554688 L 188.03125 575.972656 Z M 188.03125 547.824219 L 186.683594 550.160156 L 189.375 550.160156 Z M 188.386719 501.886719 L 187.679688 501.886719 L 188.03125 502.503906 Z M 231.367188 500.710938 L 226.578125 500.710938 L 228.976562 504.855469 Z M 208.5 512.132812 L 206.964844 514.804688 L 210.046875 514.804688 Z M 188.03125 610.359375 L 179.414062 625.289062 L 196.652344 625.289062 Z M 229.332031 430.957031 L 228.621094 430.957031 L 228.976562 431.566406 Z M 276.835938 498.09375 L 263 498.09375 L 269.914062 510.078125 Z M 269.914062 473.914062 L 265.992188 480.714844 L 273.84375 480.714844 Z M 291.046875 395.308594 L 289.726562 395.308594 L 290.390625 396.453125 Z M 290.390625 371.636719 L 290.035156 372.25 L 290.742188 372.25 Z M 269.914062 406.75 L 269.257812 407.894531 L 270.578125 407.894531 Z M 259.882812 531.527344 L 239.003906 531.527344 L 249.445312 549.617188 Z M 242.183594 565.398438 L 215.765625 565.398438 L 228.976562 588.277344 Z M 413.871094 324.378906 L 412.550781 324.378906 L 413.214844 325.523438 Z M 228.976562 540.714844 L 221.472656 553.710938 L 236.472656 553.710938 Z M 249.445312 441.929688 L 248.53125 443.507812 L 250.359375 443.507812 Z M 271.050781 430.503906 L 268.777344 430.503906 L 269.914062 432.472656 Z M 249.445312 507.613281 L 243.988281 517.066406 L 254.902344 517.066406 Z M 454.15625 300.351562 L 453.496094 301.496094 L 454.816406 301.496094 Z M 562.074219 357.007812 L 550.945312 357.007812 L 556.507812 366.65625 Z M 577.339844 253.617188 L 576.628906 253.617188 L 576.984375 254.234375 Z M 540.144531 416.96875 L 572.878906 416.96875 L 556.507812 388.609375 Z M 556.507812 264.882812 L 555.851562 266.027344 L 557.171875 266.027344 Z M 576.984375 299.121094 L 575.257812 302.113281 L 578.710938 302.113281 Z M 413.214844 300.707031 L 412.859375 301.316406 L 413.570312 301.316406 Z M 536.394531 253.617188 L 535.683594 253.617188 L 536.039062 254.234375 Z M 557.425781 288.765625 L 555.597656 288.765625 L 556.507812 290.34375 Z M 538.4375 323.378906 L 533.644531 323.378906 L 536.039062 327.523438 Z M 536.039062 364.40625 L 529.421875 375.863281 L 542.65625 375.863281 Z M 548.171875 388.683594 L 523.910156 388.683594 L 536.039062 409.703125 Z M 576.984375 363.050781 L 569.195312 376.546875 L 584.765625 376.546875 Z M 579.976562 323.035156 L 573.992188 323.035156 L 576.984375 328.210938 Z M 618.28125 253.617188 L 617.574219 253.617188 L 617.925781 254.234375 Z M 617.925781 413.308594 L 633.175781 386.882812 L 602.675781 386.882812 Z M 617.925781 298.914062 L 616.023438 302.210938 L 619.824219 302.210938 Z M 617.925781 361.78125 L 609.035156 377.179688 L 626.816406 377.179688 Z M 621.332031 322.792969 L 614.519531 322.792969 L 617.925781 328.691406 Z M 603.761719 356.582031 L 591.144531 356.582031 L 597.453125 367.511719 Z M 536.039062 299.800781 L 534.902344 301.769531 L 537.179688 301.769531 Z M 591.007812 387.59375 L 562.960938 387.59375 L 576.984375 411.890625 Z M 598.589844 288.636719 L 596.316406 288.636719 L 597.453125 290.609375 Z M 597.453125 331.753906 L 593.277344 338.996094 L 601.632812 338.996094 Z M 597.453125 264.882812 L 596.792969 266.027344 L 598.117188 266.027344 Z M 556.507812 332.339844 L 552.84375 338.699219 L 560.179688 338.699219 Z M 433.683594 398.519531 L 425.898438 412.015625 L 441.472656 412.015625 Z M 447.929688 422.9375 L 419.441406 422.9375 L 433.683594 447.609375 Z M 455.296875 324.105469 L 453.019531 324.105469 L 454.15625 326.070312 Z M 461.074219 391.699219 L 447.238281 391.699219 L 454.15625 403.679688 Z M 454.15625 366.941406 L 449.738281 374.601562 L 458.578125 374.601562 Z M 639.742188 288.515625 L 637.050781 288.515625 L 638.394531 290.847656 Z M 436.53125 358.582031 L 430.839844 358.582031 L 433.683594 363.515625 Z M 418.21875 392.796875 L 408.203125 392.796875 L 413.214844 401.476562 Z M 413.214844 368.59375 L 410.222656 373.777344 L 416.207031 373.777344 Z M 398.035156 451.746094 L 428.394531 451.746094 L 413.214844 425.445312 Z M 434.039062 289.085938 L 433.328125 289.085938 L 433.683594 289.699219 Z M 433.683594 335.023438 L 432.339844 337.359375 L 435.035156 337.359375 Z M 520.574219 357.335938 L 510.5625 357.335938 L 515.570312 366.007812 Z M 516.230469 288.910156 L 514.90625 288.910156 L 515.570312 290.054688 Z M 515.570312 265.238281 L 515.214844 265.847656 L 515.925781 265.847656 Z M 515.570312 333.125 L 512.578125 338.308594 L 518.5625 338.308594 Z M 504.601562 390.203125 L 485.597656 390.203125 L 495.097656 406.671875 Z M 501.25 415.785156 L 529.886719 415.785156 L 515.570312 390.980469 Z M 495.097656 365.875 L 489.753906 375.132812 L 500.445312 375.132812 Z M 478.554688 357.960938 L 470.699219 357.960938 L 474.628906 364.761719 Z M 475.289062 288.910156 L 473.96875 288.910156 L 474.628906 290.054688 Z M 1114.351562 250.867188 L 1104.109375 250.867188 L 1109.230469 259.738281 Z M 474.628906 394.230469 L 463.125 414.152344 L 486.128906 414.152344 Z M 495.097656 300.058594 L 494.1875 301.644531 L 496.011719 301.644531 Z M 497 323.664062 L 493.199219 323.664062 L 495.097656 326.953125 Z M 761.222656 723.332031 L 768.53125 710.671875 L 753.914062 710.671875 Z M 945.464844 755.464844 L 949.886719 747.804688 L 941.039062 747.804688 Z M 940.007812 729.867188 L 950.914062 729.867188 L 945.464844 720.414062 Z M 937.023438 660.65625 L 953.902344 660.65625 L 945.464844 646.035156 Z M 945.464844 688.203125 L 953.0625 675.039062 L 937.863281 675.039062 Z M 986.402344 619.671875 L 996.085938 602.90625 L 976.726562 602.90625 Z M 975.800781 590.972656 L 997.011719 590.972656 L 986.402344 572.597656 Z M 965.933594 721.445312 L 971.609375 711.617188 L 960.261719 711.617188 Z M 945.464844 620.261719 L 955.652344 602.609375 L 935.273438 602.609375 Z M 959.21875 695.125 L 972.648438 695.125 L 965.933594 683.492188 Z M 965.933594 654.019531 L 974.644531 638.929688 L 957.222656 638.929688 Z M 962.132812 764.375 L 969.730469 764.375 L 965.933594 757.792969 Z M 956.34375 625.855469 L 975.527344 625.855469 L 965.933594 609.238281 Z M 945.464844 571.9375 L 934.285156 591.304688 L 956.640625 591.304688 Z M 904.523438 756.007812 L 909.410156 747.53125 L 899.625 747.53125 Z M 904.523438 688.746094 L 912.589844 674.769531 L 896.453125 674.769531 Z M 884.046875 722.53125 L 890.664062 711.074219 L 877.4375 711.074219 Z M 915.125 602.367188 L 893.914062 602.367188 L 904.523438 620.742188 Z M 895.632812 660.914062 L 913.410156 660.914062 L 904.523438 645.511719 Z M 920.816406 764.597656 L 929.171875 764.597656 L 924.992188 757.355469 Z M 924.992188 722.058594 L 931.195312 711.308594 L 918.785156 711.308594 Z M 924.992188 654.535156 L 934.148438 638.671875 L 915.835938 638.671875 Z M 914.972656 626.101562 L 935.011719 626.101562 L 924.992188 608.738281 Z M 917.683594 695.46875 L 932.300781 695.46875 L 924.992188 682.808594 Z M 1059.046875 590.1875 L 1077.53125 590.1875 L 1068.289062 574.167969 Z M 1047.816406 719.859375 L 1052.117188 712.410156 L 1043.515625 712.410156 Z M 1027.347656 686.59375 L 1033.550781 675.84375 L 1021.140625 675.84375 Z M 1036.800781 555.742188 L 1058.835938 555.742188 L 1047.816406 536.660156 Z M 1023.171875 729.128906 L 1031.527344 729.128906 L 1027.347656 721.890625 Z M 1027.347656 754.292969 L 1030.753906 748.394531 L 1023.945312 748.394531 Z M 1039.472656 625.136719 L 1056.167969 625.136719 L 1047.816406 610.671875 Z M 1047.816406 584.695312 L 1057.921875 567.191406 L 1037.714844 567.191406 Z M 879.390625 764.871094 L 888.707031 764.871094 L 884.046875 756.800781 Z M 1079.386719 531.148438 L 1057.191406 531.148438 L 1068.289062 550.375 Z M 1044.832031 763.910156 L 1050.808594 763.910156 L 1047.816406 758.726562 Z M 1042.472656 694.335938 L 1053.164062 694.335938 L 1047.816406 685.070312 Z M 1047.816406 652.515625 L 1055.222656 639.683594 L 1040.410156 639.683594 Z M 1003.605469 764.070312 L 1010.144531 764.070312 L 1006.878906 758.40625 Z M 1017.648438 566.808594 L 996.101562 566.808594 L 1006.878906 585.46875 Z M 981.511719 729.539062 L 991.300781 729.539062 L 986.402344 721.0625 Z M 997.898438 625.5 L 1015.855469 625.5 L 1006.878906 609.945312 Z M 986.402344 687.527344 L 993.421875 675.375 L 979.390625 675.375 Z M 986.402344 754.894531 L 990.332031 748.09375 L 982.480469 748.09375 Z M 1020.039062 660.003906 L 1034.65625 660.003906 L 1027.347656 647.339844 Z M 1017.328125 590.632812 L 1037.367188 590.632812 L 1027.347656 573.277344 Z M 1027.347656 619.066406 L 1036.503906 603.207031 L 1018.191406 603.207031 Z M 1006.878906 653.386719 L 1015.039062 639.25 L 998.71875 639.25 Z M 1000.777344 694.769531 L 1012.976562 694.769531 L 1006.878906 684.203125 Z M 978.429688 660.386719 L 994.382812 660.386719 L 986.402344 646.570312 Z M 1006.878906 720.679688 L 1011.882812 712 L 1001.867188 712 Z M 898.527344 730.175781 L 910.515625 730.175781 L 904.523438 719.792969 Z M 733.933594 730.648438 L 747.570312 730.648438 L 740.753906 718.84375 Z M 740.753906 757.039062 L 746.535156 747.023438 L 734.96875 747.023438 Z M 740.753906 689.589844 L 749.546875 674.347656 L 731.949219 674.347656 Z M 720.285156 723.445312 L 727.683594 710.617188 L 712.871094 710.617188 Z M 731.160156 661.320312 L 750.34375 661.320312 L 740.753906 644.699219 Z M 652.046875 730.648438 L 665.683594 730.648438 L 658.867188 718.84375 Z M 772.097656 661.320312 L 791.289062 661.320312 L 781.691406 644.699219 Z M 714.9375 765.273438 L 725.625 765.273438 L 720.285156 756.007812 Z M 761.222656 655.53125 L 771.242188 638.171875 L 751.203125 638.171875 Z M 761.222656 607.683594 L 750.285156 626.628906 L 772.15625 626.628906 Z M 752.96875 696.015625 L 769.472656 696.015625 L 761.222656 681.714844 Z M 755.988281 765.203125 L 766.453125 765.203125 L 761.222656 756.136719 Z M 679.339844 723.445312 L 686.746094 710.617188 L 671.933594 710.617188 Z M 674.105469 765.203125 L 684.574219 765.203125 L 679.339844 756.136719 Z M 876.261719 695.746094 L 891.835938 695.746094 L 884.046875 682.25 Z M 679.339844 607.683594 L 668.40625 626.628906 L 690.273438 626.628906 Z M 679.339844 655.628906 L 689.441406 638.121094 L 669.234375 638.121094 Z M 720.285156 655.628906 L 730.382812 638.121094 L 710.179688 638.121094 Z M 690.132812 661.371094 L 709.484375 661.371094 L 699.808594 644.605469 Z M 720.285156 607.683594 L 709.34375 626.628906 L 731.214844 626.628906 Z M 711.933594 696.066406 L 728.628906 696.066406 L 720.285156 681.609375 Z M 692.992188 730.648438 L 706.625 730.648438 L 699.808594 718.84375 Z M 699.808594 689.589844 L 708.609375 674.347656 L 691.011719 674.347656 Z M 699.808594 757.039062 L 705.589844 747.023438 L 694.027344 747.023438 Z M 670.988281 696.066406 L 687.683594 696.066406 L 679.339844 681.609375 Z M 843.109375 722.996094 L 850.121094 710.84375 L 836.089844 710.84375 Z M 838.214844 765.007812 L 848 765.007812 L 843.109375 756.53125 Z M 832.5 626.441406 L 853.710938 626.441406 L 843.109375 608.066406 Z M 835.039062 695.90625 L 851.179688 695.90625 L 843.109375 681.925781 Z M 843.109375 655.238281 L 852.871094 638.320312 L 833.347656 638.320312 Z M 874.511719 602.179688 L 852.644531 602.179688 L 863.578125 621.125 Z M 781.691406 689.488281 L 790.402344 674.398438 L 772.984375 674.398438 Z M 873.695312 626.296875 L 894.40625 626.296875 L 884.046875 608.351562 Z M 863.578125 756.40625 L 868.8125 747.335938 L 858.34375 747.335938 Z M 863.578125 689.066406 L 871.921875 674.601562 L 855.234375 674.601562 Z M 857.269531 730.359375 L 869.886719 730.359375 L 863.578125 719.429688 Z M 854.421875 661.066406 L 872.734375 661.066406 L 863.578125 645.203125 Z M 884.046875 654.933594 L 893.550781 638.472656 L 874.542969 638.472656 Z M 802.164062 655.433594 L 812.101562 638.226562 L 792.230469 638.226562 Z M 816.023438 730.535156 L 829.25 730.535156 L 822.632812 719.078125 Z M 781.691406 757.039062 L 787.472656 747.023438 L 775.914062 747.023438 Z M 794.003906 695.964844 L 810.328125 695.964844 L 802.164062 681.824219 Z M 774.976562 730.59375 L 788.410156 730.59375 L 781.691406 718.957031 Z M 791.308594 626.582031 L 813.019531 626.582031 L 802.164062 607.777344 Z M 797.046875 765.140625 L 807.285156 765.140625 L 802.164062 756.265625 Z M 822.632812 756.789062 L 828.199219 747.148438 L 817.070312 747.148438 Z M 822.632812 689.277344 L 831.167969 674.5 L 814.105469 674.5 Z M 802.164062 723.222656 L 809.378906 710.730469 L 794.953125 710.730469 Z M 813.21875 661.222656 L 832.054688 661.222656 L 822.632812 644.902344 Z M 833.816406 602.035156 L 811.460938 602.035156 L 822.632812 621.40625 Z M 1120.546875 554.667969 L 1138.859375 554.667969 L 1129.703125 538.808594 Z M 1227.640625 587.402344 L 1236.480469 587.402344 L 1232.058594 579.742188 Z M 1232.058594 544.84375 L 1238.367188 533.917969 L 1225.75 533.917969 Z M 1232.058594 612.734375 L 1235.730469 606.371094 L 1228.386719 606.371094 Z M 1224.847656 518.078125 L 1239.273438 518.078125 L 1232.058594 505.582031 Z M 1232.058594 476.996094 L 1241.039062 461.441406 L 1223.082031 461.441406 Z M 1222.296875 448.621094 L 1241.824219 448.621094 L 1232.058594 431.707031 Z M 1230.921875 727.371094 L 1233.199219 727.371094 L 1232.058594 725.402344 Z M 1242.421875 413.347656 L 1262.636719 413.347656 L 1252.527344 395.84375 Z M 1252.527344 441.835938 L 1261.769531 425.820312 L 1243.285156 425.820312 Z M 1229.210938 657.421875 L 1234.902344 657.421875 L 1232.058594 652.492188 Z M 1232.058594 682.003906 L 1234.289062 678.132812 L 1229.824219 678.132812 Z M 1232.058594 751.125 L 1232.71875 749.980469 L 1231.398438 749.980469 Z M 1211.585938 716.886719 L 1213.3125 713.898438 L 1209.863281 713.898438 Z M 1189.210938 727.8125 L 1193.019531 727.8125 L 1191.117188 724.515625 Z M 1202.34375 483.789062 L 1220.832031 483.789062 L 1211.585938 467.769531 Z M 1191.117188 751.914062 L 1192.460938 749.585938 L 1189.773438 749.585938 Z M 1191.117188 682.882812 L 1194.109375 677.699219 L 1188.125 677.699219 Z M 1211.585938 511.835938 L 1220.027344 497.21875 L 1203.148438 497.21875 Z M 1210.925781 762.566406 L 1212.25 762.566406 L 1211.585938 761.421875 Z M 1209.195312 692.628906 L 1213.980469 692.628906 L 1211.585938 688.480469 Z M 1211.585938 647.578125 L 1214.71875 642.148438 L 1208.457031 642.148438 Z M 1204.972656 553.203125 L 1218.203125 553.203125 L 1211.585938 541.738281 Z M 1211.585938 579.582031 L 1217.257812 569.746094 L 1205.910156 569.746094 Z M 1207.789062 622.511719 L 1215.386719 622.511719 L 1211.585938 615.925781 Z M 1262.207031 70.902344 L 1242.851562 70.902344 L 1252.527344 87.671875 Z M 1170.648438 190.324219 L 1166.84375 196.910156 L 1174.445312 196.910156 Z M 1171 147.21875 L 1170.292969 147.21875 L 1170.648438 147.835938 Z M 1179.445312 213.277344 L 1161.84375 213.277344 L 1170.648438 228.519531 Z M 1191.117188 156.855469 L 1189.046875 160.445312 L 1193.1875 160.445312 Z M 1197.109375 179.429688 L 1185.121094 179.429688 L 1191.117188 189.816406 Z M 1163.15625 246.328125 L 1137.195312 246.328125 L 1150.171875 268.820312 Z M 1216.359375 144.667969 L 1206.808594 144.667969 L 1211.585938 152.945312 Z M 1068.289062 618.238281 L 1076.726562 603.621094 L 1059.847656 603.621094 Z M 1129.703125 193.660156 L 1128.789062 195.242188 L 1130.617188 195.242188 Z M 1150.171875 222.65625 L 1143.660156 233.945312 L 1156.6875 233.945312 Z M 1151.3125 182.234375 L 1149.035156 182.234375 L 1150.171875 184.207031 Z M 1150.171875 158.835938 L 1149.816406 159.453125 L 1150.527344 159.453125 Z M 1232.058594 86.761719 L 1230.710938 89.089844 L 1233.402344 89.089844 Z M 1252.527344 647.074219 L 1255.226562 642.402344 L 1249.828125 642.402344 Z M 1249.539062 622.039062 L 1255.519531 622.039062 L 1252.527344 616.863281 Z M 1252.527344 577.703125 L 1256.582031 570.6875 L 1248.472656 570.6875 Z M 1252.527344 509.851562 L 1259.242188 498.214844 L 1245.816406 498.214844 Z M 1247.640625 552.207031 L 1257.425781 552.207031 L 1252.527344 543.730469 Z M 1252.527344 715.945312 L 1253.445312 714.363281 L 1251.613281 714.363281 Z M 1237.0625 109.066406 L 1227.050781 109.066406 L 1232.058594 117.738281 Z M 1244.746094 482.945312 L 1260.320312 482.945312 L 1252.527344 469.449219 Z M 1252.527344 45.800781 L 1246.433594 56.371094 L 1258.632812 56.371094 Z M 1187.84375 657.667969 L 1194.386719 657.667969 L 1191.117188 652.007812 Z M 1251.183594 692.023438 L 1253.871094 692.023438 L 1252.527344 689.695312 Z M 1211.585938 122.726562 L 1210.675781 124.304688 L 1212.5 124.304688 Z M 1129.703125 252.273438 L 1118.121094 272.335938 L 1141.285156 272.335938 Z M 1103.886719 658.867188 L 1114.578125 658.867188 L 1109.230469 649.609375 Z M 1109.230469 684.535156 L 1113.65625 676.875 L 1104.808594 676.875 Z M 1109.230469 617.160156 L 1116.734375 604.15625 L 1101.730469 604.15625 Z M 1100.792969 589.71875 L 1117.671875 589.71875 L 1109.230469 575.101562 Z M 1109.230469 753.476562 L 1111.933594 748.800781 L 1106.535156 748.800781 Z M 1123.292969 624.015625 L 1136.113281 624.015625 L 1129.703125 612.910156 Z M 1129.703125 582.664062 L 1138.046875 568.203125 L 1121.359375 568.203125 Z M 1106.242188 728.441406 L 1112.21875 728.441406 L 1109.230469 723.257812 Z M 1109.230469 549.226562 L 1119.335938 531.726562 L 1099.128906 531.726562 Z M 1140.640625 495.777344 L 1118.769531 495.777344 L 1129.703125 514.726562 Z M 1132.550781 216.714844 L 1126.855469 216.714844 L 1129.703125 221.644531 Z M 1081.257812 624.648438 L 1096.261719 624.648438 L 1088.761719 611.652344 Z M 1064.75 728.757812 L 1071.832031 728.757812 L 1068.289062 722.628906 Z M 1068.289062 753.8125 L 1071.28125 748.628906 L 1065.300781 748.628906 Z M 1068.289062 685.597656 L 1073.632812 676.34375 L 1062.945312 676.34375 Z M 1098.214844 520.273438 L 1120.25 520.273438 L 1109.230469 501.191406 Z M 1061.878906 659.484375 L 1074.703125 659.484375 L 1068.289062 648.375 Z M 1078.574219 555.261719 L 1098.953125 555.261719 L 1088.761719 537.613281 Z M 1088.761719 583.699219 L 1098.003906 567.6875 L 1079.519531 567.6875 Z M 1086.058594 763.738281 L 1091.460938 763.738281 L 1088.761719 759.066406 Z M 1088.761719 718.980469 L 1092.300781 712.847656 L 1085.21875 712.847656 Z M 1129.703125 650.136719 L 1135.050781 640.875 L 1124.355469 640.875 Z M 1084.339844 693.800781 L 1093.179688 693.800781 L 1088.761719 686.140625 Z M 1088.761719 651.480469 L 1095.273438 640.199219 L 1082.246094 640.199219 Z M 1127.632812 763.378906 L 1131.773438 763.378906 L 1129.703125 759.789062 Z M 1165.523438 623.269531 L 1175.765625 623.269531 L 1170.648438 614.398438 Z M 1170.648438 648.785156 L 1174.824219 641.546875 L 1166.464844 641.546875 Z M 1167.65625 692.972656 L 1173.632812 692.972656 L 1170.648438 687.796875 Z M 1126.164062 693.292969 L 1133.242188 693.292969 L 1129.703125 687.160156 Z M 1170.648438 581.242188 L 1177.761719 568.917969 L 1163.53125 568.917969 Z M 1191.117188 546.773438 L 1199.089844 532.953125 L 1183.136719 532.953125 Z M 1170.648438 513.371094 L 1180.410156 496.453125 L 1160.878906 496.453125 Z M 1185.226562 588.25 L 1197.007812 588.25 L 1191.117188 578.046875 Z M 1170.648438 718.011719 L 1173.347656 713.332031 L 1167.949219 713.332031 Z M 1182.40625 518.945312 L 1199.828125 518.945312 L 1191.117188 503.855469 Z M 1169.296875 762.960938 L 1171.992188 762.960938 L 1170.648438 760.625 Z M 1191.117188 478.683594 L 1201.554688 460.59375 L 1180.671875 460.59375 Z M 1162.480469 554.09375 L 1178.808594 554.09375 L 1170.648438 539.953125 Z M 1140.152344 519.703125 L 1160.191406 519.703125 L 1150.171875 502.339844 Z M 1159.957031 484.621094 L 1181.332031 484.621094 L 1170.648438 466.105469 Z M 1150.171875 548.132812 L 1159.328125 532.269531 L 1141.015625 532.269531 Z M 1191.117188 614.140625 L 1196.007812 605.667969 L 1186.21875 605.667969 Z M 1129.703125 718.34375 L 1132.695312 713.167969 L 1126.710938 713.167969 Z M 1142.863281 589.066406 L 1157.480469 589.066406 L 1150.171875 576.40625 Z M 1147.472656 728.273438 L 1152.871094 728.273438 L 1150.171875 723.597656 Z M 1150.171875 752.753906 L 1152.242188 749.160156 L 1148.101562 749.160156 Z M 1150.171875 615.777344 L 1156.480469 604.851562 L 1143.863281 604.851562 Z M 1145.871094 658.265625 L 1154.472656 658.265625 L 1150.171875 650.816406 Z M 1146.632812 677.382812 L 1153.710938 677.382812 L 1150.171875 683.515625 Z M 1146.632812 677.382812 " fill-opacity="1" fill-rule="nonzero"/></g></svg>