<svg xmlns="http://www.w3.org/2000/svg" xmlns:xlink="http://www.w3.org/1999/xlink" width="1920" zoomAndPan="magnify" viewBox="0 0 1440 809.999993" height="1080" preserveAspectRatio="xMidYMid meet" version="1.0"><defs><clipPath id="50df68f9b8"><path d="M 1029 644 L 1088.4375 644 L 1088.4375 721 L 1029 721 Z M 1029 644 " clip-rule="nonzero"/></clipPath><clipPath id="fdc8cafcc0"><path d="M 1029 715 L 1088.4375 715 L 1088.4375 774.808594 L 1029 774.808594 Z M 1029 715 " clip-rule="nonzero"/></clipPath><clipPath id="26a233ba1c"><path d="M 370 34.875 L 1088.4375 34.875 L 1088.4375 645 L 370 645 Z M 370 34.875 " clip-rule="nonzero"/></clipPath><clipPath id="8da1436e27"><path d="M 364 34.875 L 1086 34.875 L 1086 660 L 364 660 Z M 364 34.875 " clip-rule="nonzero"/></clipPath><clipPath id="16f413b60c"><path d="M 358 34.875 L 1073 34.875 L 1073 674 L 358 674 Z M 358 34.875 " clip-rule="nonzero"/></clipPath><clipPath id="9e05e720bd"><path d="M 352 34.875 L 1061 34.875 L 1061 688 L 352 688 Z M 352 34.875 " clip-rule="nonzero"/></clipPath><clipPath id="9e6479488d"><path d="M 351.308594 34.875 L 1049 34.875 L 1049 702 L 351.308594 702 Z M 351.308594 34.875 " clip-rule="nonzero"/></clipPath><clipPath id="b480280bdf"><path d="M 351.308594 34.875 L 1036 34.875 L 1036 716 L 351.308594 716 Z M 351.308594 34.875 " clip-rule="nonzero"/></clipPath><clipPath id="31c0a02f0a"><path d="M 351.308594 34.875 L 1024 34.875 L 1024 730 L 351.308594 730 Z M 351.308594 34.875 " clip-rule="nonzero"/></clipPath><clipPath id="678f0e032e"><path d="M 351.308594 34.875 L 1011 34.875 L 1011 744 L 351.308594 744 Z M 351.308594 34.875 " clip-rule="nonzero"/></clipPath><clipPath id="2e1b255d10"><path d="M 351.308594 36 L 999 36 L 999 759 L 351.308594 759 Z M 351.308594 36 " clip-rule="nonzero"/></clipPath></defs><path stroke-linecap="butt" transform="matrix(2.20631, 0, 0, 2.206637, 158.477357, -169.325304)" fill="none" stroke-linejoin="miter" d="M 187.999169 142.999483 C 187.999169 143.394244 187.961989 143.783694 187.884087 144.171374 C 187.807956 144.557283 187.694645 144.932572 187.542383 145.295468 C 187.391891 145.660135 187.20776 146.00533 186.988219 146.332822 C 186.770449 146.660314 186.52081 146.964793 186.242843 147.242719 C 185.964876 147.520644 185.660351 147.770247 185.33281 147.987985 C 185.00527 148.207493 184.660024 148.393367 184.295303 148.543836 C 183.932353 148.694305 183.557009 148.8076 183.171042 148.88549 C 182.783304 148.96161 182.393796 149.000555 182.000747 149.000555 C 181.605928 149.000555 181.21642 148.96161 180.828683 148.88549 C 180.442716 148.8076 180.067372 148.694305 179.704421 148.543836 C 179.3397 148.393367 178.994455 148.207493 178.666914 147.987985 C 178.339373 147.770247 178.036619 147.520644 177.756882 147.242719 C 177.478915 146.964793 177.229276 146.660314 177.011505 146.332822 C 176.791965 146.00533 176.607834 145.660135 176.457342 145.295468 C 176.30508 144.932572 176.191768 144.557283 176.115637 144.171374 C 176.037736 143.783694 176.000555 143.394244 176.000555 142.999483 C 176.000555 142.606492 176.037736 142.215272 176.115637 141.829362 C 176.191768 141.443453 176.30508 141.068165 176.457342 140.703498 C 176.607834 140.340601 176.791965 139.993636 177.011505 139.666144 C 177.229276 139.338652 177.478915 139.035943 177.756882 138.758017 C 178.036619 138.478322 178.339373 138.23049 178.666914 138.010981 C 178.994455 137.791473 179.3397 137.607369 179.704421 137.4569 C 180.067372 137.306431 180.442716 137.191366 180.828683 137.115246 C 181.21642 137.039126 181.605928 137.000181 182.000747 137.000181 C 182.393796 137.000181 182.783304 137.039126 183.171042 137.115246 C 183.557009 137.191366 183.932353 137.306431 184.295303 137.4569 C 184.660024 137.607369 185.00527 137.791473 185.33281 138.010981 C 185.660351 138.23049 185.964876 138.478322 186.242843 138.758017 C 186.52081 139.035943 186.770449 139.338652 186.988219 139.666144 C 187.20776 139.993636 187.391891 140.340601 187.542383 140.703498 C 187.694645 141.068165 187.807956 141.443453 187.884087 141.829362 C 187.961989 142.215272 187.999169 142.606492 187.999169 142.999483 Z M 187.999169 142.999483 " stroke="#af9446" stroke-width="1" stroke-opacity="1" stroke-miterlimit="10"/><path stroke-linecap="butt" transform="matrix(2.20631, 0, 0, 2.206637, 158.477357, -169.325304)" fill="none" stroke-linejoin="miter" d="M 165.000498 369.999317 C 165.000498 370.197583 164.981023 370.392308 164.942072 370.585263 C 164.903121 370.778217 164.846465 370.965862 164.772105 371.148195 C 164.695974 371.330529 164.603908 371.502241 164.494138 371.666872 C 164.384367 371.829733 164.260433 371.981972 164.120564 372.12182 C 163.982466 372.259898 163.830204 372.385584 163.667319 372.493568 C 163.502663 372.603322 163.329155 372.695374 163.148565 372.771494 C 162.966205 372.847614 162.778533 372.904261 162.585549 372.941436 C 162.392566 372.980381 162.197812 372.999853 161.999517 372.999853 C 161.802992 372.999853 161.608238 372.980381 161.415255 372.941436 C 161.222271 372.904261 161.034599 372.847614 160.852239 372.771494 C 160.669878 372.695374 160.49637 372.603322 160.333485 372.493568 C 160.16883 372.385584 160.018338 372.259898 159.878469 372.12182 C 159.7386 371.981972 159.614666 371.829733 159.504896 371.666872 C 159.396896 371.502241 159.30306 371.330529 159.228699 371.148195 C 159.152568 370.965862 159.095912 370.778217 159.056962 370.585263 C 159.019781 370.392308 159.000306 370.197583 159.000306 369.999317 C 159.000306 369.802822 159.019781 369.608097 159.056962 369.415142 C 159.095912 369.222187 159.152568 369.034543 159.228699 368.85221 C 159.30306 368.669876 159.396896 368.496394 159.504896 368.333533 C 159.614666 368.168902 159.7386 368.018433 159.878469 367.878585 C 160.018338 367.738737 160.16883 367.614821 160.333485 367.505067 C 160.49637 367.395312 160.669878 367.303261 160.852239 367.228911 C 161.034599 367.152791 161.222271 367.096144 161.415255 367.057199 C 161.608238 367.020024 161.802992 367.000552 161.999517 367.000552 C 162.197812 367.000552 162.392566 367.020024 162.585549 367.057199 C 162.778533 367.096144 162.966205 367.152791 163.148565 367.228911 C 163.329155 367.303261 163.502663 367.395312 163.667319 367.505067 C 163.830204 367.614821 163.982466 367.738737 164.120564 367.878585 C 164.260433 368.018433 164.384367 368.168902 164.494138 368.333533 C 164.603908 368.496394 164.695974 368.669876 164.772105 368.85221 C 164.846465 369.034543 164.903121 369.222187 164.942072 369.415142 C 164.981023 369.608097 165.000498 369.802822 165.000498 369.999317 Z M 165.000498 369.999317 " stroke="#af9446" stroke-width="1" stroke-opacity="1" stroke-miterlimit="10"/><path stroke-linecap="butt" transform="matrix(2.20631, 0, 0, 2.206637, 158.477357, -169.325304)" fill="none" stroke-linejoin="miter" d="M 318.999529 240.999287 C 318.999529 241.197552 318.980053 241.392277 318.942873 241.585232 C 318.903922 241.778187 318.847267 241.965831 318.771135 242.148164 C 318.696775 242.330498 318.604709 242.50221 318.494939 242.666841 C 318.385169 242.829702 318.261234 242.981942 318.121365 243.12179 C 317.981497 243.259867 317.831005 243.385554 317.666349 243.493537 C 317.503464 243.603292 317.329956 243.697114 317.147596 243.771463 C 316.965235 243.847583 316.777563 243.90423 316.58458 243.943175 C 316.391596 243.98035 316.196842 243.999823 316.000318 243.999823 C 315.803793 243.999823 315.607269 243.98035 315.414286 243.943175 C 315.221302 243.90423 315.03363 243.847583 314.85127 243.771463 C 314.67068 243.697114 314.497171 243.603292 314.332516 243.493537 C 314.169631 243.385554 314.017369 243.259867 313.87927 243.12179 C 313.739402 242.981942 313.615467 242.829702 313.505697 242.666841 C 313.395926 242.50221 313.303861 242.330498 313.22773 242.148164 C 313.153369 241.965831 313.096714 241.778187 313.057763 241.585232 C 313.018812 241.392277 312.999337 241.197552 312.999337 240.999287 C 312.999337 240.802791 313.018812 240.608066 313.057763 240.415112 C 313.096714 240.222157 313.153369 240.034513 313.22773 239.852179 C 313.303861 239.669846 313.395926 239.496363 313.505697 239.333502 C 313.615467 239.168871 313.739402 239.018402 313.87927 238.878554 C 314.017369 238.738706 314.169631 238.61479 314.332516 238.505036 C 314.497171 238.395282 314.67068 238.30323 314.85127 238.22888 C 315.03363 238.152761 315.221302 238.096113 315.414286 238.057168 C 315.607269 238.019994 315.803793 238.000521 316.000318 238.000521 C 316.196842 238.000521 316.391596 238.019994 316.58458 238.057168 C 316.777563 238.096113 316.965235 238.152761 317.147596 238.22888 C 317.329956 238.30323 317.503464 238.395282 317.666349 238.505036 C 317.831005 238.61479 317.981497 238.738706 318.121365 238.878554 C 318.261234 239.018402 318.385169 239.168871 318.494939 239.333502 C 318.604709 239.496363 318.696775 239.669846 318.771135 239.852179 C 318.847267 240.034513 318.903922 240.222157 318.942873 240.415112 C 318.980053 240.608066 318.999529 240.802791 318.999529 240.999287 Z M 318.999529 240.999287 " stroke="#af9446" stroke-width="1" stroke-opacity="1" stroke-miterlimit="10"/><g clip-path="url(#50df68f9b8)"><path stroke-linecap="butt" transform="matrix(2.20631, 0, 0, 2.206637, 158.477357, -169.325304)" fill="none" stroke-linejoin="miter" d="M 415.000833 386.000405 C 415.000833 386.1969 414.981357 386.391626 414.942407 386.58458 C 414.903456 386.779305 414.8468 386.965179 414.77244 387.147513 C 414.696309 387.329846 414.604243 387.503328 414.494473 387.666189 C 414.384702 387.830821 414.260768 387.98129 414.120899 388.121138 C 413.982801 388.260986 413.830539 388.384902 413.665883 388.494656 C 413.502998 388.60441 413.32949 388.696462 413.1489 388.770811 C 412.966539 388.846931 412.778867 388.903579 412.585884 388.942524 C 412.3929 388.981469 412.196376 388.999171 411.999852 388.999171 C 411.803327 388.999171 411.608573 388.981469 411.413819 388.942524 C 411.220836 388.903579 411.033164 388.846931 410.852574 388.770811 C 410.670213 388.696462 410.496705 388.60441 410.33382 388.494656 C 410.169164 388.384902 410.018673 388.260986 409.878804 388.121138 C 409.738935 387.98129 409.615001 387.830821 409.505231 387.666189 C 409.39546 387.503328 409.303395 387.329846 409.229034 387.147513 C 409.152903 386.965179 409.096247 386.779305 409.057296 386.58458 C 409.018346 386.391626 409.000641 386.1969 409.000641 386.000405 C 409.000641 385.80214 409.018346 385.607415 409.057296 385.41446 C 409.096247 385.221505 409.152903 385.033861 409.229034 384.851527 C 409.303395 384.669194 409.39546 384.497482 409.505231 384.332851 C 409.615001 384.16999 409.738935 384.01775 409.878804 383.877902 C 410.018673 383.739824 410.169164 383.614138 410.33382 383.506154 C 410.496705 383.3964 410.670213 383.304348 410.852574 383.228229 C 411.033164 383.152109 411.220836 383.095462 411.413819 383.058287 C 411.608573 383.019342 411.803327 382.999869 411.999852 382.999869 C 412.196376 382.999869 412.3929 383.019342 412.585884 383.058287 C 412.778867 383.095462 412.966539 383.152109 413.1489 383.228229 C 413.32949 383.304348 413.502998 383.3964 413.665883 383.506154 C 413.830539 383.614138 413.982801 383.739824 414.120899 383.877902 C 414.260768 384.01775 414.384702 384.16999 414.494473 384.332851 C 414.604243 384.497482 414.696309 384.669194 414.77244 384.851527 C 414.8468 385.033861 414.903456 385.221505 414.942407 385.41446 C 414.981357 385.607415 415.000833 385.80214 415.000833 386.000405 Z M 415.000833 386.000405 " stroke="#af9446" stroke-width="1" stroke-opacity="1" stroke-miterlimit="10"/></g><g clip-path="url(#fdc8cafcc0)"><path stroke-linecap="butt" transform="matrix(2.20631, 0, 0, 2.206637, 158.477357, -169.325304)" fill="none" stroke-linejoin="miter" d="M 420.999255 420.999576 C 420.999255 421.394337 420.962074 421.783787 420.884173 422.169697 C 420.808042 422.557377 420.69473 422.932665 420.542468 423.295562 C 420.391976 423.660229 420.207845 424.005423 419.988305 424.332915 C 419.770534 424.660407 419.520895 424.964886 419.242928 425.242812 C 418.963191 425.520738 418.660437 425.77034 418.332896 425.988078 C 418.005355 426.207586 417.66011 426.39169 417.295389 426.543929 C 416.932438 426.694399 416.557094 426.807693 416.171127 426.883813 C 415.78339 426.961703 415.393882 427.000648 415.000833 427.000648 C 414.606014 427.000648 414.216506 426.961703 413.828768 426.883813 C 413.442801 426.807693 413.067457 426.694399 412.704507 426.543929 C 412.339786 426.39169 411.99454 426.207586 411.666999 425.988078 C 411.339459 425.77034 411.036705 425.520738 410.756967 425.242812 C 410.479 424.964886 410.229361 424.660407 410.011591 424.332915 C 409.79205 424.005423 409.607919 423.660229 409.457427 423.295562 C 409.305165 422.932665 409.191854 422.557377 409.115723 422.169697 C 409.037821 421.783787 409.000641 421.394337 409.000641 420.999576 C 409.000641 420.606586 409.037821 420.215366 409.115723 419.829456 C 409.191854 419.443546 409.305165 419.068258 409.457427 418.703591 C 409.607919 418.340694 409.79205 417.99373 410.011591 417.666238 C 410.229361 417.338746 410.479 417.036037 410.756967 416.758111 C 411.036705 416.478415 411.339459 416.230583 411.666999 416.011075 C 411.99454 415.791567 412.339786 415.607463 412.704507 415.456994 C 413.067457 415.306524 413.442801 415.191459 413.828768 415.11534 C 414.216506 415.03922 414.606014 415.000275 415.000833 415.000275 C 415.393882 415.000275 415.78339 415.03922 416.171127 415.11534 C 416.557094 415.191459 416.932438 415.306524 417.295389 415.456994 C 417.66011 415.607463 418.005355 415.791567 418.332896 416.011075 C 418.660437 416.230583 418.963191 416.478415 419.242928 416.758111 C 419.520895 417.036037 419.770534 417.338746 419.988305 417.666238 C 420.207845 417.99373 420.391976 418.340694 420.542468 418.703591 C 420.69473 419.068258 420.808042 419.443546 420.884173 419.829456 C 420.962074 420.215366 420.999255 420.606586 420.999255 420.999576 Z M 420.999255 420.999576 " stroke="#af9446" stroke-width="1" stroke-opacity="1" stroke-miterlimit="10"/></g><g clip-path="url(#26a233ba1c)"><path stroke-linecap="butt" transform="matrix(2.20631, 0, 0, 2.206637, 158.477357, -169.325304)" fill="none" stroke-linejoin="miter" d="M 260.939835 93.859733 L 110.249851 354.86033 L 411.629819 354.86033 Z M 260.939835 93.859733 " stroke="#af9446" stroke-width="1" stroke-opacity="1" stroke-miterlimit="10"/></g><g clip-path="url(#8da1436e27)"><path stroke-linecap="butt" transform="matrix(2.20631, 0, 0, 2.206637, 158.477357, -169.325304)" fill="none" stroke-linejoin="miter" d="M 269.310714 95.530828 L 107.519755 346.77039 L 405.990807 361.270325 Z M 269.310714 95.530828 " stroke="#af9446" stroke-width="1" stroke-opacity="1" stroke-miterlimit="10"/></g><g clip-path="url(#16f413b60c)"><path stroke-linecap="butt" transform="matrix(2.20631, 0, 0, 2.206637, 158.477357, -169.325304)" fill="none" stroke-linejoin="miter" d="M 277.679822 97.200153 L 104.780806 338.680449 L 400.350024 367.680319 Z M 277.679822 97.200153 " stroke="#af9446" stroke-width="1" stroke-opacity="1" stroke-miterlimit="10"/></g><g clip-path="url(#9e05e720bd)"><path stroke-linecap="butt" transform="matrix(2.20631, 0, 0, 2.206637, 158.477357, -169.325304)" fill="none" stroke-linejoin="miter" d="M 286.050701 98.880099 L 102.05071 330.59936 L 394.719865 374.090313 Z M 286.050701 98.880099 " stroke="#af9446" stroke-width="1" stroke-opacity="1" stroke-miterlimit="10"/></g><g clip-path="url(#9e6479488d)"><path stroke-linecap="butt" transform="matrix(2.20631, 0, 0, 2.206637, 158.477357, -169.325304)" fill="none" stroke-linejoin="miter" d="M 294.41981 100.560045 L 99.309991 322.50942 L 389.080853 380.500308 Z M 294.41981 100.560045 " stroke="#af9446" stroke-width="1" stroke-opacity="1" stroke-miterlimit="10"/></g><g clip-path="url(#b480280bdf)"><path stroke-linecap="butt" transform="matrix(2.20631, 0, 0, 2.206637, 158.477357, -169.325304)" fill="none" stroke-linejoin="miter" d="M 302.790689 102.22937 L 96.579894 314.419479 L 383.450693 386.910302 Z M 302.790689 102.22937 " stroke="#af9446" stroke-width="1" stroke-opacity="1" stroke-miterlimit="10"/></g><g clip-path="url(#31c0a02f0a)"><path stroke-linecap="butt" transform="matrix(2.20631, 0, 0, 2.206637, 158.477357, -169.325304)" fill="none" stroke-linejoin="miter" d="M 311.159797 103.909316 L 93.839175 306.34016 L 377.80991 393.320297 Z M 311.159797 103.909316 " stroke="#af9446" stroke-width="1" stroke-opacity="1" stroke-miterlimit="10"/></g><g clip-path="url(#678f0e032e)"><path stroke-linecap="butt" transform="matrix(2.20631, 0, 0, 2.206637, 158.477357, -169.325304)" fill="none" stroke-linejoin="miter" d="M 319.530676 105.580411 L 91.110849 298.25022 L 372.179751 399.730291 Z M 319.530676 105.580411 " stroke="#af9446" stroke-width="1" stroke-opacity="1" stroke-miterlimit="10"/></g><g clip-path="url(#2e1b255d10)"><path stroke-linecap="butt" transform="matrix(2.20631, 0, 0, 2.206637, 158.477357, -169.325304)" fill="none" stroke-linejoin="miter" d="M 327.899784 107.260357 L 88.37013 290.160279 L 366.540739 406.140285 Z M 327.899784 107.260357 " stroke="#af9446" stroke-width="1" stroke-opacity="1" stroke-miterlimit="10"/></g></svg>