<svg xmlns="http://www.w3.org/2000/svg" xmlns:xlink="http://www.w3.org/1999/xlink" viewBox="0,0,256,256" width="50px" height="50px" fill-rule="nonzero"><g fill="#ffffff" fill-rule="nonzero" stroke="none" stroke-width="1" stroke-linecap="butt" stroke-linejoin="miter" stroke-miterlimit="10" stroke-dasharray="" stroke-dashoffset="0" font-family="none" font-weight="none" font-size="none" text-anchor="none" style="mix-blend-mode: normal"><g transform="scale(5.12,5.12)"><path d="M5,7c-2.75781,0 -5,2.24219 -5,5v26c0,2.75781 2.24219,5 5,5h40c2.75781,0 5,-2.24219 5,-5v-26c0,-2.75781 -2.24219,-5 -5,-5zM29.6875,19.40625c1.36328,0 2.78125,0.5625 2.78125,0.5625l-0.5,2.4375c0,0 -1.07812,-0.71875 -2.03125,-0.71875c-1.46875,0 -2,0.48047 -2,1.125c0,1.26172 4.09375,1.48438 4.09375,4.3125c0,2.35156 -2.91797,3.96875 -5.03125,3.96875c-2.11328,0 -3.21875,-0.625 -3.21875,-0.625l0.53125,-2.375c0,0 1.10547,0.65625 2.8125,0.65625c1.70313,0 1.9375,-0.72656 1.9375,-1.03125c0,-1.80469 -4.0625,-1.30078 -4.0625,-4.8125c0,-1.94141 1.58594,-3.5 4.6875,-3.5zM16.46875,19.625h3.15625l-4.5,11.125h-3.25l-2.375,-9c0,0 2.49609,1.27344 4.03125,4.71875c0.06641,0.41797 0.25,1.09375 0.25,1.09375zM20.78125,19.625h3l-1.78125,11.125h-2.96875zM36.8125,19.625h3.09375l2.28125,11.125h-2.6875l-0.3125,-1.59375h-3.6875l-0.59375,1.59375h-2.9375zM6.25,19.65625h4.5625c1.16406,0 1.59375,1.09375 1.59375,1.09375l1,5.0625c-1.35156,-4.35937 -7.15625,-6.15625 -7.15625,-6.15625zM37.9375,22.84375l-1.625,4.1875h2.4375z"></path></g></g></svg>